999
"DXF R12 Output" (www.mydxf.blogspot.com)
 0 
SECTION
 2 
HEADER
 9 
$ACADVER
 1 
AC1009
 9 
$EXTMIN
 10 
 0 
 20 
 0 
 9 
$EXTMAX
 10 
 8.5 
 20 
 11 
 0 
ENDSEC
 0 
SECTION
 2 
ENTITIES
0
POLYLINE
8
g23
62
7
70
0
10
0.000000
20
0.000000
66
1
0
VERTEX
8
g23
10
9.162374
20
13.331147
70
0
0
VERTEX
8
g23
10
9.646650
20
12.302199
70
0
0
VERTEX
8
g23
10
10.318293
20
11.422053
70
0
0
VERTEX
8
g23
10
11.148252
20
10.688268
70
0
0
VERTEX
8
g23
10
12.107479
20
10.098402
70
0
0
VERTEX
8
g23
10
13.166925
20
9.650014
70
0
0
VERTEX
8
g23
10
14.297541
20
9.340661
70
0
0
VERTEX
8
g23
10
16.656088
20
9.129298
70
0
0
VERTEX
8
g23
10
18.950728
20
9.444778
70
0
0
VERTEX
8
g23
10
20.001460
20
9.793980
70
0
0
VERTEX
8
g23
10
20.949069
20
10.267568
70
0
0
VERTEX
8
g23
10
21.764506
20
10.863100
70
0
0
VERTEX
8
g23
10
22.418721
20
11.578134
70
0
0
VERTEX
8
g23
10
22.882667
20
12.410230
70
0
0
VERTEX
8
g23
10
23.127292
20
13.356944
70
0
0
SEQEND
8
g23
0
POLYLINE
8
g23
62
7
70
0
10
0.000000
20
0.000000
66
1
0
VERTEX
8
g23
10
7.942968
20
13.436707
70
0
0
VERTEX
8
g23
10
7.791668
20
12.461151
70
0
0
VERTEX
8
g23
10
7.357847
20
11.551946
70
0
0
VERTEX
8
g23
10
6.671628
20
10.728733
70
0
0
VERTEX
8
g23
10
5.763130
20
10.011151
70
0
0
VERTEX
8
g23
10
4.662476
20
9.418843
70
0
0
VERTEX
8
g23
10
3.399786
20
8.971449
70
0
0
VERTEX
8
g23
10
2.005181
20
8.688609
70
0
0
VERTEX
8
g23
10
0.508784
20
8.589965
70
0
0
VERTEX
8
g23
10
0.508784
20
7.961578
70
0
0
VERTEX
8
g23
10
2.246148
20
8.079400
70
0
0
VERTEX
8
g23
10
2.246148
20
5.550350
70
0
0
VERTEX
8
g23
10
0.508784
20
5.550350
70
0
0
VERTEX
8
g23
10
0.508784
20
4.921964
70
0
0
VERTEX
8
g23
10
7.942968
20
4.921964
70
0
0
VERTEX
8
g23
10
7.942968
20
1.152677
70
0
0
VERTEX
8
g23
10
7.079454
20
1.152677
70
0
0
VERTEX
8
g23
10
7.079454
20
0.524290
70
0
0
VERTEX
8
g23
10
9.770767
20
0.524290
70
0
0
VERTEX
8
g23
10
9.770767
20
1.152677
70
0
0
VERTEX
8
g23
10
8.907252
20
1.152677
70
0
0
VERTEX
8
g23
10
8.907252
20
4.921964
70
0
0
VERTEX
8
g23
10
23.776138
20
4.921964
70
0
0
VERTEX
8
g23
10
23.776138
20
1.152677
70
0
0
VERTEX
8
g23
10
22.912623
20
1.152677
70
0
0
VERTEX
8
g23
10
22.912623
20
0.524290
70
0
0
VERTEX
8
g23
10
25.603936
20
0.524290
70
0
0
VERTEX
8
g23
10
25.603936
20
1.152677
70
0
0
VERTEX
8
g23
10
24.739906
20
1.152677
70
0
0
VERTEX
8
g23
10
24.739906
20
4.921964
70
0
0
VERTEX
8
g23
10
32.174608
20
4.921964
70
0
0
VERTEX
8
g23
10
32.174608
20
5.550350
70
0
0
VERTEX
8
g23
10
30.436727
20
5.550350
70
0
0
VERTEX
8
g23
10
30.436727
20
8.079400
70
0
0
VERTEX
8
g23
10
32.174608
20
7.961578
70
0
0
VERTEX
8
g23
10
32.174608
20
8.589965
70
0
0
VERTEX
8
g23
10
30.678204
20
8.688609
70
0
0
VERTEX
8
g23
10
29.283549
20
8.971449
70
0
0
VERTEX
8
g23
10
28.020778
20
9.418843
70
0
0
VERTEX
8
g23
10
26.920025
20
10.011151
70
0
0
VERTEX
8
g23
10
26.011426
20
10.728733
70
0
0
VERTEX
8
g23
10
25.325116
20
11.551946
70
0
0
VERTEX
8
g23
10
24.891231
20
12.461151
70
0
0
VERTEX
8
g23
10
24.739906
20
13.436707
70
0
0
VERTEX
8
g23
10
23.776138
20
13.436707
70
0
0
VERTEX
8
g23
10
23.624813
20
12.461151
70
0
0
VERTEX
8
g23
10
23.190928
20
11.551946
70
0
0
VERTEX
8
g23
10
22.504619
20
10.728733
70
0
0
VERTEX
8
g23
10
21.596020
20
10.011151
70
0
0
VERTEX
8
g23
10
20.495267
20
9.418843
70
0
0
VERTEX
8
g23
10
19.232495
20
8.971449
70
0
0
VERTEX
8
g23
10
17.837840
20
8.688609
70
0
0
VERTEX
8
g23
10
16.341437
20
8.589965
70
0
0
VERTEX
8
g23
10
14.848713
20
8.688123
70
0
0
VERTEX
8
g23
10
13.457180
20
8.969602
70
0
0
VERTEX
8
g23
10
12.196736
20
9.414908
70
0
0
VERTEX
8
g23
10
11.097279
20
10.004547
70
0
0
VERTEX
8
g23
10
10.188704
20
10.719025
70
0
0
VERTEX
8
g23
10
9.500910
20
11.538848
70
0
0
VERTEX
8
g23
10
9.063794
20
12.444522
70
0
0
VERTEX
8
g23
10
8.907252
20
13.416553
70
0
0
VERTEX
8
g23
10
8.907252
20
13.436707
70
0
0
VERTEX
8
g23
10
7.942968
20
13.436707
70
0
0
SEQEND
8
g23
0
POLYLINE
8
g23
62
7
70
0
10
0.000000
20
0.000000
66
1
0
VERTEX
8
g23
10
10.713864
20
12.877567
70
0
0
VERTEX
8
g23
10
10.614128
20
12.853796
70
0
0
VERTEX
8
g23
10
10.526278
20
12.803154
70
0
0
VERTEX
8
g23
10
10.454964
20
12.732873
70
0
0
VERTEX
8
g23
10
10.404838
20
12.650190
70
0
0
VERTEX
8
g23
10
10.377449
20
12.556657
70
0
0
VERTEX
8
g23
10
10.368664
20
12.460537
70
0
0
VERTEX
8
g23
10
10.374866
20
12.362352
70
0
0
VERTEX
8
g23
10
10.396570
20
12.265717
70
0
0
VERTEX
8
g23
10
10.419824
20
12.170633
70
0
0
VERTEX
8
g23
10
10.431710
20
12.073998
70
0
0
VERTEX
8
g23
10
10.410522
20
11.978396
70
0
0
VERTEX
8
g23
10
10.353678
20
11.901914
70
0
0
VERTEX
8
g23
10
10.283915
20
11.870391
70
0
0
VERTEX
8
g23
10
10.207950
20
11.871425
70
0
0
VERTEX
8
g23
10
10.141805
20
11.905532
70
0
0
VERTEX
8
g23
10
10.090645
20
11.960309
70
0
0
VERTEX
8
g23
10
10.051371
20
12.024387
70
0
0
VERTEX
8
g23
10
10.035868
20
12.097252
70
0
0
VERTEX
8
g23
10
10.055505
20
12.170633
70
0
0
VERTEX
8
g23
10
10.104597
20
12.226960
70
0
0
VERTEX
8
g23
10
10.110282
20
12.231610
70
0
0
VERTEX
8
g23
10
9.975923
20
12.408345
70
0
0
VERTEX
8
g23
10
9.964037
20
12.399559
70
0
0
VERTEX
8
g23
10
9.891173
20
12.325662
70
0
0
VERTEX
8
g23
10
9.842597
20
12.234712
70
0
0
VERTEX
8
g23
10
9.827094
20
12.131359
70
0
0
VERTEX
8
g23
10
9.842597
20
12.028005
70
0
0
VERTEX
8
g23
10
9.882905
20
11.933954
70
0
0
VERTEX
8
g23
10
9.940266
20
11.846104
70
0
0
VERTEX
8
g23
10
10.009513
20
11.767555
70
0
0
VERTEX
8
g23
10
10.091678
20
11.702959
70
0
0
VERTEX
8
g23
10
10.187797
20
11.663168
70
0
0
VERTEX
8
g23
10
10.290116
20
11.651800
70
0
0
VERTEX
8
g23
10
10.393469
20
11.674020
70
0
0
VERTEX
8
g23
10
10.485453
20
11.725181
70
0
0
VERTEX
8
g23
10
10.553666
20
11.793394
70
0
0
VERTEX
8
g23
10
10.603793
20
11.878660
70
0
0
VERTEX
8
g23
10
10.631181
20
11.972195
70
0
0
VERTEX
8
g23
10
10.640483
20
12.068313
70
0
0
VERTEX
8
g23
10
10.632215
20
12.165464
70
0
0
VERTEX
8
g23
10
10.613611
20
12.261582
70
0
0
VERTEX
8
g23
10
10.589323
20
12.358219
70
0
0
VERTEX
8
g23
10
10.577438
20
12.454854
70
0
0
VERTEX
8
g23
10
10.598108
20
12.550455
70
0
0
VERTEX
8
g23
10
10.658053
20
12.626420
70
0
0
VERTEX
8
g23
10
10.721098
20
12.657942
70
0
0
VERTEX
8
g23
10
10.793445
20
12.661043
70
0
0
VERTEX
8
g23
10
10.858558
20
12.631070
70
0
0
VERTEX
8
g23
10
10.910234
20
12.578360
70
0
0
VERTEX
8
g23
10
10.945891
20
12.516348
70
0
0
VERTEX
8
g23
10
10.957777
20
12.445552
70
0
0
VERTEX
8
g23
10
10.935039
20
12.376306
70
0
0
VERTEX
8
g23
10
10.887497
20
12.324112
70
0
0
VERTEX
8
g23
10
10.881812
20
12.319461
70
0
0
VERTEX
8
g23
10
11.016171
20
12.142727
70
0
0
VERTEX
8
g23
10
11.028057
20
12.151512
70
0
0
VERTEX
8
g23
10
11.099371
20
12.224377
70
0
0
VERTEX
8
g23
10
11.147430
20
12.312743
70
0
0
VERTEX
8
g23
10
11.166550
20
12.411445
70
0
0
VERTEX
8
g23
10
11.155181
20
12.513248
70
0
0
VERTEX
8
g23
10
11.115907
20
12.607816
70
0
0
VERTEX
8
g23
10
11.060613
20
12.693082
70
0
0
VERTEX
8
g23
10
10.992400
20
12.770080
70
0
0
VERTEX
8
g23
10
10.910234
20
12.832093
70
0
0
VERTEX
8
g23
10
10.815666
20
12.870333
70
0
0
VERTEX
8
g23
10
10.713864
20
12.877567
70
0
0
VERTEX
8
g23
10
10.713864
20
12.877567
70
0
0
SEQEND
8
g23
0
POLYLINE
8
g23
62
7
70
0
10
0.000000
20
0.000000
66
1
0
VERTEX
8
g23
10
22.205173
20
12.796952
70
0
0
VERTEX
8
g23
10
22.095618
20
12.775248
70
0
0
VERTEX
8
g23
10
21.998982
20
12.722021
70
0
0
VERTEX
8
g23
10
21.920435
20
12.642440
70
0
0
VERTEX
8
g23
10
21.861524
20
12.548388
70
0
0
VERTEX
8
g23
10
21.818632
20
12.444518
70
0
0
VERTEX
8
g23
10
21.801062
20
12.335997
70
0
0
VERTEX
8
g23
10
21.813464
20
12.224377
70
0
0
VERTEX
8
g23
10
21.861007
20
12.124640
70
0
0
VERTEX
8
g23
10
21.936971
20
12.043507
70
0
0
VERTEX
8
g23
10
22.031022
20
11.985113
70
0
0
VERTEX
8
g23
10
22.197421
20
11.899847
70
0
0
VERTEX
8
g23
10
22.301290
20
11.856956
70
0
0
VERTEX
8
g23
10
22.411362
20
11.842486
70
0
0
VERTEX
8
g23
10
22.520399
20
11.862123
70
0
0
VERTEX
8
g23
10
22.618068
20
11.917417
70
0
0
VERTEX
8
g23
10
22.694033
20
11.995965
70
0
0
VERTEX
8
g23
10
22.753461
20
12.091567
70
0
0
VERTEX
8
g23
10
22.792734
20
12.180451
70
0
0
VERTEX
8
g23
10
22.819088
20
12.272436
70
0
0
VERTEX
8
g23
10
22.823740
20
12.368554
70
0
0
VERTEX
8
g23
10
22.803070
20
12.463122
70
0
0
VERTEX
8
g23
10
22.750360
20
12.544770
70
0
0
VERTEX
8
g23
10
22.675945
20
12.604199
70
0
0
VERTEX
8
g23
10
22.576209
20
12.409378
70
0
0
VERTEX
8
g23
10
22.617551
20
12.362869
70
0
0
VERTEX
8
g23
10
22.626853
20
12.299306
70
0
0
VERTEX
8
g23
10
22.614450
20
12.234195
70
0
0
VERTEX
8
g23
10
22.588612
20
12.175799
70
0
0
VERTEX
8
g23
10
22.536419
20
12.106037
70
0
0
VERTEX
8
g23
10
22.463038
20
12.065729
70
0
0
VERTEX
8
g23
10
22.378806
20
12.065213
70
0
0
VERTEX
8
g23
10
22.297157
20
12.094151
70
0
0
VERTEX
8
g23
10
22.584478
20
12.655358
70
0
0
VERTEX
8
g23
10
22.418080
20
12.740625
70
0
0
VERTEX
8
g23
10
22.314727
20
12.780932
70
0
0
VERTEX
8
g23
10
22.205173
20
12.796952
70
0
0
VERTEX
8
g23
10
22.205173
20
12.796952
70
0
0
SEQEND
8
g23
0
POLYLINE
8
g23
62
7
70
0
10
0.000000
20
0.000000
66
1
0
VERTEX
8
g23
10
22.195354
20
12.578877
70
0
0
VERTEX
8
g23
10
22.238244
20
12.574226
70
0
0
VERTEX
8
g23
10
22.318344
20
12.545803
70
0
0
VERTEX
8
g23
10
22.130758
20
12.179418
70
0
0
VERTEX
8
g23
10
22.060994
20
12.227993
70
0
0
VERTEX
8
g23
10
22.012419
20
12.297240
70
0
0
VERTEX
8
g23
10
22.000533
20
12.380956
70
0
0
VERTEX
8
g23
10
22.026371
20
12.464155
70
0
0
VERTEX
8
g23
10
22.078049
20
12.532368
70
0
0
VERTEX
8
g23
10
22.153495
20
12.573192
70
0
0
VERTEX
8
g23
10
22.195354
20
12.578877
70
0
0
VERTEX
8
g23
10
22.195354
20
12.578877
70
0
0
SEQEND
8
g23
0
POLYLINE
8
g23
62
7
70
0
10
0.000000
20
0.000000
66
1
0
VERTEX
8
g23
10
21.658434
20
12.145827
70
0
0
VERTEX
8
g23
10
21.507539
20
11.982013
70
0
0
VERTEX
8
g23
10
21.640865
20
11.859023
70
0
0
VERTEX
8
g23
10
21.551464
20
11.880727
70
0
0
VERTEX
8
g23
10
21.457413
20
11.875560
70
0
0
VERTEX
8
g23
10
21.371630
20
11.840419
70
0
0
VERTEX
8
g23
10
21.301350
20
11.780992
70
0
0
VERTEX
8
g23
10
21.243472
20
11.699342
70
0
0
VERTEX
8
g23
10
21.216601
20
11.606841
70
0
0
VERTEX
8
g23
10
21.223319
20
11.509173
70
0
0
VERTEX
8
g23
10
21.257424
20
11.416671
70
0
0
VERTEX
8
g23
10
21.313236
20
11.336573
70
0
0
VERTEX
8
g23
10
21.380931
20
11.266809
70
0
0
VERTEX
8
g23
10
21.518391
20
11.139685
70
0
0
VERTEX
8
g23
10
21.594872
20
11.076639
70
0
0
VERTEX
8
g23
10
21.679106
20
11.027030
70
0
0
VERTEX
8
g23
10
21.774191
20
11.000158
70
0
0
VERTEX
8
g23
10
21.871858
20
11.001708
70
0
0
VERTEX
8
g23
10
21.960226
20
11.036849
70
0
0
VERTEX
8
g23
10
22.037224
20
11.100928
70
0
0
VERTEX
8
g23
10
22.090967
20
11.175859
70
0
0
VERTEX
8
g23
10
22.120939
20
11.262675
70
0
0
VERTEX
8
g23
10
22.118355
20
11.356727
70
0
0
VERTEX
8
g23
10
22.088383
20
11.445610
70
0
0
VERTEX
8
g23
10
22.228427
20
11.315903
70
0
0
VERTEX
8
g23
10
22.282687
20
11.253374
70
0
0
VERTEX
8
g23
10
22.312143
20
11.177926
70
0
0
VERTEX
8
g23
10
22.303357
20
11.096794
70
0
0
VERTEX
8
g23
10
22.259950
20
11.027547
70
0
0
VERTEX
8
g23
10
22.216541
20
10.986206
70
0
0
VERTEX
8
g23
10
22.170033
20
10.955201
70
0
0
VERTEX
8
g23
10
22.115254
20
10.939697
70
0
0
VERTEX
8
g23
10
22.063062
20
10.954684
70
0
0
VERTEX
8
g23
10
21.911649
20
10.791385
70
0
0
VERTEX
8
g23
10
21.989165
20
10.745393
70
0
0
VERTEX
8
g23
10
22.079599
20
10.727824
70
0
0
VERTEX
8
g23
10
22.171583
20
10.742293
70
0
0
VERTEX
8
g23
10
22.256332
20
10.778466
70
0
0
VERTEX
8
g23
10
22.330745
20
10.834794
70
0
0
VERTEX
8
g23
10
22.398442
20
10.899390
70
0
0
VERTEX
8
g23
10
22.465105
20
10.985173
70
0
0
VERTEX
8
g23
10
22.511615
20
11.084908
70
0
0
VERTEX
8
g23
10
22.525567
20
11.194463
70
0
0
VERTEX
8
g23
10
22.505413
20
11.301949
70
0
0
VERTEX
8
g23
10
22.452702
20
11.399101
70
0
0
VERTEX
8
g23
10
22.379322
20
11.479717
70
0
0
VERTEX
8
g23
10
21.658434
20
12.145827
70
0
0
SEQEND
8
g23
0
POLYLINE
8
g23
62
7
70
0
10
0.000000
20
0.000000
66
1
0
VERTEX
8
g23
10
11.069398
20
11.901914
70
0
0
VERTEX
8
g23
10
10.960877
20
11.880727
70
0
0
VERTEX
8
g23
10
10.863726
20
11.826984
70
0
0
VERTEX
8
g23
10
10.783627
20
11.750501
70
0
0
VERTEX
8
g23
10
10.659603
20
11.610459
70
0
0
VERTEX
8
g23
10
10.592424
20
11.520024
70
0
0
VERTEX
8
g23
10
10.551083
20
11.417188
70
0
0
VERTEX
8
g23
10
10.543331
20
11.306601
70
0
0
VERTEX
8
g23
10
10.572787
20
11.198596
70
0
0
VERTEX
8
g23
10
10.630148
20
11.105062
70
0
0
VERTEX
8
g23
10
10.707662
20
11.023930
70
0
0
VERTEX
8
g23
10
10.784661
20
10.963984
70
0
0
VERTEX
8
g23
10
10.866826
20
10.915925
70
0
0
VERTEX
8
g23
10
10.958810
20
10.886987
70
0
0
VERTEX
8
g23
10
11.055445
20
10.883886
70
0
0
VERTEX
8
g23
10
11.147946
20
10.914892
70
0
0
VERTEX
8
g23
10
11.223911
20
10.972253
70
0
0
VERTEX
8
g23
10
11.059580
20
11.117465
70
0
0
VERTEX
8
g23
10
11.004802
20
11.088526
70
0
0
VERTEX
8
g23
10
10.940724
20
11.095243
70
0
0
VERTEX
8
g23
10
10.880779
20
11.123148
70
0
0
VERTEX
8
g23
10
10.830653
20
11.162422
70
0
0
VERTEX
8
g23
10
10.775875
20
11.230636
70
0
0
VERTEX
8
g23
10
10.755205
20
11.311768
70
0
0
VERTEX
8
g23
10
10.775359
20
11.393934
70
0
0
VERTEX
8
g23
10
10.823418
20
11.465764
70
0
0
VERTEX
8
g23
10
11.295741
20
11.048217
70
0
0
VERTEX
8
g23
10
11.419765
20
11.188261
70
0
0
VERTEX
8
g23
10
11.484361
20
11.278696
70
0
0
VERTEX
8
g23
10
11.526735
20
11.380497
70
0
0
VERTEX
8
g23
10
11.533453
20
11.492119
70
0
0
VERTEX
8
g23
10
11.505548
20
11.599090
70
0
0
VERTEX
8
g23
10
11.448187
20
11.694692
70
0
0
VERTEX
8
g23
10
11.371706
20
11.774790
70
0
0
VERTEX
8
g23
10
11.281272
20
11.841969
70
0
0
VERTEX
8
g23
10
11.180503
20
11.886412
70
0
0
VERTEX
8
g23
10
11.069398
20
11.901914
70
0
0
VERTEX
8
g23
10
11.069398
20
11.901914
70
0
0
SEQEND
8
g23
0
POLYLINE
8
g23
62
7
70
0
10
0.000000
20
0.000000
66
1
0
VERTEX
8
g23
10
20.801120
20
11.821299
70
0
0
VERTEX
8
g23
10
20.617669
20
11.694692
70
0
0
VERTEX
8
g23
10
20.948917
20
11.214616
70
0
0
VERTEX
8
g23
10
20.866233
20
11.255440
70
0
0
VERTEX
8
g23
10
20.773732
20
11.270944
70
0
0
VERTEX
8
g23
10
20.682265
20
11.255440
70
0
0
VERTEX
8
g23
10
20.600616
20
11.212550
70
0
0
VERTEX
8
g23
10
20.526201
20
11.145887
70
0
0
VERTEX
8
g23
10
20.480210
20
11.061654
70
0
0
VERTEX
8
g23
10
20.464706
20
10.964502
70
0
0
VERTEX
8
g23
10
20.477626
20
10.866833
70
0
0
VERTEX
8
g23
10
20.514834
20
10.776916
70
0
0
VERTEX
8
g23
10
20.565476
20
10.693717
70
0
0
VERTEX
8
g23
10
20.671931
20
10.539721
70
0
0
VERTEX
8
g23
10
20.732392
20
10.461172
70
0
0
VERTEX
8
g23
10
20.803704
20
10.394509
70
0
0
VERTEX
8
g23
10
20.890521
20
10.347483
70
0
0
VERTEX
8
g23
10
20.986122
20
10.327330
70
0
0
VERTEX
8
g23
10
21.080174
20
10.342316
70
0
0
VERTEX
8
g23
10
21.169574
20
10.387792
70
0
0
VERTEX
8
g23
10
21.238304
20
10.448770
70
0
0
VERTEX
8
g23
10
21.286365
20
10.527318
70
0
0
VERTEX
8
g23
10
21.304967
20
10.619302
70
0
0
VERTEX
8
g23
10
21.295148
20
10.712837
70
0
0
VERTEX
8
g23
10
21.397985
20
10.563492
70
0
0
VERTEX
8
g23
10
21.580920
20
10.689583
70
0
0
VERTEX
8
g23
10
20.801120
20
11.821299
70
0
0
SEQEND
8
g23
0
POLYLINE
8
g23
62
7
70
0
10
0.000000
20
0.000000
66
1
0
VERTEX
8
g23
10
21.628978
20
11.787192
70
0
0
VERTEX
8
g23
10
21.650167
20
11.786675
70
0
0
VERTEX
8
g23
10
21.727681
20
11.763421
70
0
0
VERTEX
8
g23
10
21.795894
20
11.715879
70
0
0
VERTEX
8
g23
10
21.933353
20
11.588754
70
0
0
VERTEX
8
g23
10
21.986064
20
11.524676
70
0
0
VERTEX
8
g23
10
22.017070
20
11.448195
70
0
0
VERTEX
8
g23
10
22.005701
20
11.367062
70
0
0
VERTEX
8
g23
10
21.961775
20
11.297816
70
0
0
VERTEX
8
g23
10
21.895114
20
11.247172
70
0
0
VERTEX
8
g23
10
21.816564
20
11.231153
70
0
0
VERTEX
8
g23
10
21.735950
20
11.254407
70
0
0
VERTEX
8
g23
10
21.669287
20
11.302983
70
0
0
VERTEX
8
g23
10
21.531828
20
11.430108
70
0
0
VERTEX
8
g23
10
21.478083
20
11.492636
70
0
0
VERTEX
8
g23
10
21.449661
20
11.569634
70
0
0
VERTEX
8
g23
10
21.458447
20
11.650766
70
0
0
VERTEX
8
g23
10
21.503404
20
11.721563
70
0
0
VERTEX
8
g23
10
21.569034
20
11.770140
70
0
0
VERTEX
8
g23
10
21.628978
20
11.787192
70
0
0
VERTEX
8
g23
10
21.628978
20
11.787192
70
0
0
SEQEND
8
g23
0
POLYLINE
8
g23
62
7
70
0
10
0.000000
20
0.000000
66
1
0
VERTEX
8
g23
10
11.111773
20
11.693140
70
0
0
VERTEX
8
g23
10
11.174818
20
11.681772
70
0
0
VERTEX
8
g23
10
11.248716
20
11.636296
70
0
0
VERTEX
8
g23
10
11.301943
20
11.569117
70
0
0
VERTEX
8
g23
10
11.323130
20
11.485919
70
0
0
VERTEX
8
g23
10
11.302976
20
11.403753
70
0
0
VERTEX
8
g23
10
11.255950
20
11.333472
70
0
0
VERTEX
8
g23
10
10.947441
20
11.605807
70
0
0
VERTEX
8
g23
10
11.011520
20
11.661102
70
0
0
VERTEX
8
g23
10
11.090586
20
11.691590
70
0
0
VERTEX
8
g23
10
11.111773
20
11.693140
70
0
0
VERTEX
8
g23
10
11.111773
20
11.693140
70
0
0
SEQEND
8
g23
0
POLYLINE
8
g23
62
7
70
0
10
0.000000
20
0.000000
66
1
0
VERTEX
8
g23
10
11.883821
20
11.350525
70
0
0
VERTEX
8
g23
10
11.375323
20
10.522151
70
0
0
VERTEX
8
g23
10
11.564459
20
10.405879
70
0
0
VERTEX
8
g23
10
11.834727
20
10.845646
70
0
0
VERTEX
8
g23
10
11.872451
20
10.892671
70
0
0
VERTEX
8
g23
10
11.921545
20
10.926262
70
0
0
VERTEX
8
g23
10
11.980973
20
10.944347
70
0
0
VERTEX
8
g23
10
12.042468
20
10.948482
70
0
0
VERTEX
8
g23
10
12.102413
20
10.942281
70
0
0
VERTEX
8
g23
10
12.163391
20
10.926778
70
0
0
VERTEX
8
g23
10
12.221268
20
10.906624
70
0
0
VERTEX
8
g23
10
12.276045
20
10.881820
70
0
0
VERTEX
8
g23
10
12.330305
20
10.852881
70
0
0
VERTEX
8
g23
10
12.384048
20
10.821874
70
0
0
VERTEX
8
g23
10
12.490503
20
10.995508
70
0
0
VERTEX
8
g23
10
12.403170
20
11.042534
70
0
0
VERTEX
8
g23
10
12.312219
20
11.076639
70
0
0
VERTEX
8
g23
10
12.215584
20
11.094210
70
0
0
VERTEX
8
g23
10
12.117915
20
11.092660
70
0
0
VERTEX
8
g23
10
12.024380
20
11.064754
70
0
0
VERTEX
8
g23
10
11.939631
20
11.016178
70
0
0
VERTEX
8
g23
10
12.073474
20
11.234253
70
0
0
VERTEX
8
g23
10
11.883821
20
11.350525
70
0
0
SEQEND
8
g23
0
POLYLINE
8
g23
62
7
70
0
10
0.000000
20
0.000000
66
1
0
VERTEX
8
g23
10
19.767074
20
11.205831
70
0
0
VERTEX
8
g23
10
19.751572
20
11.204798
70
0
0
VERTEX
8
g23
10
19.693177
20
11.188261
70
0
0
VERTEX
8
g23
10
19.643050
20
11.155189
70
0
0
VERTEX
8
g23
10
19.609460
20
11.106613
70
0
0
VERTEX
8
g23
10
19.603260
20
11.048734
70
0
0
VERTEX
8
g23
10
19.619796
20
10.990340
70
0
0
VERTEX
8
g23
10
19.652869
20
10.939697
70
0
0
VERTEX
8
g23
10
19.701444
20
10.906107
70
0
0
VERTEX
8
g23
10
19.759838
20
10.899906
70
0
0
VERTEX
8
g23
10
19.817718
20
10.916442
70
0
0
VERTEX
8
g23
10
19.868360
20
10.950032
70
0
0
VERTEX
8
g23
10
19.901950
20
10.998091
70
0
0
VERTEX
8
g23
10
19.908152
20
11.056486
70
0
0
VERTEX
8
g23
10
19.891614
20
11.114880
70
0
0
VERTEX
8
g23
10
19.858024
20
11.165007
70
0
0
VERTEX
8
g23
10
19.809966
20
11.198596
70
0
0
VERTEX
8
g23
10
19.767074
20
11.205831
70
0
0
VERTEX
8
g23
10
19.767074
20
11.205831
70
0
0
SEQEND
8
g23
0
POLYLINE
8
g23
62
7
70
0
10
0.000000
20
0.000000
66
1
0
VERTEX
8
g23
10
13.102869
20
11.161906
70
0
0
VERTEX
8
g23
10
13.059977
20
11.153639
70
0
0
VERTEX
8
g23
10
13.012436
20
11.119015
70
0
0
VERTEX
8
g23
10
12.980396
20
11.067338
70
0
0
VERTEX
8
g23
10
12.965926
20
11.008943
70
0
0
VERTEX
8
g23
10
12.973678
20
10.950549
70
0
0
VERTEX
8
g23
10
13.008301
20
10.903523
70
0
0
VERTEX
8
g23
10
13.059977
20
10.871484
70
0
0
VERTEX
8
g23
10
13.118371
20
10.856498
70
0
0
VERTEX
8
g23
10
13.176766
20
10.864249
70
0
0
VERTEX
8
g23
10
13.223792
20
10.898873
70
0
0
VERTEX
8
g23
10
13.255832
20
10.950549
70
0
0
VERTEX
8
g23
10
13.270817
20
11.008943
70
0
0
VERTEX
8
g23
10
13.263067
20
11.067338
70
0
0
VERTEX
8
g23
10
13.228444
20
11.114880
70
0
0
VERTEX
8
g23
10
13.176766
20
11.146404
70
0
0
VERTEX
8
g23
10
13.117855
20
11.161389
70
0
0
VERTEX
8
g23
10
13.102869
20
11.161906
70
0
0
VERTEX
8
g23
10
13.102869
20
11.161906
70
0
0
SEQEND
8
g23
0
POLYLINE
8
g23
62
7
70
0
10
0.000000
20
0.000000
66
1
0
VERTEX
8
g23
10
20.901373
20
11.148470
70
0
0
VERTEX
8
g23
10
20.942198
20
11.141752
70
0
0
VERTEX
8
g23
10
21.012994
20
11.101961
70
0
0
VERTEX
8
g23
10
21.068806
20
11.040467
70
0
0
VERTEX
8
g23
10
21.175259
20
10.886470
70
0
0
VERTEX
8
g23
10
21.212466
20
10.812573
70
0
0
VERTEX
8
g23
10
21.225903
20
10.730924
70
0
0
VERTEX
8
g23
10
21.196962
20
10.653926
70
0
0
VERTEX
8
g23
10
21.139085
20
10.596048
70
0
0
VERTEX
8
g23
10
21.063121
20
10.561941
70
0
0
VERTEX
8
g23
10
20.982505
20
10.562975
70
0
0
VERTEX
8
g23
10
20.909125
20
10.603282
70
0
0
VERTEX
8
g23
10
20.854865
20
10.665811
70
0
0
VERTEX
8
g23
10
20.748928
20
10.819807
70
0
0
VERTEX
8
g23
10
20.709653
20
10.892671
70
0
0
VERTEX
8
g23
10
20.699319
20
10.974321
70
0
0
VERTEX
8
g23
10
20.725674
20
11.051319
70
0
0
VERTEX
8
g23
10
20.784585
20
11.110230
70
0
0
VERTEX
8
g23
10
20.859515
20
11.143819
70
0
0
VERTEX
8
g23
10
20.901373
20
11.148470
70
0
0
VERTEX
8
g23
10
20.901373
20
11.148470
70
0
0
SEQEND
8
g23
0
POLYLINE
8
g23
62
7
70
0
10
0.000000
20
0.000000
66
1
0
VERTEX
8
g23
10
7.942968
20
10.891121
70
0
0
VERTEX
8
g23
10
7.942968
20
5.550350
70
0
0
VERTEX
8
g23
10
6.687229
20
5.550350
70
0
0
VERTEX
8
g23
10
6.687229
20
9.732016
70
0
0
VERTEX
8
g23
10
7.942968
20
10.891121
70
0
0
VERTEX
8
g23
10
7.942968
20
10.891121
70
0
0
SEQEND
8
g23
0
POLYLINE
8
g23
62
7
70
0
10
0.000000
20
0.000000
66
1
0
VERTEX
8
g23
10
8.907252
20
10.891121
70
0
0
VERTEX
8
g23
10
10.162992
20
9.732016
70
0
0
VERTEX
8
g23
10
10.162992
20
5.550350
70
0
0
VERTEX
8
g23
10
8.907252
20
5.550350
70
0
0
VERTEX
8
g23
10
8.907252
20
10.891121
70
0
0
SEQEND
8
g23
0
POLYLINE
8
g23
62
7
70
0
10
0.000000
20
0.000000
66
1
0
VERTEX
8
g23
10
23.776138
20
10.891121
70
0
0
VERTEX
8
g23
10
23.776138
20
5.550350
70
0
0
VERTEX
8
g23
10
22.519882
20
5.550350
70
0
0
VERTEX
8
g23
10
22.519882
20
9.732016
70
0
0
VERTEX
8
g23
10
23.776138
20
10.891121
70
0
0
VERTEX
8
g23
10
23.776138
20
10.891121
70
0
0
SEQEND
8
g23
0
POLYLINE
8
g23
62
7
70
0
10
0.000000
20
0.000000
66
1
0
VERTEX
8
g23
10
24.739906
20
10.891121
70
0
0
VERTEX
8
g23
10
25.995646
20
9.732016
70
0
0
VERTEX
8
g23
10
25.995646
20
5.550350
70
0
0
VERTEX
8
g23
10
24.739906
20
5.550350
70
0
0
VERTEX
8
g23
10
24.739906
20
10.891121
70
0
0
SEQEND
8
g23
0
POLYLINE
8
g23
62
7
70
0
10
0.000000
20
0.000000
66
1
0
VERTEX
8
g23
10
12.755603
20
10.858564
70
0
0
VERTEX
8
g23
10
12.681706
20
10.684415
70
0
0
VERTEX
8
g23
10
12.836736
20
10.618786
70
0
0
VERTEX
8
g23
10
12.604190
20
10.071531
70
0
0
VERTEX
8
g23
10
12.345809
20
10.181086
70
0
0
VERTEX
8
g23
10
12.271911
20
10.007453
70
0
0
VERTEX
8
g23
10
12.963859
20
9.713413
70
0
0
VERTEX
8
g23
10
13.037757
20
9.887046
70
0
0
VERTEX
8
g23
10
12.807280
20
9.985231
70
0
0
VERTEX
8
g23
10
13.113722
20
10.706119
70
0
0
VERTEX
8
g23
10
12.755603
20
10.858564
70
0
0
SEQEND
8
g23
0
POLYLINE
8
g23
62
7
70
0
10
0.000000
20
0.000000
66
1
0
VERTEX
8
g23
10
19.976363
20
10.845129
70
0
0
VERTEX
8
g23
10
19.622380
20
10.682865
70
0
0
VERTEX
8
g23
10
19.700927
20
10.511299
70
0
0
VERTEX
8
g23
10
19.854407
20
10.581578
70
0
0
VERTEX
8
g23
10
20.101937
20
10.041042
70
0
0
VERTEX
8
g23
10
19.846657
20
9.924253
70
0
0
VERTEX
8
g23
10
19.925204
20
9.752171
70
0
0
VERTEX
8
g23
10
20.608885
20
10.065330
70
0
0
VERTEX
8
g23
10
20.530336
20
10.236896
70
0
0
VERTEX
8
g23
10
20.302443
20
10.132510
70
0
0
VERTEX
8
g23
10
19.976363
20
10.845129
70
0
0
SEQEND
8
g23
0
POLYLINE
8
g23
62
7
70
0
10
0.000000
20
0.000000
66
1
0
VERTEX
8
g23
10
14.616474
20
10.669945
70
0
0
VERTEX
8
g23
10
14.586501
20
10.483393
70
0
0
VERTEX
8
g23
10
14.849019
20
10.442051
70
0
0
VERTEX
8
g23
10
14.715693
20
9.599725
70
0
0
VERTEX
8
g23
10
14.708975
20
9.510324
70
0
0
VERTEX
8
g23
10
14.721378
20
9.420924
70
0
0
VERTEX
8
g23
10
14.761686
20
9.342891
70
0
0
VERTEX
8
g23
10
14.823698
20
9.279847
70
0
0
VERTEX
8
g23
10
14.902762
20
9.241089
70
0
0
VERTEX
8
g23
10
14.990095
20
9.219384
70
0
0
VERTEX
8
g23
10
15.162180
20
9.191996
70
0
0
VERTEX
8
g23
10
15.191635
20
9.378548
70
0
0
VERTEX
8
g23
10
15.020068
20
9.405937
70
0
0
VERTEX
8
g23
10
14.971493
20
9.425057
70
0
0
VERTEX
8
g23
10
14.939970
20
9.462265
70
0
0
VERTEX
8
g23
10
14.929117
20
9.512907
70
0
0
VERTEX
8
g23
10
14.933252
20
9.565618
70
0
0
VERTEX
8
g23
10
15.096550
20
10.593980
70
0
0
VERTEX
8
g23
10
14.616474
20
10.669945
70
0
0
SEQEND
8
g23
0
POLYLINE
8
g23
62
7
70
0
10
0.000000
20
0.000000
66
1
0
VERTEX
8
g23
10
17.977517
20
10.627571
70
0
0
VERTEX
8
g23
10
17.874680
20
10.619302
70
0
0
VERTEX
8
g23
10
17.491241
20
10.554706
70
0
0
VERTEX
8
g23
10
17.719650
20
9.199747
70
0
0
VERTEX
8
g23
10
18.103091
20
9.264343
70
0
0
VERTEX
8
g23
10
18.214194
20
9.290699
70
0
0
VERTEX
8
g23
10
18.318582
20
9.336691
70
0
0
VERTEX
8
g23
10
18.406432
20
9.410589
70
0
0
VERTEX
8
g23
10
18.469994
20
9.506190
70
0
0
VERTEX
8
g23
10
18.496866
20
9.617294
70
0
0
VERTEX
8
g23
10
18.490664
20
9.733567
70
0
0
VERTEX
8
g23
10
18.460692
20
9.830719
70
0
0
VERTEX
8
g23
10
18.404881
20
9.916502
70
0
0
VERTEX
8
g23
10
18.322714
20
9.976446
70
0
0
VERTEX
8
g23
10
18.227629
20
10.011586
70
0
0
VERTEX
8
g23
10
18.285509
20
10.072564
70
0
0
VERTEX
8
g23
10
18.325815
20
10.149563
70
0
0
VERTEX
8
g23
10
18.340285
20
10.231728
70
0
0
VERTEX
8
g23
10
18.333050
20
10.317511
70
0
0
VERTEX
8
g23
10
18.305145
20
10.417247
70
0
0
VERTEX
8
g23
10
18.253986
20
10.507164
70
0
0
VERTEX
8
g23
10
18.175953
20
10.575377
70
0
0
VERTEX
8
g23
10
18.079835
20
10.616202
70
0
0
VERTEX
8
g23
10
17.977517
20
10.627571
70
0
0
VERTEX
8
g23
10
17.977517
20
10.627571
70
0
0
SEQEND
8
g23
0
POLYLINE
8
g23
62
7
70
0
10
0.000000
20
0.000000
66
1
0
VERTEX
8
g23
10
19.333507
20
10.583129
70
0
0
VERTEX
8
g23
10
19.240489
20
10.549539
70
0
0
VERTEX
8
g23
10
19.154190
20
10.504581
70
0
0
VERTEX
8
g23
10
19.076676
20
10.444636
70
0
0
VERTEX
8
g23
10
19.012597
20
10.370738
70
0
0
VERTEX
8
g23
10
18.970221
20
10.282372
70
0
0
VERTEX
8
g23
10
18.950068
20
10.186769
70
0
0
VERTEX
8
g23
10
18.877204
20
10.432233
70
0
0
VERTEX
8
g23
10
18.663780
20
10.369188
70
0
0
VERTEX
8
g23
10
18.940249
20
9.436943
70
0
0
VERTEX
8
g23
10
19.153673
20
9.499989
70
0
0
VERTEX
8
g23
10
19.006912
20
9.995050
70
0
0
VERTEX
8
g23
10
18.997093
20
10.054478
70
0
0
VERTEX
8
g23
10
19.004845
20
10.113389
70
0
0
VERTEX
8
g23
10
19.031200
20
10.169717
70
0
0
VERTEX
8
g23
10
19.069441
20
10.218293
70
0
0
VERTEX
8
g23
10
19.113884
20
10.258600
70
0
0
VERTEX
8
g23
10
19.166076
20
10.293741
70
0
0
VERTEX
8
g23
10
19.219819
20
10.323196
70
0
0
VERTEX
8
g23
10
19.275113
20
10.347483
70
0
0
VERTEX
8
g23
10
19.332990
20
10.368155
70
0
0
VERTEX
8
g23
10
19.391385
20
10.387792
70
0
0
VERTEX
8
g23
10
19.333507
20
10.583129
70
0
0
SEQEND
8
g23
0
POLYLINE
8
g23
62
7
70
0
10
0.000000
20
0.000000
66
1
0
VERTEX
8
g23
10
13.752444
20
10.470474
70
0
0
VERTEX
8
g23
10
13.658909
20
10.455488
70
0
0
VERTEX
8
g23
10
13.572610
20
10.417764
70
0
0
VERTEX
8
g23
10
13.505430
20
10.351101
70
0
0
VERTEX
8
g23
10
13.464605
20
10.267385
70
0
0
VERTEX
8
g23
10
13.463054
20
10.262217
70
0
0
VERTEX
8
g23
10
13.673894
20
10.202789
70
0
0
VERTEX
8
g23
10
13.674411
20
10.204856
70
0
0
VERTEX
8
g23
10
13.708518
20
10.251365
70
0
0
VERTEX
8
g23
10
13.765879
20
10.276170
70
0
0
VERTEX
8
g23
10
13.828407
20
10.276170
70
0
0
VERTEX
8
g23
10
13.890936
20
10.264802
70
0
0
VERTEX
8
g23
10
13.957082
20
10.238446
70
0
0
VERTEX
8
g23
10
14.010309
20
10.192454
70
0
0
VERTEX
8
g23
10
14.037180
20
10.128375
70
0
0
VERTEX
8
g23
10
14.033564
20
10.059645
70
0
0
VERTEX
8
g23
10
14.020645
20
10.012620
70
0
0
VERTEX
8
g23
10
13.876468
20
10.052927
70
0
0
VERTEX
8
g23
10
13.770530
20
10.077216
70
0
0
VERTEX
8
g23
10
13.664077
20
10.085484
70
0
0
VERTEX
8
g23
10
13.558139
20
10.074115
70
0
0
VERTEX
8
g23
10
13.459437
20
10.033807
70
0
0
VERTEX
8
g23
10
13.384507
20
9.959910
70
0
0
VERTEX
8
g23
10
13.340064
20
9.863274
70
0
0
VERTEX
8
g23
10
13.326629
20
9.781626
70
0
0
VERTEX
8
g23
10
13.335930
20
9.703594
70
0
0
VERTEX
8
g23
10
13.372104
20
9.631247
70
0
0
VERTEX
8
g23
10
13.429464
20
9.572336
70
0
0
VERTEX
8
g23
10
13.497678
20
9.532028
70
0
0
VERTEX
8
g23
10
13.575192
20
9.504639
70
0
0
VERTEX
8
g23
10
13.664077
20
9.489137
70
0
0
VERTEX
8
g23
10
13.755545
20
9.496888
70
0
0
VERTEX
8
g23
10
13.836676
20
9.536162
70
0
0
VERTEX
8
g23
10
13.904373
20
9.597140
70
0
0
VERTEX
8
g23
10
13.860447
20
9.440044
70
0
0
VERTEX
8
g23
10
14.070770
20
9.381132
70
0
0
VERTEX
8
g23
10
14.244404
20
10.000734
70
0
0
VERTEX
8
g23
10
14.258356
20
10.099953
70
0
0
VERTEX
8
g23
10
14.245438
20
10.198656
70
0
0
VERTEX
8
g23
10
14.196344
20
10.288056
70
0
0
VERTEX
8
g23
10
14.122965
20
10.358853
70
0
0
VERTEX
8
g23
10
14.036147
20
10.408462
70
0
0
VERTEX
8
g23
10
13.940547
20
10.443086
70
0
0
VERTEX
8
g23
10
13.847529
20
10.463240
70
0
0
VERTEX
8
g23
10
13.752444
20
10.470474
70
0
0
VERTEX
8
g23
10
13.752444
20
10.470474
70
0
0
SEQEND
8
g23
0
POLYLINE
8
g23
62
7
70
0
10
0.000000
20
0.000000
66
1
0
VERTEX
8
g23
10
17.942893
20
10.436368
70
0
0
VERTEX
8
g23
10
17.980100
20
10.432750
70
0
0
VERTEX
8
g23
10
18.047795
20
10.403811
70
0
0
VERTEX
8
g23
10
18.093272
20
10.347483
70
0
0
VERTEX
8
g23
10
18.116525
20
10.277204
70
0
0
VERTEX
8
g23
10
18.117559
20
10.201756
70
0
0
VERTEX
8
g23
10
18.093788
20
10.130960
70
0
0
VERTEX
8
g23
10
18.039012
20
10.082383
70
0
0
VERTEX
8
g23
10
17.969248
20
10.059129
70
0
0
VERTEX
8
g23
10
17.804916
20
10.031223
70
0
0
VERTEX
8
g23
10
17.741870
20
10.405879
70
0
0
VERTEX
8
g23
10
17.906202
20
10.433266
70
0
0
VERTEX
8
g23
10
17.942893
20
10.436368
70
0
0
VERTEX
8
g23
10
17.942893
20
10.436368
70
0
0
SEQEND
8
g23
0
POLYLINE
8
g23
62
7
70
0
10
0.000000
20
0.000000
66
1
0
VERTEX
8
g23
10
13.677512
20
9.897381
70
0
0
VERTEX
8
g23
10
13.727123
20
9.894798
70
0
0
VERTEX
8
g23
10
13.775698
20
9.887046
70
0
0
VERTEX
8
g23
10
13.826340
20
9.874644
70
0
0
VERTEX
8
g23
10
13.970519
20
9.834852
70
0
0
VERTEX
8
g23
10
13.955532
20
9.780593
70
0
0
VERTEX
8
g23
10
13.922459
20
9.710312
70
0
0
VERTEX
8
g23
10
13.864064
20
9.662253
70
0
0
VERTEX
8
g23
10
13.789649
20
9.646233
70
0
0
VERTEX
8
g23
10
13.713686
20
9.658119
70
0
0
VERTEX
8
g23
10
13.653224
20
9.678790
70
0
0
VERTEX
8
g23
10
13.598965
20
9.713413
70
0
0
VERTEX
8
g23
10
13.560723
20
9.764573
70
0
0
VERTEX
8
g23
10
13.556589
20
9.826067
70
0
0
VERTEX
8
g23
10
13.581910
20
9.867409
70
0
0
VERTEX
8
g23
10
13.626870
20
9.890146
70
0
0
VERTEX
8
g23
10
13.677512
20
9.897381
70
0
0
VERTEX
8
g23
10
13.677512
20
9.897381
70
0
0
SEQEND
8
g23
0
POLYLINE
8
g23
62
7
70
0
10
0.000000
20
0.000000
66
1
0
VERTEX
8
g23
10
18.060715
20
9.877228
70
0
0
VERTEX
8
g23
10
18.120660
20
9.870509
70
0
0
VERTEX
8
g23
10
18.177504
20
9.847772
70
0
0
VERTEX
8
g23
10
18.223497
20
9.810048
70
0
0
VERTEX
8
g23
10
18.255020
20
9.758371
70
0
0
VERTEX
8
g23
10
18.270522
20
9.700493
70
0
0
VERTEX
8
g23
10
18.275173
20
9.638482
70
0
0
VERTEX
8
g23
10
18.262253
20
9.579570
70
0
0
VERTEX
8
g23
10
18.231247
20
9.528411
70
0
0
VERTEX
8
g23
10
18.184739
20
9.488620
70
0
0
VERTEX
8
g23
10
18.129962
20
9.464331
70
0
0
VERTEX
8
g23
10
18.071568
20
9.450379
70
0
0
VERTEX
8
g23
10
17.907753
20
9.422991
70
0
0
VERTEX
8
g23
10
17.836438
20
9.845187
70
0
0
VERTEX
8
g23
10
18.000770
20
9.872576
70
0
0
VERTEX
8
g23
10
18.060715
20
9.877228
70
0
0
VERTEX
8
g23
10
18.060715
20
9.877228
70
0
0
SEQEND
8
g23
0
POLYLINE
8
g23
62
7
70
0
10
0.000000
20
0.000000
66
1
0
VERTEX
8
g23
10
6.205087
20
9.417306
70
0
0
VERTEX
8
g23
10
6.205087
20
5.550350
70
0
0
VERTEX
8
g23
10
4.708018
20
5.550350
70
0
0
VERTEX
8
g23
10
4.708018
20
8.696418
70
0
0
VERTEX
8
g23
10
6.205087
20
9.417306
70
0
0
VERTEX
8
g23
10
6.205087
20
9.417306
70
0
0
SEQEND
8
g23
0
POLYLINE
8
g23
62
7
70
0
10
0.000000
20
0.000000
66
1
0
VERTEX
8
g23
10
26.477787
20
9.417306
70
0
0
VERTEX
8
g23
10
27.975373
20
8.696418
70
0
0
VERTEX
8
g23
10
27.975373
20
5.550350
70
0
0
VERTEX
8
g23
10
26.477787
20
5.550350
70
0
0
VERTEX
8
g23
10
26.477787
20
9.417306
70
0
0
SEQEND
8
g23
0
POLYLINE
8
g23
62
7
70
0
10
0.000000
20
0.000000
66
1
0
VERTEX
8
g23
10
10.645134
20
9.416789
70
0
0
VERTEX
8
g23
10
12.142719
20
8.696418
70
0
0
VERTEX
8
g23
10
12.142719
20
5.550350
70
0
0
VERTEX
8
g23
10
10.645134
20
5.550350
70
0
0
VERTEX
8
g23
10
10.645134
20
9.416789
70
0
0
SEQEND
8
g23
0
POLYLINE
8
g23
62
7
70
0
10
0.000000
20
0.000000
66
1
0
VERTEX
8
g23
10
22.037740
20
9.416789
70
0
0
VERTEX
8
g23
10
22.037740
20
5.550350
70
0
0
VERTEX
8
g23
10
20.540672
20
5.550350
70
0
0
VERTEX
8
g23
10
20.540672
20
8.696418
70
0
0
VERTEX
8
g23
10
22.037740
20
9.416789
70
0
0
VERTEX
8
g23
10
22.037740
20
9.416789
70
0
0
SEQEND
8
g23
0
POLYLINE
8
g23
62
7
70
0
10
0.000000
20
0.000000
66
1
0
VERTEX
8
g23
10
4.225876
20
8.527952
70
0
0
VERTEX
8
g23
10
4.225876
20
5.550350
70
0
0
VERTEX
8
g23
10
2.728290
20
5.550350
70
0
0
VERTEX
8
g23
10
2.728290
20
8.155881
70
0
0
VERTEX
8
g23
10
4.225876
20
8.527952
70
0
0
VERTEX
8
g23
10
4.225876
20
8.527952
70
0
0
SEQEND
8
g23
0
POLYLINE
8
g23
62
7
70
0
10
0.000000
20
0.000000
66
1
0
VERTEX
8
g23
10
12.624862
20
8.527436
70
0
0
VERTEX
8
g23
10
14.120897
20
8.155881
70
0
0
VERTEX
8
g23
10
14.120897
20
5.550350
70
0
0
VERTEX
8
g23
10
12.624862
20
5.550350
70
0
0
VERTEX
8
g23
10
12.624862
20
8.527436
70
0
0
SEQEND
8
g23
0
POLYLINE
8
g23
62
7
70
0
10
0.000000
20
0.000000
66
1
0
VERTEX
8
g23
10
20.058530
20
8.527436
70
0
0
VERTEX
8
g23
10
20.058530
20
5.550350
70
0
0
VERTEX
8
g23
10
18.561978
20
5.550350
70
0
0
VERTEX
8
g23
10
18.561978
20
8.155881
70
0
0
VERTEX
8
g23
10
20.058530
20
8.527436
70
0
0
VERTEX
8
g23
10
20.058530
20
8.527436
70
0
0
SEQEND
8
g23
0
POLYLINE
8
g23
62
7
70
0
10
0.000000
20
0.000000
66
1
0
VERTEX
8
g23
10
28.457514
20
8.527436
70
0
0
VERTEX
8
g23
10
29.954583
20
8.155881
70
0
0
VERTEX
8
g23
10
29.954583
20
5.550350
70
0
0
VERTEX
8
g23
10
28.457514
20
5.550350
70
0
0
VERTEX
8
g23
10
28.457514
20
8.527436
70
0
0
SEQEND
8
g23
0
POLYLINE
8
g23
62
7
70
0
10
0.000000
20
0.000000
66
1
0
VERTEX
8
g23
10
14.603039
20
8.079400
70
0
0
VERTEX
8
g23
10
16.100625
20
7.963645
70
0
0
VERTEX
8
g23
10
16.100625
20
5.550350
70
0
0
VERTEX
8
g23
10
14.603039
20
5.550350
70
0
0
VERTEX
8
g23
10
14.603039
20
8.079400
70
0
0
SEQEND
8
g23
0
POLYLINE
8
g23
62
7
70
0
10
0.000000
20
0.000000
66
1
0
VERTEX
8
g23
10
18.079835
20
8.079400
70
0
0
VERTEX
8
g23
10
18.079835
20
5.550350
70
0
0
VERTEX
8
g23
10
16.582766
20
5.550350
70
0
0
VERTEX
8
g23
10
16.582766
20
7.963645
70
0
0
VERTEX
8
g23
10
18.079835
20
8.079400
70
0
0
VERTEX
8
g23
10
18.079835
20
8.079400
70
0
0
SEQEND
8
g23
 0 
ENDSEC
 0 
EOF