<?xml version="1.0" encoding="UTF-8" standalone="no"?>
<!-- Created with Inkscape (http://www.inkscape.org/) -->

<svg
   width="33mm"
   height="14mm"
   viewBox="0 0 33 14"
   version="1.1"
   id="svg1"
   xml:space="preserve"
   inkscape:version="1.4.2 (ebf0e940d0, 2025-05-08)"
   sodipodi:docname="Logo.svg"
   xmlns:inkscape="http://www.inkscape.org/namespaces/inkscape"
   xmlns:sodipodi="http://sodipodi.sourceforge.net/DTD/sodipodi-0.dtd"
   xmlns="http://www.w3.org/2000/svg"
   xmlns:svg="http://www.w3.org/2000/svg"><sodipodi:namedview
     id="namedview1"
     pagecolor="#ffffff"
     bordercolor="#000000"
     borderopacity="0.25"
     inkscape:showpageshadow="2"
     inkscape:pageopacity="0.0"
     inkscape:pagecheckerboard="0"
     inkscape:deskcolor="#d1d1d1"
     inkscape:document-units="mm"
     inkscape:zoom="6.4303068"
     inkscape:cx="58.550861"
     inkscape:cy="30.480661"
     inkscape:window-width="1536"
     inkscape:window-height="891"
     inkscape:window-x="0"
     inkscape:window-y="0"
     inkscape:window-maximized="1"
     inkscape:current-layer="g23"><inkscape:page
       x="0"
       y="0"
       width="33"
       height="14"
       id="page1"
       margin="0"
       bleed="0" /></sodipodi:namedview><defs
     id="defs1"><inkscape:path-effect
       effect="fillet_chamfer"
       id="path-effect23"
       is_visible="true"
       lpeversion="1"
       nodesatellites_param="F,0,0,1,0,0,0,1 @ F,0,0,1,0,0,0,1"
       radius="0"
       unit="px"
       method="auto"
       mode="F"
       chamfer_steps="1"
       flexible="false"
       use_knot_distance="true"
       apply_no_radius="true"
       apply_with_radius="true"
       only_selected="false"
       hide_knots="false" /></defs><g
     id="g1"
     inkscape:groupmode="layer"
     inkscape:label="1"
     transform="matrix(0.26458332,0,0,0.26458335,220.00001,0)"><g
       id="g23"
       inkscape:label="g23"
       transform="matrix(0.13528163,0,0,0.13528163,-710.67142,-46.513697)"><path
         style="display:inline;fill:none;stroke:none;stroke-width:2.40373;stroke-dasharray:none;stroke-opacity:1"
         d="m -637.15349,362.51345 c 56.75707,164.52447 371.48686,148.76129 390.15454,-0.72072"
         id="path23"
         sodipodi:nodetypes="cc"
         inkscape:transform-center-x="7.0309577"
         inkscape:transform-center-y="2.0559848" /><path
         id="path3"
         style="display:inline;fill:#000000;fill-opacity:1;fill-rule:nonzero;stroke:none"
         d="m 8144.6565,15510.398 c 0,-2125.8 -1729.3751,-3855.28 -3855.2051,-3855.28 v -499.842 c 308.8326,0 610.158,32.284 900.9592,93.72 V 9237.2952 H 4289.4514 V 8737.4529 H 8144.6565 V 5739.2211 h -447.7998 v -499.8423 h 1395.6561 v 499.8423 H 8644.713 v 2998.2318 h 7710.678 V 5739.2211 h -447.8 v -499.8423 h 1395.656 v 499.8423 h -448.067 v 2998.2318 h 3855.473 v 499.8423 h -901.227 v 2011.7008 c 290.825,-61.42 592.387,-93.72 901.227,-93.72 v 499.842 c -2125.8,0 -3855.473,1729.48 -3855.473,3855.28 h -499.789 c 0,-2125.8 -1729.673,-3855.28 -3855.473,-3855.28 -2120.437,0 -3846.5092,1720.815 -3855.205,3839.249 -0.022,5.291 3e-4,10.736 0,16.031 z m 1436.9255,-444.761 c -17.3127,-2.744 -34.6958,-9.028 -51.7208,-18.908 -16.6339,-10.67 -31.6606,-24.088 -45.5571,-40.283 -13.8965,-16.196 -26.3373,-34.782 -36.9817,-55.904 -10.1296,-20.522 -18.8494,-42.498 -25.9943,-65.769 -6.2393,-23.459 -10.9486,-48.193 -14.2031,-74.4 -2.7399,-25.608 -4.1421,-51.07 -4.5558,-76.457 -0.022,-26.176 0.9123,-52.144 3.2158,-78.1 3.2094,-26.145 7.0166,-51.921 11.2553,-76.867 4.2387,-24.946 8.3352,-50.089 12.0593,-75.634 4.2387,-24.946 6.1862,-50.691 6.1636,-76.867 -0.023,-26.177 -3.7187,-51.386 -10.9873,-76.045 -6.3629,-24.849 -16.0964,-45.24 -29.4782,-60.837 -10.2937,-11.996 -22.3644,-20.182 -36.1777,-25.074 -13.2986,-4.292 -26.4456,-4.011 -39.3935,0.822 -12.4333,5.434 -23.9071,14.34 -34.3018,27.13 -9.8801,13.39 -18.7091,27.782 -26.5304,43.572 -7.8213,15.789 -14.6041,32.782 -20.3667,50.97 -5.2479,18.789 -7.9587,38.129 -8.0395,57.959 0.4339,20.43 3.924,39.868 10.1834,58.37 6.6505,17.713 15.1647,32.808 25.4584,44.805 l 2.9478,3.699 -69.6756,140.581 -6.1636,-6.988 c -14.4112,-16.796 -27.0177,-36.269 -37.7857,-58.781 -10.7679,-22.511 -19.2186,-46.707 -25.1904,-72.345 -5.5807,-26.428 -8.2843,-53.856 -8.0395,-82.211 0.2449,-28.355 3.0187,-55.687 8.0395,-82.211 5.0209,-26.525 11.888,-51.697 20.9027,-74.812 8.8911,-24.505 18.7963,-47.774 29.7461,-69.879 10.9499,-22.105 22.9012,-42.775 35.9098,-62.481 13.0085,-19.705 27.2948,-36.854 42.6093,-51.382 15.8292,-13.927 32.4918,-24.48 49.8449,-31.651 17.7441,-7.96 35.3569,-10.997 53.0606,-9.043 18.6095,1.765 36.5716,7.795 53.5966,17.675 17.5397,10.48 33.2899,23.899 47.701,40.695 13.3818,15.596 25.2441,33.737 35.3738,54.259 10.6443,21.122 19.2405,43.764 25.9944,67.824 6.7539,24.06 11.4632,48.793 14.2031,74.401 3.1309,24.818 4.8011,50.28 4.8237,76.456 0.023,26.176 -1.4695,51.922 -4.2878,77.278 -2.3036,25.956 -5.4086,51.511 -9.6474,76.456 -3.724,25.546 -7.9654,51.133 -12.5952,76.868 -4.2387,24.945 -6.1862,50.69 -6.1636,76.867 0.9284,25.987 4.3565,51.196 10.7193,76.045 7.2686,24.659 17.7043,44.829 31.0861,60.425 9.779,11.397 20.6922,19.803 32.6939,25.074 12.9076,5.082 25.3519,5.721 37.5177,2.467 12.5568,-4.044 23.7622,-11.841 33.7658,-23.842 10.3948,-12.79 19.3681,-26.927 26.7984,-41.927 7.4302,-15 13.634,-31.328 18.4908,-49.327 5.2479,-18.788 7.3796,-37.464 6.1636,-56.314 -0.8249,-19.64 -4.7497,-38.158 -11.7913,-55.081 -6.5268,-16.324 -14.8754,-30.12 -24.6544,-41.517 l -2.9478,-3.699 69.6756,-140.581 6.1636,6.988 c 13.8965,16.196 26.2137,35.447 36.9817,57.959 11.159,21.722 19.4653,45.251 24.9224,70.29 6.3628,24.849 9.7692,50.946 9.9154,78.511 0.6609,28.166 -1.2659,55.243 -5.8957,80.978 -4.6297,25.735 -11.4756,50.719 -20.3667,75.223 -8.5,23.715 -18.1154,46.508 -28.6742,67.824 -10.5587,21.316 -22.3652,41.541 -35.3737,61.247 -12.6175,18.916 -26.7801,35.399 -42.6093,49.327 -14.9235,13.738 -31.1732,23.847 -49.041,30.418 -17.4766,5.781 -35.0889,7.709 -52.7926,5.754 z m 5959.141,-64.124 c -19.66,-0.147 -38.528,-6.011 -56.813,-17.264 -18.565,-9.919 -35.251,-23.939 -50.113,-42.339 -15.437,-17.948 -29.014,-39.09 -40.733,-63.302 -11.424,-23.33 -21.708,-48.34 -30.55,-74.812 -8.843,-26.473 -16.277,-53.889 -22.243,-82.622 -5.671,-27.851 -8.632,-56.619 -9.111,-86.322 -1.055,-29.25 1.13,-58.997 6.431,-88.787 5.022,-28.456 13.249,-54.773 24.655,-79.334 10.831,-24.109 23.903,-45.678 39.393,-64.536 15.21,-17.523 31.515,-32.885 48.773,-46.449 l 86.291,-67.824 c 17.258,-13.563 35.132,-24.966 53.864,-34.117 18.452,-7.817 37.422,-11.657 57.081,-11.51 19.084,0.599 37.979,5.701 56.544,15.62 18.285,11.254 35.212,26.035 50.649,43.983 14.862,18.4 27.969,39.151 39.394,62.48 11.718,24.212 21.975,49.573 30.818,76.045 7.663,22.943 14.429,46.403 20.366,70.702 5.938,24.299 10.62,48.825 13.667,73.168 2.767,25.677 3.407,51.165 2.412,76.456 -1.274,26.625 -4.799,51.631 -10.719,75.223 -6.495,24.043 -15.605,45.702 -27.334,64.946 -11.435,20.127 -24.208,35.969 -38.59,47.272 l -51.721,-154.968 c 9.78,-7.686 16.922,-20.076 21.439,-36.995 3.942,-16.466 5.513,-33.276 4.824,-50.56 -0.689,-17.283 -2.852,-34.553 -6.432,-51.792 -3.86,-15.906 -8.388,-31.448 -13.399,-46.45 -6.779,-20.295 -15.685,-38.813 -27.066,-55.492 -11.087,-15.796 -23.853,-26.512 -38.054,-32.062 -14.776,-5.099 -29.256,-5.063 -43.681,-0.411 -15,5.104 -29.11,12.62 -42.341,23.019 l 148.998,446.405 -86.29,67.824 c -17.259,13.563 -35.145,24.246 -53.597,32.062 -18.732,9.151 -37.729,13.342 -56.812,12.743 z m -5.092,-173.465 c 7.3,0.112 14.742,-1.148 22.242,-3.7 14.425,-4.652 28.306,-12.209 41.538,-22.608 l -97.278,-291.437 c -13.232,10.398 -25.29,23.398 -36.178,38.639 -11.463,15.693 -19.832,34.159 -25.19,55.081 -5.934,21.375 -8.046,43.561 -6.164,66.591 2.177,23.913 6.62,45.884 13.399,66.18 6.78,20.295 15.712,38.463 26.799,54.259 11.381,16.679 24.349,27.375 39.125,32.473 7.101,2.776 14.407,4.41 21.707,4.522 z m -278.435,-344.464 -78.251,-130.304 69.14,-97.831 c -14.868,8.92 -30.286,14.732 -46.361,17.264 -16.55,3.205 -32.915,1.764 -48.773,-4.11 -15.895,-4.473 -30.67,-13.782 -44.485,-27.952 -13.376,-13.442 -25.48,-29.064 -36.446,-47.271 -11.843,-19.664 -21.933,-41.302 -30.014,-64.947 -7.643,-22.916 -12.32,-47.52 -13.935,-73.579 -2.09,-25.386 -0.857,-51.29 3.484,-77.689 3.865,-25.726 9.764,-50.204 17.686,-73.579 7.886,-21.974 17.439,-43.362 28.943,-63.713 11.028,-19.678 22.761,-37.999 35.105,-55.493 l 71.284,-101.119 c 12.345,-17.493 25.526,-34.167 39.661,-50.149 13.661,-15.308 28.303,-28.466 43.682,-39.461 15.342,-9.593 31.809,-16.824 49.309,-21.375 17.025,-3.878 33.84,-3.295 50.648,1.233 16.334,5.202 31.536,14.455 45.826,27.952 14.728,14.226 28.086,31.308 39.929,50.971 10.966,18.207 20.192,38.087 27.87,59.603 8.118,22.244 13.418,45.072 15.543,69.057 2.09,25.386 1.577,50.431 -1.34,74.812 -3.391,25.053 -8.57,48.672 -15.543,70.701 l 72.624,-103.174 c 10.445,-14.802 19.886,-31.294 28.138,-49.738 8.252,-18.443 13.345,-38.38 15.275,-60.014 2.405,-22.307 0.857,-43.859 -4.556,-64.535 -5.413,-20.677 -12.86,-39.06 -22.51,-55.082 -7.019,-11.652 -14.543,-22.577 -22.511,-32.884 -7.054,-10.251 -15.129,-18.505 -24.118,-24.663 -8.515,-6.832 -17.92,-10.994 -28.407,-12.332 -10.486,-1.338 -19.505,2.556 -27.066,11.921 l -78.519,-129.894 c 11.834,-15.419 25.33,-27.663 40.198,-36.584 15.781,-8.865 31.332,-13.517 46.897,-13.975 16.478,-0.403 32.353,3.561 47.701,11.509 15.822,7.275 30.537,16.733 43.949,28.774 13.851,12.769 26.674,27.944 38.589,44.805 12.391,16.188 24.14,33.175 35.106,51.382 12.721,21.12 24.223,43.751 34.57,68.235 10.785,25.212 18.886,51.651 24.119,79.333 5.671,28.41 7.994,57.721 7.235,87.144 -0.32,30.151 -3.809,58.538 -10.451,85.499 -6.204,27.689 -15.284,53.452 -27.335,77.278 -11.575,23.154 -24.284,44.613 -38.053,64.125 z m -5491.2416,-194.018 c -19.217,-0.414 -37.9381,-5.985 -56.2765,-16.853 -17.9104,-10.124 -34.6331,-24.4 -50.3808,-42.749 -14.8353,-18.263 -28.6958,-38.548 -41.5374,-60.837 l -64.316,-111.395 c -12.8415,-22.289 -24.418,-46.363 -34.8378,-71.935 -9.5073,-25.485 -16.6622,-52.548 -21.4386,-81.8 -4.3484,-28.508 -5.6865,-57.919 -4.0198,-87.965 2.5792,-29.961 7.7621,-58.525 15.2751,-85.911 7.941,-26.643 17.84,-51.645 29.7461,-74.401 12.3905,-23.412 25.6667,-44.838 40.1975,-64.535 12.5933,-17.071 26.052,-32.84 39.9295,-47.683 13.8774,-14.842 27.9883,-27.67 42.6093,-38.228 15.5333,-10.471 31.4804,-18.232 47.701,-23.019 17.1329,-4.7 33.7457,-5.42 50.1128,-2.466 16.7951,3.697 32.9085,11.999 47.969,24.663 15.5449,12.008 28.6922,27.054 39.3935,45.627 l -85.2186,115.507 c -7.2769,-12.63 -16.6012,-20.497 -28.4062,-23.019 -11.377,-1.78 -22.4838,0.04 -33.2299,5.343 -10.7461,5.305 -21.0835,12.608 -31.0861,22.197 -9.0902,9.676 -17.7603,20.079 -25.9943,31.24 -11.1403,15.102 -20.6904,33.215 -28.4063,54.26 -7.2314,20.388 -10.7308,42.056 -10.7193,64.535 0.4396,23.222 3.9404,45.074 10.4514,65.358 6.939,21.027 15.0772,40.049 24.9224,57.136 l 244.9366,-332.132 64.3159,111.396 c 12.8416,22.289 23.9905,46.45 33.4979,71.935 10.4198,25.571 17.6263,52.469 21.9742,80.977 4.777,29.252 6.063,58.828 3.484,88.788 -1.667,30.047 -6.53,58.445 -14.4709,85.089 -7.513,27.386 -17.3556,52.632 -29.7461,76.045 -11.9062,22.755 -25.1308,44.016 -39.6615,63.713 -14.5308,19.698 -30.2261,37.454 -46.8971,53.437 -16.1866,15.326 -33.6143,27.281 -52.2567,35.351 -18.2143,8.812 -37.487,12.832 -57.6163,12.331 z m 5046.6576,-64.124 -95.134,-100.708 171.778,-381.87 c -13.229,13.708 -27.557,24.591 -42.878,32.473 -15.688,8.699 -31.656,12.724 -47.969,12.332 -16.147,0.987 -31.927,-3.158 -47.433,-12.332 -14.973,-8.61 -29.037,-20.046 -42.341,-34.117 -14.368,-15.197 -27.322,-32.679 -38.59,-53.026 -10.735,-19.785 -18.546,-42.122 -23.85,-67.002 -5.671,-24.064 -8.497,-50.062 -8.04,-77.278 0.09,-26.401 2.316,-52.218 6.7,-77.69 4.549,-24.093 10.984,-47.796 19.295,-71.523 7.944,-22.912 16.722,-44.957 26.262,-66.18 l 55.205,-122.494 c 9.54,-21.223 19.85,-42.13 31.354,-62.481 11.137,-19.534 23.551,-37.122 36.981,-53.026 13.596,-14.524 28.6,-27.074 45.021,-37.406 16.055,-9.515 32.531,-14.79 49.577,-16.031 16.68,-0.424 32.901,3.564 48.773,11.921 16.405,8.92 31.993,20.976 46.361,36.173 13.304,14.071 25.072,30.098 35.642,48.504 11.102,18.969 19.417,39.796 24.923,62.48 5.671,24.064 9.003,48.4 9.647,73.168 0.276,25.584 -1.441,50.561 -5.092,74.401 l 53.329,-118.795 94.866,100.298 z m 429.309,-27.13 c 3.595,0.306 7.316,0.07 10.988,-0.411 14.212,-1.242 27.559,-7.336 40.197,-18.497 13.077,-10.433 24.928,-23.015 35.374,-37.817 l 71.283,-101.12 c 10.446,-14.802 19.521,-31.799 27.335,-50.97 8.252,-18.444 13.673,-38.53 16.079,-60.836 1.93,-21.634 -0.04,-43.131 -5.896,-64.536 -5.413,-20.676 -13.128,-39.059 -22.779,-55.081 -9.65,-16.022 -21.121,-29.644 -34.569,-40.284 -13.01,-9.911 -26.521,-13.984 -40.734,-12.742 -14.687,1.915 -28.728,8.065 -41.805,18.497 -12.639,11.161 -24.125,23.837 -34.57,38.639 l -71.283,101.12 c -10.446,14.802 -19.619,31.294 -27.871,49.737 -7.813,19.172 -12.808,39.614 -14.739,61.247 -2.405,22.307 -0.857,43.86 4.556,64.536 5.852,21.405 13.664,40.292 23.314,56.314 9.651,16.022 21.025,28.728 34.034,38.64 10.087,7.979 20.303,12.647 31.086,13.564 z M 9787.929,14123.5 c 11.0608,0.389 22.1337,-2.667 32.6939,-9.043 14.5647,-9.158 27.1814,-21.071 38.3216,-36.173 11.1402,-15.101 20.3708,-33.048 27.6023,-53.437 7.7158,-21.045 11.4268,-42.958 10.9873,-66.179 -0.012,-22.479 -3.5123,-44.331 -10.4514,-65.358 -6.511,-20.284 -14.5412,-38.816 -24.3864,-55.904 l -159.986,216.626 c 9.8452,17.088 20.9066,31.578 33.2299,43.983 12.7514,13.148 26.4592,21.471 41.0015,24.252 3.7425,0.881 7.3003,1.104 10.9873,1.233 z m 400.367,-272.529 -263.6956,-658.92 98.0816,-92.487 140.155,349.807 c 5.412,13.519 11.948,25.962 19.563,37.406 7.615,11.444 16.104,20.403 25.459,26.719 9.692,7.16 19.936,11.836 30.818,14.386 10.881,2.551 21.472,3.792 31.89,3.289 10.417,-0.503 20.793,-2.221 31.086,-4.933 10.843,-3.23 21.455,-7.411 31.622,-12.331 10.166,-4.921 20.185,-10.266 30.014,-16.032 9.828,-5.765 19.254,-12.275 28.406,-19.73 10.041,-7.129 19.324,-14.719 28.138,-23.019 9.703,-7.974 19.057,-16.363 27.87,-24.664 l 55.205,138.115 c -14.322,13.488 -29.401,25.934 -45.289,37.406 -14.999,11.798 -30.688,20.92 -47.165,27.129 -16.139,7.055 -32.834,11.665 -50.113,13.976 -16.39,2.637 -33.331,2.237 -50.649,-1.233 -16.767,-3.989 -32.801,-11.389 -48.505,-22.197 -15.365,-9.962 -29.985,-22.703 -43.949,-38.639 l 69.408,173.465 z m 4088.082,-115.095 c -2.604,-0.06 -5.352,-0.298 -8.039,-0.822 -10.749,-2.098 -20.879,-6.549 -30.282,-13.154 -9.404,-6.605 -17.937,-15.195 -25.995,-26.307 -8.057,-11.113 -13.914,-24.182 -17.419,-38.639 -3.504,-14.458 -4.583,-29.551 -3.215,-46.039 1.367,-16.487 4.269,-32.025 8.575,-46.449 4.306,-14.423 9.906,-27.924 17.151,-40.283 7.245,-12.36 15.765,-21.343 25.19,-26.719 9.426,-5.375 19.533,-7.03 30.282,-4.932 10.749,2.097 20.611,6.548 30.015,13.153 9.403,6.606 18.204,15.607 26.262,26.719 8.058,11.112 13.914,23.771 17.419,38.228 3.504,14.457 4.583,29.962 3.216,46.449 -1.368,16.488 -4.27,32.026 -8.576,46.449 -4.306,14.424 -10.174,27.513 -17.419,39.873 -7.244,12.359 -15.497,21.343 -24.922,26.718 -7.069,4.032 -14.429,5.927 -22.243,5.755 z m -3455.91,-34.94 c -7.814,-0.158 -15.249,-2.248 -22.243,-6.576 -9.325,-5.772 -17.634,-14.88 -24.654,-27.541 -7.02,-12.661 -12.57,-26.506 -16.615,-41.106 -4.045,-14.6 -6.433,-29.91 -7.504,-46.449 -1.07,-16.539 0.257,-32.145 4.02,-46.449 3.763,-14.304 9.701,-26.638 17.955,-37.406 8.254,-10.768 17.28,-19.28 26.798,-25.485 9.519,-6.205 19.5,-10.278 30.282,-11.921 10.783,-1.642 20.957,0.394 30.282,6.166 9.326,5.772 17.367,14.88 24.387,27.541 7.02,12.661 12.57,26.505 16.615,41.105 4.045,14.6 6.701,29.91 7.771,46.449 1.071,16.539 -0.257,32.146 -4.019,46.449 -3.763,14.304 -9.701,27.05 -17.955,37.817 -8.254,10.768 -17.28,18.87 -26.799,25.075 -9.518,6.205 -19.767,10.278 -30.55,11.92 -2.695,0.411 -5.167,0.464 -7.771,0.411 z m 4044.133,-10.687 c 7.175,-0.24 14.143,-1.937 21.171,-5.344 13.688,-5.996 25.98,-16.507 36.713,-31.651 11.266,-14.581 20.87,-30.958 28.943,-48.915 l 55.204,-122.495 c 8.073,-17.957 14.415,-37.446 19.295,-58.78 5.412,-20.772 7.813,-42.375 6.968,-64.947 -1.213,-21.756 -6.236,-42.335 -15.008,-61.247 -8.239,-18.35 -18.306,-33.656 -30.014,-46.038 -11.707,-12.383 -24.75,-21.277 -39.393,-27.13 -14.111,-5.29 -28.117,-5.174 -41.806,0.822 -14.055,6.813 -26.788,17.482 -38.053,32.062 -10.734,15.144 -20.066,31.78 -28.138,49.738 l -54.937,122.494 c -8.073,17.958 -14.955,37.187 -20.367,57.959 -4.879,21.335 -6.571,43.19 -5.359,64.947 0.845,22.572 5.427,42.897 13.667,61.247 8.772,18.912 18.843,34.477 30.55,46.86 11.707,12.383 24.747,21.429 38.857,26.718 7.322,2.927 14.533,3.94 21.707,3.7 z M 8144.6565,13485.544 V 9237.2952 h -651.199 v 3326.2528 c 254.7672,276.783 474.2594,586.476 651.199,921.996 z m 500.0565,0 c 176.9667,-335.556 396.3823,-645.19 651.199,-921.996 V 9237.2952 h -651.199 z m 7710.678,0 V 9237.2952 h -651.467 v 3326.2528 c 254.824,276.818 474.5,586.424 651.467,921.996 z m 499.789,0 c 176.943,-335.54 396.416,-645.2 651.199,-921.996 V 9237.2952 h -651.199 z m -6214.797,-25.897 -38.321,-138.525 80.395,-52.204 -120.593,-435.307 -133.991,87.144 -38.322,-138.114 358.829,-233.89 38.322,138.114 -119.52,78.1 158.914,573.421 z m 3744.528,-10.687 -183.568,-129.071 40.733,-136.47 79.591,55.903 128.364,-429.963 -132.383,-92.898 40.733,-136.881 354.542,249.099 -40.734,136.47 -118.18,-83.033 z m -2779.521,-139.348 -15.543,-148.39 136.136,-32.885 -69.14,-670.018 c -2.427,-23.503 -3.61,-46.989 -3.484,-71.113 0.127,-24.123 2.273,-48.017 6.432,-71.112 4.899,-22.272 11.769,-42.784 20.903,-62.07 9.134,-19.285 19.863,-36.118 32.158,-50.148 13.034,-13.206 26.722,-23.344 41.001,-30.829 14.918,-7.641 29.967,-13.541 45.289,-17.265 l 89.239,-21.786 15.275,148.391 -88.971,21.786 c -8.938,2.172 -17.497,7.316 -25.19,15.209 -7.055,7.738 -12.352,17.583 -16.347,29.596 -3.255,12.837 -5.128,26.108 -5.628,40.283 0.139,14.021 0.728,28.218 2.144,41.928 l 84.683,817.998 z m 1742.963,-33.706 c -17.748,0.438 -35.482,-1.961 -53.329,-6.577 l -198.843,-51.382 118.448,-1077.785 198.844,51.382 c 19.759,5.11 38.924,12.108 57.616,20.964 19.33,9.021 37.467,21.214 54.133,36.584 17.195,16.512 32.301,36.248 45.557,58.781 13.785,23.675 24.812,48.8 32.962,76.045 8.041,28.222 12.697,57.891 13.935,88.376 1.13,31.463 0.115,62.179 -3.216,92.488 -2.902,26.398 -8.18,52.034 -15.543,77.278 -6.726,25.409 -16.272,48.385 -28.942,68.235 -12.033,20.015 -26.23,35.83 -42.61,47.682 -15.849,12.995 -32.299,22.296 -49.309,27.952 11.566,14.051 21.536,30.224 30.015,48.504 9.009,19.424 16.04,39.88 20.902,61.248 4.862,21.367 7.318,43.188 7.504,65.357 0.08,23.147 -1.28,45.748 -3.752,68.235 -3.009,27.376 -7.745,53.925 -14.471,79.334 -6.196,26.551 -15.028,50.366 -26.53,71.523 -11.503,21.157 -25.039,39.145 -40.466,54.259 -15.427,15.115 -32.09,26.005 -49.845,32.474 -17.117,6.634 -34.783,9.748 -53.06,9.043 z m 703.187,-35.351 c -16.113,-7.324 -32.054,-16.261 -48.237,-26.718 -15.746,-9.226 -30.728,-21.115 -44.753,-35.762 -14.208,-13.697 -27.527,-29.514 -40.197,-47.682 -12.235,-16.936 -23.337,-36.705 -33.23,-58.781 -9.273,-21.795 -16.719,-45.151 -21.975,-70.29 -5.44,-24.189 -8.845,-49.463 -10.451,-76.046 l -37.786,195.251 -110.677,-50.148 143.371,-741.543 110.677,50.149 -76.107,393.79 c -2.938,15.211 -4.632,30.934 -5.092,47.272 -0.459,16.337 0.83,31.966 4.02,46.86 3.007,15.844 7.63,30.686 13.667,44.805 6.037,14.119 12.623,27.09 19.831,38.639 7.207,11.549 14.852,22.133 23.047,32.062 8.814,10.211 17.884,19.642 27.066,27.952 9.181,8.309 18.505,16.071 27.87,23.43 9.365,7.359 18.942,13.862 28.674,19.319 10.169,6.691 20.098,11.936 30.014,16.443 10.353,5.739 20.366,11.113 30.282,15.62 z m -2894.217,-89.61 c -16.333,-1.228 -32.547,-5.383 -48.505,-11.92 -15.959,-6.537 -30.863,-16.405 -44.753,-30.007 -13.269,-13.869 -24.883,-31.559 -34.838,-53.026 -9.782,-20.513 -16.818,-42.72 -21.171,-66.591 l -0.804,-4.111 109.337,-47.271 0.268,1.644 c 2.786,15.278 8.576,27.52 17.687,36.995 9.285,10.43 19.19,17.053 29.746,19.731 11.179,2.411 22.118,2.363 32.426,0 11.105,-1.676 21.844,-4.503 32.426,-9.043 11.828,-5.075 23.171,-12.07 34.302,-20.964 11.131,-8.894 20.354,-21.12 27.602,-36.584 7.423,-14.509 12.09,-31.647 13.935,-50.971 2.02,-18.369 1.433,-36.528 -1.875,-54.67 l -6.7,-37.406 -74.767,32.062 c -18.053,7.746 -36.362,14.439 -54.937,19.32 -17.952,4.614 -36.381,6.737 -55.204,6.577 -18.027,0.527 -36.314,-2.62 -54.937,-9.043 -18,-6.691 -35.078,-17.352 -51.185,-32.063 -15.484,-14.977 -28.379,-34.448 -38.857,-58.78 -10.478,-24.333 -18.171,-50.132 -23.047,-76.868 -3.83,-21.006 -6.249,-42.604 -6.967,-64.946 -0.544,-21.388 1.11,-41.944 4.823,-62.07 4.336,-20.392 10.614,-39.639 18.759,-57.547 8.768,-18.176 18.689,-33.88 29.746,-46.86 11.057,-12.981 22.824,-23.589 35.374,-32.063 13.173,-8.74 26.502,-15.91 40.197,-21.786 14.941,-6.409 30.283,-10.695 46.094,-12.331 16.433,-1.903 32.271,0.316 47.433,6.166 15.336,6.804 29.427,17.104 42.073,31.24 13.268,13.869 25.05,30.168 35.106,48.504 l -22.779,-124.96 109.069,-46.861 90.043,492.855 c 4.701,25.781 7.066,52.227 7.235,78.922 0.966,27.384 -1.192,53.499 -6.699,78.512 -5.333,25.968 -13.927,49.692 -25.459,71.112 -10.735,22.108 -23.435,40.777 -38.053,56.315 -13.822,16.225 -28.736,29.385 -45.022,39.461 -16.111,11.03 -32.769,20.329 -49.576,27.541 -16.186,6.944 -32.152,12.218 -48.237,16.031 -15.911,4.767 -32.354,6.716 -49.309,5.754 z m 2173.075,-27.129 c 6.403,-0.104 12.863,-1.022 19.295,-2.878 13.392,-2.569 25.207,-10.496 35.105,-23.019 10.428,-11.38 18.247,-26.075 23.583,-44.805 5.866,-17.587 9.91,-36.349 12.059,-55.903 2.149,-19.554 2.211,-39.471 0.536,-60.014 -1.038,-20.378 -5.015,-39.341 -12.327,-56.314 -6.782,-15.831 -16.411,-28.499 -28.406,-38.64 -11.466,-8.998 -23.43,-15.2 -36.178,-18.497 l -85.219,-22.197 -32.694,298.015 85.219,21.785 c 6.374,1.649 12.624,2.571 19.027,2.467 z m -2211.933,-428.73 c 8.789,0.347 17.286,-0.493 25.727,-2.055 8.44,-1.563 16.923,-3.649 25.19,-6.166 8.889,-2.784 17.547,-6.126 26.262,-9.865 l 74.768,-31.652 -7.772,-43.16 c -3.656,-20.052 -9.311,-38.676 -17.151,-55.904 -7.666,-16.272 -17.884,-29.133 -30.282,-38.228 -11.601,-8.407 -24.472,-12.622 -38.59,-12.743 -13.32,0.568 -26.32,3.846 -39.393,9.455 -10.583,4.54 -21.12,9.992 -31.354,16.442 -10.06,7.405 -19.397,16.583 -28.138,27.541 -8.742,10.957 -15.421,24.388 -19.831,40.694 -4.41,16.306 -5.104,32.683 -2.144,48.915 2.438,13.368 6.858,24.251 13.131,32.885 7.07,9.321 14.8,15.562 23.315,18.086 8.689,3.479 17.473,5.408 26.262,5.755 z m 2273.033,-16.031 c 11.051,0.847 21.41,-0.808 31.086,-5.344 10.206,-3.394 20.01,-9.474 29.478,-18.086 9.361,-7.634 17.247,-17.638 23.851,-30.007 7.241,-12.205 12.715,-25.957 16.347,-41.106 3.631,-15.148 6.32,-30.395 8.039,-46.038 1.719,-15.643 2.497,-32.211 2.412,-49.326 -0.193,-16.138 -2.468,-31.689 -6.7,-46.861 -3.702,-14.028 -8.974,-27.796 -16.079,-40.694 -7.211,-11.92 -15.309,-22.335 -24.118,-31.651 -8.916,-8.339 -18.423,-14.727 -28.406,-19.32 -9.984,-4.593 -20.084,-8.461 -30.282,-11.098 l -84.951,-21.786 -36.982,335.831 85.219,21.786 c 10.198,2.638 20.565,3.996 31.086,3.7 z M 7243.4293,12313.216 V 9237.2952 h -776.3471 v 2502.4998 c 279.95,162.335 540.1722,355.058 776.3471,573.421 z m 10512.9777,0 c 236.181,-218.364 496.634,-411.108 776.615,-573.421 V 9237.2952 h -776.615 z m -8210.4668,-0.411 c 236.1837,-218.348 496.6368,-410.709 776.6148,-573.01 V 9237.2952 h -776.6148 z m 5907.9558,0 V 9237.2952 h -776.347 v 2502.4998 c 279.979,162.303 540.164,354.659 776.347,573.01 z M 6217.0539,11605.791 V 9237.2952 h -776.615 v 2072.5368 c 270.157,74.132 530.0253,173.71 776.615,295.959 z m 4355.5301,-0.411 c 246.443,-122.135 505.834,-221.461 775.811,-295.548 V 9237.2952 h -775.811 z m 3854.937,0 V 9237.2952 h -776.079 v 2072.5368 c 269.976,74.088 529.635,173.413 776.079,295.548 z m 4355.529,0 c 246.594,-122.216 506.19,-221.441 776.347,-295.548 V 9237.2952 h -776.347 z m -7184.627,-356.384 c 251.585,-53.16 511.225,-84.559 776.615,-92.076 V 9237.2952 h -776.615 z m 1802.99,0 V 9237.2952 h -776.347 V 11156.92 c 265.391,7.517 524.762,38.916 776.347,92.076 z"
         transform="matrix(0.05387458,0,0,-0.03512302,-1110.0206,904.33737)" /></g></g></svg>
