%TF.GenerationSoftware,KiCad,Pcbnew,9.0.7*%
%TF.CreationDate,2026-02-06T02:11:59+00:00*%
%TF.ProjectId,WSB-PC,5753422d-5043-42e6-9b69-6361645f7063,rev?*%
%TF.SameCoordinates,Original*%
%TF.FileFunction,Copper,L2,Inr*%
%TF.FilePolarity,Positive*%
%FSLAX46Y46*%
G04 Gerber Fmt 4.6, Leading zero omitted, Abs format (unit mm)*
G04 Created by KiCad (PCBNEW 9.0.7) date 2026-02-06 02:11:59*
%MOMM*%
%LPD*%
G01*
G04 APERTURE LIST*
%TA.AperFunction,ComponentPad*%
%ADD10O,1.800000X0.900000*%
%TD*%
%TA.AperFunction,ViaPad*%
%ADD11C,0.450000*%
%TD*%
%TA.AperFunction,ViaPad*%
%ADD12C,0.600000*%
%TD*%
G04 APERTURE END LIST*
D10*
%TO.N,GND*%
%TO.C,P1*%
X133649000Y-98700000D03*
X133649500Y-91300000D03*
%TD*%
D11*
%TO.N,/ESP_U0_RX*%
X126000000Y-89100000D03*
%TO.N,/ESP_U0_TX*%
X125200001Y-89500000D03*
%TO.N,+3V3*%
X122100000Y-93400000D03*
%TO.N,+5V*%
X122100000Y-96300000D03*
%TO.N,/GPIO3*%
X126000000Y-100900000D03*
%TO.N,GND*%
X132100000Y-98200000D03*
D12*
X133900000Y-100300000D03*
X133800000Y-89700000D03*
X135100000Y-101500000D03*
X135100000Y-88400000D03*
D11*
X121100000Y-92600000D03*
X121100000Y-91000000D03*
X121100000Y-95000000D03*
X121100000Y-98200000D03*
X121100000Y-96600000D03*
X121100000Y-94200000D03*
X121050000Y-100950000D03*
X121050000Y-89050000D03*
X133850000Y-92125000D03*
X133850000Y-97625000D03*
X124760000Y-100100000D03*
D12*
X126400000Y-98800000D03*
%TO.N,+3V3*%
X124800000Y-98800000D03*
D11*
%TO.N,+5V*%
X122380000Y-97790000D03*
%TO.N,/GPIO3*%
X123700000Y-99150000D03*
%TO.N,+3V3*%
X123600000Y-100900000D03*
X123800000Y-100100000D03*
%TO.N,GND*%
X122200000Y-100100000D03*
%TO.N,/GPIO9*%
X130900000Y-91000000D03*
%TO.N,/EN*%
X127600000Y-100000000D03*
%TO.N,+5V*%
X131800000Y-99900000D03*
X122800000Y-100100000D03*
X130000000Y-90000000D03*
X122335000Y-89900000D03*
D12*
X129100000Y-90850000D03*
X128200000Y-90850000D03*
%TO.N,+3V3*%
X122800000Y-90850000D03*
D11*
X128300000Y-98700000D03*
D12*
X123900000Y-90850000D03*
%TO.N,GND*%
X128000000Y-97000000D03*
X124000000Y-93000000D03*
X128000000Y-93000000D03*
X124000000Y-97000000D03*
D11*
X135350000Y-97875000D03*
X135349500Y-92375000D03*
X131805000Y-100700000D03*
X132300000Y-97220000D03*
X132300000Y-92580000D03*
X131700000Y-89700000D03*
X123000000Y-89900000D03*
X126200000Y-91500000D03*
X128200000Y-91810000D03*
X122900000Y-95000000D03*
X123020000Y-97800000D03*
X129500000Y-98960000D03*
D12*
X132250000Y-88125000D03*
X124250000Y-88125000D03*
X129250000Y-101875000D03*
X121250000Y-101875000D03*
D11*
%TO.N,Net-(P1-CC1)*%
X133100000Y-94000000D03*
%TO.N,Net-(P1-CC2)*%
X135349500Y-95875000D03*
%TO.N,+5V*%
X133850000Y-93625000D03*
X133850000Y-96125000D03*
%TO.N,/USB_D-*%
X133850000Y-95125000D03*
X135349500Y-94875000D03*
%TO.N,/USB_D+*%
X133100000Y-94600000D03*
%TO.N,/MCU_D-*%
X129373726Y-95800000D03*
%TO.N,/MCU_D+*%
X129173726Y-95000000D03*
%TD*%
%TA.AperFunction,Conductor*%
%TO.N,GND*%
G36*
X135004842Y-87700977D02*
G01*
X135064184Y-87706821D01*
X135146271Y-87714906D01*
X135165302Y-87718691D01*
X135296628Y-87758528D01*
X135314551Y-87765953D01*
X135435581Y-87830645D01*
X135451710Y-87841421D01*
X135527196Y-87903371D01*
X135557794Y-87928482D01*
X135571517Y-87942205D01*
X135600000Y-87976911D01*
X135651092Y-88039168D01*
X135658575Y-88048285D01*
X135669357Y-88064422D01*
X135734045Y-88185445D01*
X135741472Y-88203375D01*
X135781307Y-88334694D01*
X135785093Y-88353728D01*
X135799023Y-88495156D01*
X135799500Y-88504860D01*
X135799500Y-94484245D01*
X135780593Y-94542436D01*
X135731093Y-94578400D01*
X135669907Y-94578400D01*
X135630498Y-94554250D01*
X135610763Y-94534515D01*
X135610760Y-94534513D01*
X135513740Y-94478498D01*
X135513742Y-94478498D01*
X135471751Y-94467247D01*
X135405518Y-94449500D01*
X135293482Y-94449500D01*
X135227248Y-94467247D01*
X135185258Y-94478498D01*
X135088239Y-94534513D01*
X135009013Y-94613739D01*
X134952998Y-94710758D01*
X134948245Y-94728497D01*
X134924000Y-94818982D01*
X134924000Y-94931018D01*
X134926537Y-94940485D01*
X134952998Y-95039241D01*
X134973903Y-95075448D01*
X135009015Y-95136263D01*
X135088237Y-95215485D01*
X135088239Y-95215486D01*
X135185259Y-95271501D01*
X135185257Y-95271501D01*
X135185261Y-95271502D01*
X135185263Y-95271503D01*
X135214637Y-95279373D01*
X135265950Y-95312697D01*
X135287877Y-95369819D01*
X135272041Y-95428919D01*
X135224491Y-95467424D01*
X135214643Y-95470624D01*
X135198411Y-95474973D01*
X135185258Y-95478498D01*
X135088239Y-95534513D01*
X135009013Y-95613739D01*
X134952998Y-95710758D01*
X134952997Y-95710763D01*
X134924000Y-95818982D01*
X134924000Y-95931018D01*
X134931636Y-95959515D01*
X134952998Y-96039241D01*
X135008723Y-96135758D01*
X135009015Y-96136263D01*
X135088237Y-96215485D01*
X135120579Y-96234157D01*
X135185259Y-96271501D01*
X135185257Y-96271501D01*
X135185261Y-96271502D01*
X135185263Y-96271503D01*
X135293482Y-96300500D01*
X135293484Y-96300500D01*
X135405516Y-96300500D01*
X135405518Y-96300500D01*
X135513737Y-96271503D01*
X135513739Y-96271501D01*
X135513741Y-96271501D01*
X135561403Y-96243983D01*
X135610763Y-96215485D01*
X135630498Y-96195749D01*
X135685013Y-96167974D01*
X135745445Y-96177545D01*
X135788710Y-96220810D01*
X135799500Y-96265755D01*
X135799500Y-101495139D01*
X135799023Y-101504843D01*
X135785093Y-101646271D01*
X135781307Y-101665305D01*
X135741472Y-101796624D01*
X135734045Y-101814554D01*
X135669357Y-101935577D01*
X135658575Y-101951714D01*
X135571517Y-102057794D01*
X135557794Y-102071517D01*
X135451714Y-102158575D01*
X135435577Y-102169357D01*
X135314554Y-102234045D01*
X135296624Y-102241472D01*
X135165305Y-102281307D01*
X135146271Y-102285093D01*
X135004843Y-102299023D01*
X134995139Y-102299500D01*
X121004861Y-102299500D01*
X120995157Y-102299023D01*
X120853728Y-102285093D01*
X120834694Y-102281307D01*
X120703375Y-102241472D01*
X120685445Y-102234045D01*
X120564422Y-102169357D01*
X120548287Y-102158576D01*
X120442206Y-102071518D01*
X120428481Y-102057792D01*
X120422470Y-102050467D01*
X120400171Y-101993489D01*
X120400000Y-101987665D01*
X120400000Y-100043982D01*
X122374500Y-100043982D01*
X122374500Y-100156018D01*
X122395627Y-100234864D01*
X122403498Y-100264241D01*
X122447519Y-100340486D01*
X122459515Y-100361263D01*
X122538737Y-100440485D01*
X122538739Y-100440486D01*
X122635759Y-100496501D01*
X122635757Y-100496501D01*
X122635761Y-100496502D01*
X122635763Y-100496503D01*
X122743982Y-100525500D01*
X122743984Y-100525500D01*
X122856016Y-100525500D01*
X122856018Y-100525500D01*
X122964237Y-100496503D01*
X122964239Y-100496501D01*
X122964241Y-100496501D01*
X123002347Y-100474500D01*
X123061263Y-100440485D01*
X123140485Y-100361263D01*
X123196503Y-100264237D01*
X123204373Y-100234862D01*
X123237697Y-100183549D01*
X123294818Y-100161622D01*
X123353919Y-100177457D01*
X123388478Y-100216072D01*
X123393010Y-100225101D01*
X123403497Y-100264237D01*
X123459515Y-100361263D01*
X123463221Y-100364969D01*
X123469070Y-100376620D01*
X123472329Y-100398032D01*
X123479558Y-100418451D01*
X123476836Y-100427636D01*
X123478278Y-100437108D01*
X123468329Y-100456346D01*
X123462176Y-100477115D01*
X123453391Y-100485234D01*
X123450174Y-100491457D01*
X123442483Y-100495317D01*
X123430093Y-100506770D01*
X123338738Y-100559514D01*
X123259513Y-100638739D01*
X123203498Y-100735758D01*
X123203497Y-100735763D01*
X123174500Y-100843982D01*
X123174500Y-100956018D01*
X123200072Y-101051455D01*
X123203498Y-101064241D01*
X123259513Y-101161260D01*
X123259515Y-101161263D01*
X123338737Y-101240485D01*
X123338739Y-101240486D01*
X123435759Y-101296501D01*
X123435757Y-101296501D01*
X123435761Y-101296502D01*
X123435763Y-101296503D01*
X123543982Y-101325500D01*
X123543984Y-101325500D01*
X123656016Y-101325500D01*
X123656018Y-101325500D01*
X123764237Y-101296503D01*
X123764239Y-101296501D01*
X123764241Y-101296501D01*
X123793064Y-101279859D01*
X123861263Y-101240485D01*
X123940485Y-101161263D01*
X123996503Y-101064237D01*
X124025500Y-100956018D01*
X124025500Y-100843982D01*
X125574500Y-100843982D01*
X125574500Y-100956018D01*
X125600072Y-101051455D01*
X125603498Y-101064241D01*
X125659513Y-101161260D01*
X125659515Y-101161263D01*
X125738737Y-101240485D01*
X125738739Y-101240486D01*
X125835759Y-101296501D01*
X125835757Y-101296501D01*
X125835761Y-101296502D01*
X125835763Y-101296503D01*
X125943982Y-101325500D01*
X125943984Y-101325500D01*
X126056016Y-101325500D01*
X126056018Y-101325500D01*
X126164237Y-101296503D01*
X126164239Y-101296501D01*
X126164241Y-101296501D01*
X126193064Y-101279859D01*
X126261263Y-101240485D01*
X126340485Y-101161263D01*
X126396503Y-101064237D01*
X126425500Y-100956018D01*
X126425500Y-100843982D01*
X126396503Y-100735763D01*
X126396501Y-100735760D01*
X126396501Y-100735758D01*
X126340486Y-100638739D01*
X126340485Y-100638737D01*
X126261263Y-100559515D01*
X126261260Y-100559513D01*
X126164240Y-100503498D01*
X126164242Y-100503498D01*
X126119303Y-100491457D01*
X126056018Y-100474500D01*
X125943982Y-100474500D01*
X125880697Y-100491457D01*
X125835758Y-100503498D01*
X125738739Y-100559513D01*
X125659513Y-100638739D01*
X125603498Y-100735758D01*
X125603497Y-100735763D01*
X125574500Y-100843982D01*
X124025500Y-100843982D01*
X123996503Y-100735763D01*
X123996501Y-100735760D01*
X123996501Y-100735758D01*
X123937241Y-100633118D01*
X123938451Y-100632419D01*
X123920441Y-100581552D01*
X123937821Y-100522887D01*
X123969902Y-100493231D01*
X124061263Y-100440485D01*
X124140485Y-100361263D01*
X124196503Y-100264237D01*
X124225500Y-100156018D01*
X124225500Y-100043982D01*
X124203832Y-99963115D01*
X124203832Y-99963113D01*
X124198705Y-99943982D01*
X127174500Y-99943982D01*
X127174500Y-100056018D01*
X127200072Y-100151455D01*
X127203498Y-100164241D01*
X127247519Y-100240486D01*
X127259515Y-100261263D01*
X127338737Y-100340485D01*
X127338739Y-100340486D01*
X127435759Y-100396501D01*
X127435757Y-100396501D01*
X127435761Y-100396502D01*
X127435763Y-100396503D01*
X127543982Y-100425500D01*
X127543984Y-100425500D01*
X127656016Y-100425500D01*
X127656018Y-100425500D01*
X127764237Y-100396503D01*
X127764239Y-100396501D01*
X127764241Y-100396501D01*
X127825274Y-100361263D01*
X127861263Y-100340485D01*
X127940485Y-100261263D01*
X127985353Y-100183549D01*
X127996501Y-100164241D01*
X127996501Y-100164239D01*
X127996503Y-100164237D01*
X128025500Y-100056018D01*
X128025500Y-99943982D01*
X128003832Y-99863115D01*
X128003832Y-99863113D01*
X127998705Y-99843982D01*
X131374500Y-99843982D01*
X131374500Y-99956018D01*
X131379584Y-99974991D01*
X131403498Y-100064241D01*
X131459513Y-100161260D01*
X131459515Y-100161263D01*
X131538737Y-100240485D01*
X131538739Y-100240486D01*
X131635759Y-100296501D01*
X131635757Y-100296501D01*
X131635761Y-100296502D01*
X131635763Y-100296503D01*
X131743982Y-100325500D01*
X131743984Y-100325500D01*
X131856016Y-100325500D01*
X131856018Y-100325500D01*
X131964237Y-100296503D01*
X131964239Y-100296501D01*
X131964241Y-100296501D01*
X132025274Y-100261263D01*
X132061263Y-100240485D01*
X132140485Y-100161263D01*
X132196503Y-100064237D01*
X132225500Y-99956018D01*
X132225500Y-99843982D01*
X132196503Y-99735763D01*
X132196501Y-99735760D01*
X132196501Y-99735758D01*
X132140486Y-99638739D01*
X132140485Y-99638737D01*
X132061263Y-99559515D01*
X132049475Y-99552709D01*
X131964240Y-99503498D01*
X131964242Y-99503498D01*
X131915675Y-99490485D01*
X131856018Y-99474500D01*
X131743982Y-99474500D01*
X131684325Y-99490485D01*
X131635758Y-99503498D01*
X131538739Y-99559513D01*
X131459513Y-99638739D01*
X131403498Y-99735758D01*
X131397133Y-99759513D01*
X131374500Y-99843982D01*
X127998705Y-99843982D01*
X127996503Y-99835763D01*
X127996501Y-99835759D01*
X127940486Y-99738739D01*
X127940485Y-99738737D01*
X127861263Y-99659515D01*
X127861260Y-99659513D01*
X127764240Y-99603498D01*
X127764242Y-99603498D01*
X127722251Y-99592247D01*
X127656018Y-99574500D01*
X127543982Y-99574500D01*
X127477748Y-99592247D01*
X127435758Y-99603498D01*
X127338739Y-99659513D01*
X127259513Y-99738739D01*
X127203498Y-99835758D01*
X127196168Y-99863116D01*
X127174500Y-99943982D01*
X124198705Y-99943982D01*
X124196503Y-99935763D01*
X124196501Y-99935759D01*
X124140486Y-99838739D01*
X124140485Y-99838737D01*
X124061263Y-99759515D01*
X124061260Y-99759513D01*
X123964240Y-99703498D01*
X123964236Y-99703496D01*
X123941071Y-99697289D01*
X123889757Y-99663965D01*
X123867831Y-99606843D01*
X123883667Y-99547743D01*
X123917193Y-99515928D01*
X123961263Y-99490485D01*
X124040485Y-99411263D01*
X124096503Y-99314237D01*
X124125500Y-99206018D01*
X124125500Y-99093982D01*
X124096503Y-98985763D01*
X124096501Y-98985760D01*
X124096501Y-98985758D01*
X124040486Y-98888739D01*
X124040485Y-98888737D01*
X123961263Y-98809515D01*
X123961260Y-98809513D01*
X123864240Y-98753498D01*
X123864242Y-98753498D01*
X123822251Y-98742247D01*
X123791876Y-98734108D01*
X124299500Y-98734108D01*
X124299500Y-98865892D01*
X124322037Y-98950001D01*
X124333609Y-98993190D01*
X124399496Y-99107309D01*
X124399498Y-99107311D01*
X124399500Y-99107314D01*
X124492686Y-99200500D01*
X124492688Y-99200501D01*
X124492690Y-99200503D01*
X124606810Y-99266390D01*
X124606808Y-99266390D01*
X124606812Y-99266391D01*
X124606814Y-99266392D01*
X124734108Y-99300500D01*
X124734110Y-99300500D01*
X124865890Y-99300500D01*
X124865892Y-99300500D01*
X124993186Y-99266392D01*
X124993188Y-99266390D01*
X124993190Y-99266390D01*
X125107309Y-99200503D01*
X125107309Y-99200502D01*
X125107314Y-99200500D01*
X125200500Y-99107314D01*
X125239084Y-99040485D01*
X125266390Y-98993190D01*
X125266390Y-98993188D01*
X125266392Y-98993186D01*
X125300500Y-98865892D01*
X125300500Y-98734108D01*
X125276351Y-98643982D01*
X127874500Y-98643982D01*
X127874500Y-98756018D01*
X127897435Y-98841614D01*
X127903498Y-98864241D01*
X127959513Y-98961260D01*
X127959515Y-98961263D01*
X128038737Y-99040485D01*
X128038739Y-99040486D01*
X128135759Y-99096501D01*
X128135757Y-99096501D01*
X128135761Y-99096502D01*
X128135763Y-99096503D01*
X128243982Y-99125500D01*
X128243984Y-99125500D01*
X128356016Y-99125500D01*
X128356018Y-99125500D01*
X128464237Y-99096503D01*
X128464239Y-99096501D01*
X128464241Y-99096501D01*
X128493064Y-99079859D01*
X128561263Y-99040485D01*
X128640485Y-98961263D01*
X128696503Y-98864237D01*
X128725500Y-98756018D01*
X128725500Y-98643982D01*
X128696503Y-98535763D01*
X128646987Y-98449999D01*
X132598999Y-98449999D01*
X132598999Y-98450000D01*
X133199272Y-98450000D01*
X133107386Y-98488060D01*
X133037060Y-98558386D01*
X132999000Y-98650272D01*
X132999000Y-98749728D01*
X133037060Y-98841614D01*
X133107386Y-98911940D01*
X133199272Y-98950000D01*
X132598999Y-98950000D01*
X132622976Y-99007887D01*
X132694109Y-99114347D01*
X132784652Y-99204890D01*
X132891110Y-99276022D01*
X133009398Y-99325019D01*
X133009404Y-99325021D01*
X133134978Y-99349999D01*
X133134982Y-99350000D01*
X133398999Y-99350000D01*
X133399000Y-99349999D01*
X133399000Y-98950001D01*
X133398999Y-98950000D01*
X133899001Y-98950000D01*
X133899000Y-98950001D01*
X133899000Y-99349999D01*
X133899001Y-99350000D01*
X134163018Y-99350000D01*
X134163021Y-99349999D01*
X134288595Y-99325021D01*
X134288601Y-99325019D01*
X134406889Y-99276022D01*
X134513347Y-99204890D01*
X134603890Y-99114347D01*
X134675023Y-99007887D01*
X134699001Y-98950000D01*
X134098728Y-98950000D01*
X134190614Y-98911940D01*
X134260940Y-98841614D01*
X134299000Y-98749728D01*
X134299000Y-98650272D01*
X134260940Y-98558386D01*
X134190614Y-98488060D01*
X134098728Y-98450000D01*
X134699001Y-98450000D01*
X134699000Y-98449999D01*
X134675023Y-98392112D01*
X134603890Y-98285652D01*
X134513347Y-98195109D01*
X134406889Y-98123977D01*
X134288601Y-98074980D01*
X134288595Y-98074978D01*
X134163021Y-98050000D01*
X133899001Y-98050000D01*
X133899000Y-98050001D01*
X133899000Y-98449999D01*
X133899001Y-98450000D01*
X133398999Y-98450000D01*
X133399000Y-98449999D01*
X133399000Y-98050001D01*
X133398999Y-98050000D01*
X133134978Y-98050000D01*
X133009404Y-98074978D01*
X133009398Y-98074980D01*
X132891110Y-98123977D01*
X132784652Y-98195109D01*
X132694109Y-98285652D01*
X132622976Y-98392112D01*
X132598999Y-98449999D01*
X128646987Y-98449999D01*
X128640485Y-98438737D01*
X128561263Y-98359515D01*
X128516393Y-98333609D01*
X128464240Y-98303498D01*
X128464242Y-98303498D01*
X128422251Y-98292247D01*
X128356018Y-98274500D01*
X128243982Y-98274500D01*
X128177748Y-98292247D01*
X128135758Y-98303498D01*
X128038739Y-98359513D01*
X127959513Y-98438739D01*
X127903498Y-98535758D01*
X127903497Y-98535763D01*
X127874500Y-98643982D01*
X125276351Y-98643982D01*
X125266392Y-98606814D01*
X125225371Y-98535763D01*
X125200503Y-98492690D01*
X125200501Y-98492688D01*
X125200500Y-98492686D01*
X125107314Y-98399500D01*
X125107311Y-98399498D01*
X125107309Y-98399496D01*
X124993189Y-98333609D01*
X124993191Y-98333609D01*
X124943799Y-98320375D01*
X124865892Y-98299500D01*
X124734108Y-98299500D01*
X124656200Y-98320375D01*
X124606809Y-98333609D01*
X124492690Y-98399496D01*
X124399496Y-98492690D01*
X124333609Y-98606809D01*
X124318522Y-98663115D01*
X124299500Y-98734108D01*
X123791876Y-98734108D01*
X123756018Y-98724500D01*
X123643982Y-98724500D01*
X123577748Y-98742247D01*
X123535758Y-98753498D01*
X123438739Y-98809513D01*
X123359513Y-98888739D01*
X123303498Y-98985758D01*
X123303497Y-98985763D01*
X123274500Y-99093982D01*
X123274500Y-99206018D01*
X123299816Y-99300500D01*
X123303498Y-99314241D01*
X123359513Y-99411260D01*
X123359515Y-99411263D01*
X123438737Y-99490485D01*
X123461276Y-99503498D01*
X123535759Y-99546501D01*
X123535760Y-99546501D01*
X123535763Y-99546503D01*
X123558927Y-99552709D01*
X123610241Y-99586033D01*
X123632168Y-99643154D01*
X123616333Y-99702255D01*
X123582805Y-99734072D01*
X123538738Y-99759514D01*
X123459513Y-99838739D01*
X123403498Y-99935758D01*
X123395627Y-99965136D01*
X123362303Y-100016450D01*
X123305181Y-100038377D01*
X123246081Y-100022541D01*
X123207576Y-99974991D01*
X123204373Y-99965136D01*
X123201930Y-99956018D01*
X123196503Y-99935763D01*
X123196501Y-99935759D01*
X123196501Y-99935758D01*
X123140486Y-99838739D01*
X123140485Y-99838737D01*
X123061263Y-99759515D01*
X123061260Y-99759513D01*
X122964240Y-99703498D01*
X122964242Y-99703498D01*
X122922251Y-99692247D01*
X122856018Y-99674500D01*
X122743982Y-99674500D01*
X122677748Y-99692247D01*
X122635758Y-99703498D01*
X122538739Y-99759513D01*
X122459513Y-99838739D01*
X122403498Y-99935758D01*
X122392986Y-99974991D01*
X122374500Y-100043982D01*
X120400000Y-100043982D01*
X120400000Y-97733982D01*
X121954500Y-97733982D01*
X121954500Y-97846018D01*
X121980072Y-97941455D01*
X121983498Y-97954241D01*
X122038786Y-98050000D01*
X122039515Y-98051263D01*
X122118737Y-98130485D01*
X122118739Y-98130486D01*
X122215759Y-98186501D01*
X122215757Y-98186501D01*
X122215761Y-98186502D01*
X122215763Y-98186503D01*
X122323982Y-98215500D01*
X122323984Y-98215500D01*
X122436016Y-98215500D01*
X122436018Y-98215500D01*
X122544237Y-98186503D01*
X122544239Y-98186501D01*
X122544241Y-98186501D01*
X122573064Y-98169859D01*
X122641263Y-98130485D01*
X122720485Y-98051263D01*
X122776503Y-97954237D01*
X122805500Y-97846018D01*
X122805500Y-97733982D01*
X122776503Y-97625763D01*
X122776501Y-97625760D01*
X122776501Y-97625758D01*
X122720486Y-97528739D01*
X122720485Y-97528737D01*
X122641263Y-97449515D01*
X122641260Y-97449513D01*
X122544240Y-97393498D01*
X122544242Y-97393498D01*
X122502251Y-97382247D01*
X122436018Y-97364500D01*
X122323982Y-97364500D01*
X122257748Y-97382247D01*
X122215758Y-97393498D01*
X122118739Y-97449513D01*
X122039513Y-97528739D01*
X121983498Y-97625758D01*
X121983497Y-97625763D01*
X121954500Y-97733982D01*
X120400000Y-97733982D01*
X120400000Y-96243982D01*
X121674500Y-96243982D01*
X121674500Y-96356018D01*
X121682604Y-96386263D01*
X121703498Y-96464241D01*
X121753301Y-96550500D01*
X121759515Y-96561263D01*
X121838737Y-96640485D01*
X121838739Y-96640486D01*
X121935759Y-96696501D01*
X121935757Y-96696501D01*
X121935761Y-96696502D01*
X121935763Y-96696503D01*
X122043982Y-96725500D01*
X122043984Y-96725500D01*
X122156016Y-96725500D01*
X122156018Y-96725500D01*
X122264237Y-96696503D01*
X122264239Y-96696501D01*
X122264241Y-96696501D01*
X122293064Y-96679859D01*
X122361263Y-96640485D01*
X122440485Y-96561263D01*
X122495782Y-96465486D01*
X122496501Y-96464241D01*
X122496501Y-96464239D01*
X122496503Y-96464237D01*
X122525500Y-96356018D01*
X122525500Y-96243982D01*
X122496503Y-96135763D01*
X122496501Y-96135760D01*
X122496501Y-96135758D01*
X122440486Y-96038739D01*
X122440485Y-96038737D01*
X122361263Y-95959515D01*
X122361260Y-95959513D01*
X122264240Y-95903498D01*
X122264242Y-95903498D01*
X122222251Y-95892247D01*
X122156018Y-95874500D01*
X122043982Y-95874500D01*
X121977748Y-95892247D01*
X121935758Y-95903498D01*
X121838739Y-95959513D01*
X121759513Y-96038739D01*
X121703498Y-96135758D01*
X121691371Y-96181018D01*
X121674500Y-96243982D01*
X120400000Y-96243982D01*
X120400000Y-94943982D01*
X128748226Y-94943982D01*
X128748226Y-95056018D01*
X128773798Y-95151455D01*
X128777224Y-95164241D01*
X128809885Y-95220810D01*
X128833241Y-95261263D01*
X128912463Y-95340485D01*
X129003819Y-95393229D01*
X129044759Y-95438698D01*
X129051155Y-95499548D01*
X129035851Y-95532752D01*
X129036485Y-95533118D01*
X128977224Y-95635758D01*
X128977223Y-95635763D01*
X128948226Y-95743982D01*
X128948226Y-95856018D01*
X128960948Y-95903497D01*
X128977224Y-95964241D01*
X129033239Y-96061260D01*
X129033241Y-96061263D01*
X129112463Y-96140485D01*
X129112465Y-96140486D01*
X129209485Y-96196501D01*
X129209483Y-96196501D01*
X129209487Y-96196502D01*
X129209489Y-96196503D01*
X129317708Y-96225500D01*
X129317710Y-96225500D01*
X129429742Y-96225500D01*
X129429744Y-96225500D01*
X129537963Y-96196503D01*
X129537965Y-96196501D01*
X129537967Y-96196501D01*
X129570799Y-96177545D01*
X129634989Y-96140485D01*
X129714211Y-96061263D01*
X129770229Y-95964237D01*
X129799226Y-95856018D01*
X129799226Y-95743982D01*
X129770229Y-95635763D01*
X129770227Y-95635760D01*
X129770227Y-95635758D01*
X129714212Y-95538739D01*
X129714211Y-95538737D01*
X129634989Y-95459515D01*
X129617643Y-95449500D01*
X129543633Y-95406770D01*
X129502692Y-95361301D01*
X129496296Y-95300450D01*
X129511603Y-95267249D01*
X129510967Y-95266882D01*
X129570227Y-95164241D01*
X129570227Y-95164239D01*
X129570229Y-95164237D01*
X129599226Y-95056018D01*
X129599226Y-94943982D01*
X129570229Y-94835763D01*
X129570227Y-94835760D01*
X129570227Y-94835758D01*
X129514212Y-94738739D01*
X129514211Y-94738737D01*
X129434989Y-94659515D01*
X129434986Y-94659513D01*
X129337966Y-94603498D01*
X129337968Y-94603498D01*
X129295977Y-94592247D01*
X129229744Y-94574500D01*
X129117708Y-94574500D01*
X129051474Y-94592247D01*
X129009484Y-94603498D01*
X128912465Y-94659513D01*
X128833239Y-94738739D01*
X128777224Y-94835758D01*
X128777223Y-94835763D01*
X128748226Y-94943982D01*
X120400000Y-94943982D01*
X120400000Y-93943982D01*
X132674500Y-93943982D01*
X132674500Y-94056018D01*
X132678412Y-94070618D01*
X132703497Y-94164238D01*
X132753301Y-94250500D01*
X132766022Y-94310348D01*
X132753301Y-94349500D01*
X132703497Y-94435761D01*
X132692046Y-94478498D01*
X132674500Y-94543982D01*
X132674500Y-94656018D01*
X132700072Y-94751455D01*
X132703498Y-94764241D01*
X132759513Y-94861260D01*
X132759515Y-94861263D01*
X132838737Y-94940485D01*
X132838739Y-94940486D01*
X132935759Y-94996501D01*
X132935757Y-94996501D01*
X132935761Y-94996502D01*
X132935763Y-94996503D01*
X133043982Y-95025500D01*
X133043984Y-95025500D01*
X133156016Y-95025500D01*
X133156018Y-95025500D01*
X133264237Y-94996503D01*
X133275998Y-94989713D01*
X133335846Y-94976990D01*
X133391742Y-95001875D01*
X133422336Y-95054863D01*
X133424500Y-95075448D01*
X133424500Y-95181018D01*
X133447205Y-95265755D01*
X133453498Y-95289241D01*
X133506004Y-95380182D01*
X133509515Y-95386263D01*
X133588737Y-95465485D01*
X133611276Y-95478498D01*
X133685759Y-95521501D01*
X133685757Y-95521501D01*
X133685761Y-95521502D01*
X133685763Y-95521503D01*
X133715137Y-95529373D01*
X133766450Y-95562697D01*
X133788377Y-95619819D01*
X133772541Y-95678919D01*
X133724991Y-95717424D01*
X133715143Y-95720624D01*
X133698911Y-95724973D01*
X133685758Y-95728498D01*
X133588739Y-95784513D01*
X133509513Y-95863739D01*
X133453498Y-95960758D01*
X133453497Y-95960763D01*
X133424500Y-96068982D01*
X133424500Y-96181018D01*
X133433736Y-96215486D01*
X133453498Y-96289241D01*
X133509513Y-96386260D01*
X133509515Y-96386263D01*
X133588737Y-96465485D01*
X133588739Y-96465486D01*
X133685759Y-96521501D01*
X133685757Y-96521501D01*
X133685761Y-96521502D01*
X133685763Y-96521503D01*
X133793982Y-96550500D01*
X133793984Y-96550500D01*
X133906016Y-96550500D01*
X133906018Y-96550500D01*
X134014237Y-96521503D01*
X134014239Y-96521501D01*
X134014241Y-96521501D01*
X134043064Y-96504859D01*
X134111263Y-96465485D01*
X134190485Y-96386263D01*
X134246503Y-96289237D01*
X134275500Y-96181018D01*
X134275500Y-96068982D01*
X134246503Y-95960763D01*
X134246501Y-95960760D01*
X134246501Y-95960758D01*
X134190486Y-95863739D01*
X134190485Y-95863737D01*
X134111263Y-95784515D01*
X134111260Y-95784513D01*
X134014240Y-95728498D01*
X134014237Y-95728497D01*
X133984862Y-95720626D01*
X133933549Y-95687303D01*
X133911622Y-95630182D01*
X133927457Y-95571081D01*
X133975007Y-95532576D01*
X133984856Y-95529375D01*
X134014237Y-95521503D01*
X134111263Y-95465485D01*
X134190485Y-95386263D01*
X134246503Y-95289237D01*
X134275500Y-95181018D01*
X134275500Y-95068982D01*
X134246503Y-94960763D01*
X134246501Y-94960760D01*
X134246501Y-94960758D01*
X134190486Y-94863739D01*
X134190485Y-94863737D01*
X134111263Y-94784515D01*
X134111260Y-94784513D01*
X134014240Y-94728498D01*
X134014242Y-94728498D01*
X133948052Y-94710763D01*
X133906018Y-94699500D01*
X133793982Y-94699500D01*
X133685763Y-94728497D01*
X133685762Y-94728497D01*
X133685760Y-94728498D01*
X133673998Y-94735289D01*
X133614150Y-94748008D01*
X133558254Y-94723121D01*
X133527663Y-94670132D01*
X133525500Y-94649551D01*
X133525500Y-94543983D01*
X133525500Y-94543982D01*
X133496503Y-94435763D01*
X133446698Y-94349499D01*
X133433977Y-94289652D01*
X133446699Y-94250500D01*
X133496503Y-94164237D01*
X133521588Y-94070615D01*
X133554911Y-94019304D01*
X133612032Y-93997377D01*
X133666716Y-94010506D01*
X133685759Y-94021501D01*
X133685760Y-94021501D01*
X133685763Y-94021503D01*
X133793982Y-94050500D01*
X133793984Y-94050500D01*
X133906016Y-94050500D01*
X133906018Y-94050500D01*
X134014237Y-94021503D01*
X134014239Y-94021501D01*
X134014241Y-94021501D01*
X134056024Y-93997377D01*
X134111263Y-93965485D01*
X134190485Y-93886263D01*
X134246503Y-93789237D01*
X134275500Y-93681018D01*
X134275500Y-93568982D01*
X134246503Y-93460763D01*
X134246501Y-93460760D01*
X134246501Y-93460758D01*
X134190486Y-93363739D01*
X134190485Y-93363737D01*
X134111263Y-93284515D01*
X134111260Y-93284513D01*
X134014240Y-93228498D01*
X134014242Y-93228498D01*
X133972251Y-93217247D01*
X133906018Y-93199500D01*
X133793982Y-93199500D01*
X133727748Y-93217247D01*
X133685758Y-93228498D01*
X133588739Y-93284513D01*
X133509513Y-93363739D01*
X133453499Y-93460757D01*
X133428412Y-93554382D01*
X133395087Y-93605696D01*
X133337966Y-93627622D01*
X133283284Y-93614494D01*
X133264239Y-93603498D01*
X133264238Y-93603497D01*
X133264237Y-93603497D01*
X133156018Y-93574500D01*
X133043982Y-93574500D01*
X132977748Y-93592247D01*
X132935758Y-93603498D01*
X132838739Y-93659513D01*
X132759513Y-93738739D01*
X132703498Y-93835758D01*
X132703497Y-93835763D01*
X132674500Y-93943982D01*
X120400000Y-93943982D01*
X120400000Y-93343982D01*
X121674500Y-93343982D01*
X121674500Y-93456018D01*
X121700072Y-93551455D01*
X121703498Y-93564241D01*
X121758506Y-93659515D01*
X121759515Y-93661263D01*
X121838737Y-93740485D01*
X121838739Y-93740486D01*
X121935759Y-93796501D01*
X121935757Y-93796501D01*
X121935761Y-93796502D01*
X121935763Y-93796503D01*
X122043982Y-93825500D01*
X122043984Y-93825500D01*
X122156016Y-93825500D01*
X122156018Y-93825500D01*
X122264237Y-93796503D01*
X122264239Y-93796501D01*
X122264241Y-93796501D01*
X122293064Y-93779859D01*
X122361263Y-93740485D01*
X122440485Y-93661263D01*
X122493763Y-93568983D01*
X122496501Y-93564241D01*
X122496501Y-93564239D01*
X122496503Y-93564237D01*
X122525500Y-93456018D01*
X122525500Y-93343982D01*
X122496503Y-93235763D01*
X122496501Y-93235760D01*
X122496501Y-93235758D01*
X122440486Y-93138739D01*
X122440485Y-93138737D01*
X122361263Y-93059515D01*
X122361260Y-93059513D01*
X122264240Y-93003498D01*
X122264242Y-93003498D01*
X122222251Y-92992247D01*
X122156018Y-92974500D01*
X122043982Y-92974500D01*
X121977748Y-92992247D01*
X121935758Y-93003498D01*
X121838739Y-93059513D01*
X121759513Y-93138739D01*
X121703498Y-93235758D01*
X121690434Y-93284515D01*
X121674500Y-93343982D01*
X120400000Y-93343982D01*
X120400000Y-89843982D01*
X121909500Y-89843982D01*
X121909500Y-89956018D01*
X121935072Y-90051455D01*
X121938498Y-90064241D01*
X121994513Y-90161260D01*
X121994515Y-90161263D01*
X122073737Y-90240485D01*
X122073739Y-90240486D01*
X122170759Y-90296501D01*
X122170757Y-90296501D01*
X122170761Y-90296502D01*
X122170763Y-90296503D01*
X122278982Y-90325500D01*
X122278984Y-90325500D01*
X122377679Y-90325500D01*
X122435870Y-90344407D01*
X122471834Y-90393907D01*
X122471834Y-90455093D01*
X122447684Y-90494501D01*
X122420003Y-90522183D01*
X122399497Y-90542689D01*
X122399496Y-90542690D01*
X122333609Y-90656809D01*
X122328741Y-90674978D01*
X122299500Y-90784108D01*
X122299500Y-90915892D01*
X122307027Y-90943982D01*
X122333609Y-91043190D01*
X122399496Y-91157309D01*
X122399498Y-91157311D01*
X122399500Y-91157314D01*
X122492686Y-91250500D01*
X122492688Y-91250501D01*
X122492690Y-91250503D01*
X122606810Y-91316390D01*
X122606808Y-91316390D01*
X122606812Y-91316391D01*
X122606814Y-91316392D01*
X122734108Y-91350500D01*
X122734110Y-91350500D01*
X122865890Y-91350500D01*
X122865892Y-91350500D01*
X122993186Y-91316392D01*
X122993188Y-91316390D01*
X122993190Y-91316390D01*
X123107309Y-91250503D01*
X123107309Y-91250502D01*
X123107314Y-91250500D01*
X123200500Y-91157314D01*
X123240484Y-91088060D01*
X123264264Y-91046873D01*
X123309733Y-91005932D01*
X123370583Y-90999536D01*
X123423571Y-91030129D01*
X123435736Y-91046873D01*
X123499496Y-91157309D01*
X123499498Y-91157311D01*
X123499500Y-91157314D01*
X123592686Y-91250500D01*
X123592688Y-91250501D01*
X123592690Y-91250503D01*
X123706810Y-91316390D01*
X123706808Y-91316390D01*
X123706812Y-91316391D01*
X123706814Y-91316392D01*
X123834108Y-91350500D01*
X123834110Y-91350500D01*
X123965890Y-91350500D01*
X123965892Y-91350500D01*
X124093186Y-91316392D01*
X124093188Y-91316390D01*
X124093190Y-91316390D01*
X124207309Y-91250503D01*
X124207309Y-91250502D01*
X124207314Y-91250500D01*
X124300500Y-91157314D01*
X124340484Y-91088060D01*
X124366390Y-91043190D01*
X124366390Y-91043188D01*
X124366392Y-91043186D01*
X124400500Y-90915892D01*
X124400500Y-90784108D01*
X127699500Y-90784108D01*
X127699500Y-90915892D01*
X127707027Y-90943982D01*
X127733609Y-91043190D01*
X127799496Y-91157309D01*
X127799498Y-91157311D01*
X127799500Y-91157314D01*
X127892686Y-91250500D01*
X127892688Y-91250501D01*
X127892690Y-91250503D01*
X128006810Y-91316390D01*
X128006808Y-91316390D01*
X128006812Y-91316391D01*
X128006814Y-91316392D01*
X128134108Y-91350500D01*
X128134110Y-91350500D01*
X128265890Y-91350500D01*
X128265892Y-91350500D01*
X128393186Y-91316392D01*
X128393188Y-91316390D01*
X128393190Y-91316390D01*
X128507309Y-91250503D01*
X128507309Y-91250502D01*
X128507314Y-91250500D01*
X128579998Y-91177815D01*
X128634513Y-91150040D01*
X128694945Y-91159611D01*
X128720000Y-91177814D01*
X128792686Y-91250500D01*
X128792688Y-91250501D01*
X128792690Y-91250503D01*
X128906810Y-91316390D01*
X128906808Y-91316390D01*
X128906812Y-91316391D01*
X128906814Y-91316392D01*
X129034108Y-91350500D01*
X129034110Y-91350500D01*
X129165890Y-91350500D01*
X129165892Y-91350500D01*
X129293186Y-91316392D01*
X129293188Y-91316390D01*
X129293190Y-91316390D01*
X129407309Y-91250503D01*
X129407309Y-91250502D01*
X129407314Y-91250500D01*
X129500500Y-91157314D01*
X129540484Y-91088060D01*
X129566390Y-91043190D01*
X129566390Y-91043188D01*
X129566392Y-91043186D01*
X129592973Y-90943982D01*
X130474500Y-90943982D01*
X130474500Y-91056018D01*
X130478669Y-91071577D01*
X130503498Y-91164241D01*
X130559513Y-91261260D01*
X130559515Y-91261263D01*
X130638737Y-91340485D01*
X130671079Y-91359157D01*
X130735759Y-91396501D01*
X130735757Y-91396501D01*
X130735761Y-91396502D01*
X130735763Y-91396503D01*
X130843982Y-91425500D01*
X130843984Y-91425500D01*
X130956016Y-91425500D01*
X130956018Y-91425500D01*
X131064237Y-91396503D01*
X131064239Y-91396501D01*
X131064241Y-91396501D01*
X131093064Y-91379859D01*
X131161263Y-91340485D01*
X131240485Y-91261263D01*
X131296503Y-91164237D01*
X131325500Y-91056018D01*
X131325500Y-91049999D01*
X132599499Y-91049999D01*
X132599499Y-91050000D01*
X133199772Y-91050000D01*
X133107886Y-91088060D01*
X133037560Y-91158386D01*
X132999500Y-91250272D01*
X132999500Y-91349728D01*
X133037560Y-91441614D01*
X133107886Y-91511940D01*
X133199772Y-91550000D01*
X132599499Y-91550000D01*
X132623476Y-91607887D01*
X132694609Y-91714347D01*
X132785152Y-91804890D01*
X132891610Y-91876022D01*
X133009898Y-91925019D01*
X133009904Y-91925021D01*
X133135478Y-91949999D01*
X133135482Y-91950000D01*
X133399499Y-91950000D01*
X133399500Y-91949999D01*
X133399500Y-91550001D01*
X133399499Y-91550000D01*
X133899501Y-91550000D01*
X133899500Y-91550001D01*
X133899500Y-91949999D01*
X133899501Y-91950000D01*
X134163518Y-91950000D01*
X134163521Y-91949999D01*
X134289095Y-91925021D01*
X134289101Y-91925019D01*
X134407389Y-91876022D01*
X134513847Y-91804890D01*
X134604390Y-91714347D01*
X134675523Y-91607887D01*
X134699501Y-91550000D01*
X134099228Y-91550000D01*
X134191114Y-91511940D01*
X134261440Y-91441614D01*
X134299500Y-91349728D01*
X134299500Y-91250272D01*
X134261440Y-91158386D01*
X134191114Y-91088060D01*
X134099228Y-91050000D01*
X134699501Y-91050000D01*
X134699500Y-91049999D01*
X134675523Y-90992112D01*
X134604390Y-90885652D01*
X134513847Y-90795109D01*
X134407389Y-90723977D01*
X134289101Y-90674980D01*
X134289095Y-90674978D01*
X134163521Y-90650000D01*
X133899501Y-90650000D01*
X133899500Y-90650001D01*
X133899500Y-91049999D01*
X133899501Y-91050000D01*
X133399499Y-91050000D01*
X133399500Y-91049999D01*
X133399500Y-90650001D01*
X133399499Y-90650000D01*
X133135478Y-90650000D01*
X133009904Y-90674978D01*
X133009898Y-90674980D01*
X132891610Y-90723977D01*
X132785152Y-90795109D01*
X132694609Y-90885652D01*
X132623476Y-90992112D01*
X132599499Y-91049999D01*
X131325500Y-91049999D01*
X131325500Y-90943982D01*
X131296503Y-90835763D01*
X131296501Y-90835760D01*
X131296501Y-90835758D01*
X131240486Y-90738739D01*
X131240485Y-90738737D01*
X131161263Y-90659515D01*
X131156585Y-90656814D01*
X131064240Y-90603498D01*
X131064242Y-90603498D01*
X131022251Y-90592247D01*
X130956018Y-90574500D01*
X130843982Y-90574500D01*
X130777748Y-90592247D01*
X130735758Y-90603498D01*
X130638739Y-90659513D01*
X130559513Y-90738739D01*
X130503498Y-90835758D01*
X130503497Y-90835763D01*
X130474500Y-90943982D01*
X129592973Y-90943982D01*
X129600500Y-90915892D01*
X129600500Y-90784108D01*
X129566392Y-90656814D01*
X129566390Y-90656811D01*
X129566390Y-90656809D01*
X129500503Y-90542690D01*
X129500501Y-90542688D01*
X129500500Y-90542686D01*
X129407314Y-90449500D01*
X129407311Y-90449498D01*
X129407309Y-90449496D01*
X129293189Y-90383609D01*
X129293191Y-90383609D01*
X129243799Y-90370375D01*
X129165892Y-90349500D01*
X129034108Y-90349500D01*
X128956200Y-90370375D01*
X128906809Y-90383609D01*
X128792690Y-90449496D01*
X128792689Y-90449497D01*
X128792686Y-90449499D01*
X128792686Y-90449500D01*
X128720001Y-90522184D01*
X128665487Y-90549960D01*
X128605055Y-90540389D01*
X128579999Y-90522185D01*
X128507314Y-90449500D01*
X128507311Y-90449498D01*
X128507309Y-90449496D01*
X128393189Y-90383609D01*
X128393191Y-90383609D01*
X128343799Y-90370375D01*
X128265892Y-90349500D01*
X128134108Y-90349500D01*
X128056200Y-90370375D01*
X128006809Y-90383609D01*
X127892690Y-90449496D01*
X127799496Y-90542690D01*
X127733609Y-90656809D01*
X127728741Y-90674978D01*
X127699500Y-90784108D01*
X124400500Y-90784108D01*
X124366392Y-90656814D01*
X124366390Y-90656811D01*
X124366390Y-90656809D01*
X124300503Y-90542690D01*
X124300501Y-90542688D01*
X124300500Y-90542686D01*
X124207314Y-90449500D01*
X124207311Y-90449498D01*
X124207309Y-90449496D01*
X124093189Y-90383609D01*
X124093191Y-90383609D01*
X124043799Y-90370375D01*
X123965892Y-90349500D01*
X123834108Y-90349500D01*
X123756200Y-90370375D01*
X123706809Y-90383609D01*
X123592690Y-90449496D01*
X123499496Y-90542690D01*
X123435736Y-90653126D01*
X123390267Y-90694067D01*
X123329416Y-90700463D01*
X123276428Y-90669870D01*
X123264264Y-90653126D01*
X123200503Y-90542690D01*
X123200501Y-90542688D01*
X123200500Y-90542686D01*
X123107314Y-90449500D01*
X123107311Y-90449498D01*
X123107309Y-90449496D01*
X122993189Y-90383609D01*
X122993191Y-90383609D01*
X122943799Y-90370375D01*
X122865892Y-90349500D01*
X122734108Y-90349500D01*
X122727619Y-90349500D01*
X122727619Y-90346765D01*
X122678764Y-90337684D01*
X122636670Y-90293280D01*
X122628715Y-90232614D01*
X122656044Y-90180703D01*
X122675485Y-90161263D01*
X122731503Y-90064237D01*
X122760500Y-89956018D01*
X122760500Y-89943982D01*
X129574500Y-89943982D01*
X129574500Y-90056018D01*
X129600072Y-90151455D01*
X129603498Y-90164241D01*
X129647519Y-90240486D01*
X129659515Y-90261263D01*
X129738737Y-90340485D01*
X129771079Y-90359157D01*
X129835759Y-90396501D01*
X129835757Y-90396501D01*
X129835761Y-90396502D01*
X129835763Y-90396503D01*
X129943982Y-90425500D01*
X129943984Y-90425500D01*
X130056016Y-90425500D01*
X130056018Y-90425500D01*
X130164237Y-90396503D01*
X130164239Y-90396501D01*
X130164241Y-90396501D01*
X130193064Y-90379859D01*
X130261263Y-90340485D01*
X130340485Y-90261263D01*
X130396503Y-90164237D01*
X130425500Y-90056018D01*
X130425500Y-89943982D01*
X130396503Y-89835763D01*
X130396501Y-89835760D01*
X130396501Y-89835758D01*
X130340486Y-89738739D01*
X130340485Y-89738737D01*
X130261263Y-89659515D01*
X130261260Y-89659513D01*
X130164240Y-89603498D01*
X130164242Y-89603498D01*
X130122251Y-89592247D01*
X130056018Y-89574500D01*
X129943982Y-89574500D01*
X129877748Y-89592247D01*
X129835758Y-89603498D01*
X129738739Y-89659513D01*
X129659513Y-89738739D01*
X129603498Y-89835758D01*
X129601294Y-89843983D01*
X129574500Y-89943982D01*
X122760500Y-89943982D01*
X122760500Y-89843982D01*
X122731503Y-89735763D01*
X122731501Y-89735760D01*
X122731501Y-89735758D01*
X122675486Y-89638739D01*
X122675485Y-89638737D01*
X122596263Y-89559515D01*
X122533414Y-89523229D01*
X122533412Y-89523227D01*
X122499240Y-89503498D01*
X122499242Y-89503498D01*
X122457251Y-89492247D01*
X122391018Y-89474500D01*
X122278982Y-89474500D01*
X122212748Y-89492247D01*
X122170758Y-89503498D01*
X122073739Y-89559513D01*
X121994513Y-89638739D01*
X121938498Y-89735758D01*
X121931665Y-89761260D01*
X121909500Y-89843982D01*
X120400000Y-89843982D01*
X120400000Y-89443982D01*
X124774501Y-89443982D01*
X124774501Y-89556018D01*
X124787223Y-89603497D01*
X124803499Y-89664241D01*
X124859514Y-89761260D01*
X124859516Y-89761263D01*
X124938738Y-89840485D01*
X124938740Y-89840486D01*
X125035760Y-89896501D01*
X125035758Y-89896501D01*
X125035762Y-89896502D01*
X125035764Y-89896503D01*
X125143983Y-89925500D01*
X125143985Y-89925500D01*
X125256017Y-89925500D01*
X125256019Y-89925500D01*
X125364238Y-89896503D01*
X125364240Y-89896501D01*
X125364242Y-89896501D01*
X125398749Y-89876577D01*
X125461264Y-89840485D01*
X125540486Y-89761263D01*
X125596504Y-89664237D01*
X125625501Y-89556018D01*
X125625501Y-89546581D01*
X125644408Y-89488390D01*
X125693908Y-89452426D01*
X125755094Y-89452426D01*
X125774000Y-89460844D01*
X125835763Y-89496503D01*
X125943982Y-89525500D01*
X125943984Y-89525500D01*
X126056016Y-89525500D01*
X126056018Y-89525500D01*
X126164237Y-89496503D01*
X126164239Y-89496501D01*
X126164241Y-89496501D01*
X126225998Y-89460845D01*
X126261263Y-89440485D01*
X126340485Y-89361263D01*
X126396503Y-89264237D01*
X126425500Y-89156018D01*
X126425500Y-89043982D01*
X126396503Y-88935763D01*
X126396501Y-88935760D01*
X126396501Y-88935758D01*
X126340486Y-88838739D01*
X126340485Y-88838737D01*
X126261263Y-88759515D01*
X126261260Y-88759513D01*
X126164240Y-88703498D01*
X126164242Y-88703498D01*
X126122251Y-88692247D01*
X126056018Y-88674500D01*
X125943982Y-88674500D01*
X125877748Y-88692247D01*
X125835758Y-88703498D01*
X125738739Y-88759513D01*
X125659513Y-88838739D01*
X125603498Y-88935758D01*
X125574500Y-89043983D01*
X125574500Y-89053418D01*
X125555593Y-89111609D01*
X125506093Y-89147573D01*
X125444907Y-89147573D01*
X125426000Y-89139155D01*
X125364239Y-89103497D01*
X125328165Y-89093831D01*
X125256019Y-89074500D01*
X125143983Y-89074500D01*
X125077749Y-89092247D01*
X125035759Y-89103498D01*
X124938740Y-89159513D01*
X124859514Y-89238739D01*
X124803499Y-89335758D01*
X124803498Y-89335763D01*
X124774501Y-89443982D01*
X120400000Y-89443982D01*
X120400000Y-88012333D01*
X120400939Y-88009442D01*
X120400172Y-88006503D01*
X120410309Y-87980603D01*
X120418907Y-87954142D01*
X120422464Y-87949537D01*
X120428484Y-87942202D01*
X120442201Y-87928485D01*
X120548294Y-87841417D01*
X120564413Y-87830647D01*
X120685451Y-87765951D01*
X120703368Y-87758529D01*
X120834699Y-87718690D01*
X120853726Y-87714906D01*
X120951943Y-87705233D01*
X120995158Y-87700977D01*
X121004861Y-87700500D01*
X121039882Y-87700500D01*
X134960118Y-87700500D01*
X134995139Y-87700500D01*
X135004842Y-87700977D01*
G37*
%TD.AperFunction*%
%TD*%
M02*
