%TF.GenerationSoftware,KiCad,Pcbnew,9.0.7*%
%TF.CreationDate,2026-02-06T02:12:02+00:00*%
%TF.ProjectId,WSB-PC,5753422d-5043-42e6-9b69-6361645f7063,rev?*%
%TF.SameCoordinates,Original*%
%TF.FileFunction,Soldermask,Top*%
%TF.FilePolarity,Negative*%
%FSLAX46Y46*%
G04 Gerber Fmt 4.6, Leading zero omitted, Abs format (unit mm)*
G04 Created by KiCad (PCBNEW 9.0.7) date 2026-02-06 02:12:02*
%MOMM*%
%LPD*%
G01*
G04 APERTURE LIST*
G04 Aperture macros list*
%AMOutline5P*
0 Free polygon, 5 corners , with rotation*
0 The origin of the aperture is its center*
0 number of corners: always 5*
0 $1 to $10 corner X, Y*
0 $11 Rotation angle, in degrees counterclockwise*
0 create outline with 5 corners*
4,1,5,$1,$2,$3,$4,$5,$6,$7,$8,$9,$10,$1,$2,$11*%
%AMOutline6P*
0 Free polygon, 6 corners , with rotation*
0 The origin of the aperture is its center*
0 number of corners: always 6*
0 $1 to $12 corner X, Y*
0 $13 Rotation angle, in degrees counterclockwise*
0 create outline with 6 corners*
4,1,6,$1,$2,$3,$4,$5,$6,$7,$8,$9,$10,$11,$12,$1,$2,$13*%
%AMOutline7P*
0 Free polygon, 7 corners , with rotation*
0 The origin of the aperture is its center*
0 number of corners: always 7*
0 $1 to $14 corner X, Y*
0 $15 Rotation angle, in degrees counterclockwise*
0 create outline with 7 corners*
4,1,7,$1,$2,$3,$4,$5,$6,$7,$8,$9,$10,$11,$12,$13,$14,$1,$2,$15*%
%AMOutline8P*
0 Free polygon, 8 corners , with rotation*
0 The origin of the aperture is its center*
0 number of corners: always 8*
0 $1 to $16 corner X, Y*
0 $17 Rotation angle, in degrees counterclockwise*
0 create outline with 8 corners*
4,1,8,$1,$2,$3,$4,$5,$6,$7,$8,$9,$10,$11,$12,$13,$14,$15,$16,$1,$2,$17*%
G04 Aperture macros list end*
%ADD10R,0.400000X0.800000*%
%ADD11R,0.800000X0.400000*%
%ADD12Outline5P,-0.725000X0.130500X-0.130500X0.725000X0.725000X0.725000X0.725000X-0.725000X-0.725000X-0.725000X90.000000*%
%ADD13R,1.450000X1.450000*%
%ADD14R,0.700000X0.700000*%
%ADD15R,0.800000X0.300000*%
%ADD16O,1.800000X0.900000*%
G04 APERTURE END LIST*
D10*
%TO.C,U2*%
X122000000Y-100900000D03*
X122800000Y-100900000D03*
X123600000Y-100900000D03*
X124400000Y-100900000D03*
X125200001Y-100900000D03*
X126000000Y-100900000D03*
X126799999Y-100900000D03*
X127600000Y-100900000D03*
X128400000Y-100900000D03*
X129200000Y-100900000D03*
X130000000Y-100900000D03*
D11*
X130900000Y-99800000D03*
X130900000Y-99000000D03*
X130900000Y-98200000D03*
X130900000Y-97400000D03*
X130900000Y-96600000D03*
X130900000Y-95800000D03*
X130900000Y-95000000D03*
X130900000Y-94200000D03*
X130900000Y-93400000D03*
X130900000Y-92600000D03*
X130900000Y-91800000D03*
X130900000Y-91000000D03*
X130900000Y-90200000D03*
D10*
X130000000Y-89100000D03*
X129200000Y-89100000D03*
X128400000Y-89100000D03*
X127600000Y-89100000D03*
X126799999Y-89100000D03*
X126000000Y-89100000D03*
X125200001Y-89100000D03*
X124400000Y-89100000D03*
X123600000Y-89100000D03*
X122800000Y-89100000D03*
X122000000Y-89100000D03*
D11*
X121100000Y-90200000D03*
X121100000Y-91000000D03*
X121100000Y-91800000D03*
X121100000Y-92600000D03*
X121100000Y-93400000D03*
X121100000Y-94200000D03*
X121100000Y-95000000D03*
X121100000Y-95800000D03*
X121100000Y-96600000D03*
X121100000Y-97400000D03*
X121100000Y-98200000D03*
X121100000Y-99000000D03*
X121100000Y-99800000D03*
D12*
X124025000Y-96975000D03*
D13*
X126000000Y-96975000D03*
X127975000Y-96975000D03*
X124025000Y-95000000D03*
X126000000Y-95000000D03*
X127975000Y-95000000D03*
X124025000Y-93025000D03*
X126000000Y-93025000D03*
X127975000Y-93025000D03*
D14*
X121050000Y-89050000D03*
X130950000Y-89050000D03*
X130950000Y-100950000D03*
X121050000Y-100950000D03*
%TD*%
D15*
%TO.C,P1*%
X133850000Y-92125000D03*
X133850000Y-92625000D03*
X133850000Y-93125000D03*
X133850000Y-93625000D03*
X133850000Y-94125000D03*
X133850000Y-94625000D03*
X133850000Y-95125000D03*
X133850000Y-95625000D03*
X133850000Y-96125000D03*
X133850000Y-96625000D03*
X133850000Y-97125000D03*
X133850000Y-97625000D03*
X135350000Y-97875000D03*
X135349500Y-97375000D03*
X135349500Y-96875000D03*
X135349500Y-96375000D03*
X135349500Y-95875000D03*
X135349500Y-95375000D03*
X135349500Y-94875000D03*
X135349500Y-94375000D03*
X135349500Y-93875000D03*
X135349500Y-93375000D03*
X135349500Y-92875000D03*
X135349500Y-92375000D03*
D16*
X133649000Y-98700000D03*
X133649500Y-91300000D03*
%TD*%
M02*
