%TF.GenerationSoftware,KiCad,Pcbnew,9.0.7*%
%TF.CreationDate,2026-02-06T02:11:59+00:00*%
%TF.ProjectId,WSB-PC,5753422d-5043-42e6-9b69-6361645f7063,rev?*%
%TF.SameCoordinates,Original*%
%TF.FileFunction,Copper,L1,Top*%
%TF.FilePolarity,Positive*%
%FSLAX46Y46*%
G04 Gerber Fmt 4.6, Leading zero omitted, Abs format (unit mm)*
G04 Created by KiCad (PCBNEW 9.0.7) date 2026-02-06 02:11:59*
%MOMM*%
%LPD*%
G01*
G04 APERTURE LIST*
G04 Aperture macros list*
%AMOutline5P*
0 Free polygon, 5 corners , with rotation*
0 The origin of the aperture is its center*
0 number of corners: always 5*
0 $1 to $10 corner X, Y*
0 $11 Rotation angle, in degrees counterclockwise*
0 create outline with 5 corners*
4,1,5,$1,$2,$3,$4,$5,$6,$7,$8,$9,$10,$1,$2,$11*%
%AMOutline6P*
0 Free polygon, 6 corners , with rotation*
0 The origin of the aperture is its center*
0 number of corners: always 6*
0 $1 to $12 corner X, Y*
0 $13 Rotation angle, in degrees counterclockwise*
0 create outline with 6 corners*
4,1,6,$1,$2,$3,$4,$5,$6,$7,$8,$9,$10,$11,$12,$1,$2,$13*%
%AMOutline7P*
0 Free polygon, 7 corners , with rotation*
0 The origin of the aperture is its center*
0 number of corners: always 7*
0 $1 to $14 corner X, Y*
0 $15 Rotation angle, in degrees counterclockwise*
0 create outline with 7 corners*
4,1,7,$1,$2,$3,$4,$5,$6,$7,$8,$9,$10,$11,$12,$13,$14,$1,$2,$15*%
%AMOutline8P*
0 Free polygon, 8 corners , with rotation*
0 The origin of the aperture is its center*
0 number of corners: always 8*
0 $1 to $16 corner X, Y*
0 $17 Rotation angle, in degrees counterclockwise*
0 create outline with 8 corners*
4,1,8,$1,$2,$3,$4,$5,$6,$7,$8,$9,$10,$11,$12,$13,$14,$15,$16,$1,$2,$17*%
G04 Aperture macros list end*
%TA.AperFunction,SMDPad,CuDef*%
%ADD10R,0.400000X0.800000*%
%TD*%
%TA.AperFunction,SMDPad,CuDef*%
%ADD11R,0.800000X0.400000*%
%TD*%
%TA.AperFunction,HeatsinkPad*%
%ADD12Outline5P,-0.725000X0.130500X-0.130500X0.725000X0.725000X0.725000X0.725000X-0.725000X-0.725000X-0.725000X90.000000*%
%TD*%
%TA.AperFunction,HeatsinkPad*%
%ADD13R,1.450000X1.450000*%
%TD*%
%TA.AperFunction,SMDPad,CuDef*%
%ADD14R,0.700000X0.700000*%
%TD*%
%TA.AperFunction,SMDPad,CuDef*%
%ADD15R,0.800000X0.300000*%
%TD*%
%TA.AperFunction,ComponentPad*%
%ADD16O,1.800000X0.900000*%
%TD*%
%TA.AperFunction,ViaPad*%
%ADD17C,0.450000*%
%TD*%
%TA.AperFunction,ViaPad*%
%ADD18C,0.600000*%
%TD*%
%TA.AperFunction,Conductor*%
%ADD19C,0.150000*%
%TD*%
%TA.AperFunction,Conductor*%
%ADD20C,0.300000*%
%TD*%
%TA.AperFunction,Conductor*%
%ADD21C,0.180600*%
%TD*%
G04 APERTURE END LIST*
D10*
%TO.P,U2,1,GND*%
%TO.N,GND*%
X122000000Y-100900000D03*
%TO.P,U2,2,GND*%
X122800000Y-100900000D03*
%TO.P,U2,3,3V3*%
%TO.N,+3V3*%
X123600000Y-100900000D03*
%TO.P,U2,4,NC*%
%TO.N,unconnected-(U2-NC-Pad4)*%
X124400000Y-100900000D03*
%TO.P,U2,5,IO2*%
%TO.N,unconnected-(U2-IO2-Pad5)*%
X125200001Y-100900000D03*
%TO.P,U2,6,IO3*%
%TO.N,/GPIO3*%
X126000000Y-100900000D03*
%TO.P,U2,7,NC*%
%TO.N,unconnected-(U2-NC-Pad7)*%
X126799999Y-100900000D03*
%TO.P,U2,8,EN*%
%TO.N,/EN*%
X127600000Y-100900000D03*
%TO.P,U2,9,IO4*%
%TO.N,unconnected-(U2-IO4-Pad9)*%
X128400000Y-100900000D03*
%TO.P,U2,10,IO5*%
%TO.N,unconnected-(U2-IO5-Pad10)*%
X129200000Y-100900000D03*
%TO.P,U2,11,GND*%
%TO.N,GND*%
X130000000Y-100900000D03*
D11*
%TO.P,U2,12,IO0*%
%TO.N,unconnected-(U2-IO0-Pad12)*%
X130900000Y-99800000D03*
%TO.P,U2,13,IO1*%
%TO.N,unconnected-(U2-IO1-Pad13)*%
X130900000Y-99000000D03*
%TO.P,U2,14,GND*%
%TO.N,GND*%
X130900000Y-98200000D03*
%TO.P,U2,15,IO6*%
%TO.N,unconnected-(U2-IO6-Pad15)*%
X130900000Y-97400000D03*
%TO.P,U2,16,IO7*%
%TO.N,unconnected-(U2-IO7-Pad16)*%
X130900000Y-96600000D03*
%TO.P,U2,17,IO12*%
%TO.N,/MCU_D-*%
X130900000Y-95800000D03*
%TO.P,U2,18,IO13*%
%TO.N,/MCU_D+*%
X130900000Y-95000000D03*
%TO.P,U2,19,IO14*%
%TO.N,unconnected-(U2-IO14-Pad19)*%
X130900000Y-94200000D03*
%TO.P,U2,20,IO15*%
%TO.N,unconnected-(U2-IO15-Pad20)*%
X130900000Y-93400000D03*
%TO.P,U2,21,NC*%
%TO.N,unconnected-(U2-NC-Pad21)*%
X130900000Y-92600000D03*
%TO.P,U2,22,IO8*%
%TO.N,unconnected-(U2-IO8-Pad22)*%
X130900000Y-91800000D03*
%TO.P,U2,23,IO9*%
%TO.N,/GPIO9*%
X130900000Y-91000000D03*
%TO.P,U2,24,IO18*%
%TO.N,unconnected-(U2-IO18-Pad24)*%
X130900000Y-90200000D03*
D10*
%TO.P,U2,25,IO19*%
%TO.N,unconnected-(U2-IO19-Pad25)*%
X130000000Y-89100000D03*
%TO.P,U2,26,IO20*%
%TO.N,unconnected-(U2-IO20-Pad26)*%
X129200000Y-89100000D03*
%TO.P,U2,27,IO21*%
%TO.N,unconnected-(U2-IO21-Pad27)*%
X128400000Y-89100000D03*
%TO.P,U2,28,IO22*%
%TO.N,unconnected-(U2-IO22-Pad28)*%
X127600000Y-89100000D03*
%TO.P,U2,29,IO23*%
%TO.N,unconnected-(U2-IO23-Pad29)*%
X126799999Y-89100000D03*
%TO.P,U2,30,RXD0*%
%TO.N,/ESP_U0_RX*%
X126000000Y-89100000D03*
%TO.P,U2,31,TXD0*%
%TO.N,/ESP_U0_TX*%
X125200001Y-89100000D03*
%TO.P,U2,32,NC*%
%TO.N,unconnected-(U2-NC-Pad32)*%
X124400000Y-89100000D03*
%TO.P,U2,33,NC*%
%TO.N,unconnected-(U2-NC-Pad33)*%
X123600000Y-89100000D03*
%TO.P,U2,34,NC*%
%TO.N,unconnected-(U2-NC-Pad34)*%
X122800000Y-89100000D03*
%TO.P,U2,35,NC*%
%TO.N,unconnected-(U2-NC-Pad35)*%
X122000000Y-89100000D03*
D11*
%TO.P,U2,36,GND*%
%TO.N,GND*%
X121100000Y-90200000D03*
%TO.P,U2,37,GND*%
X121100000Y-91000000D03*
%TO.P,U2,38,GND*%
X121100000Y-91800000D03*
%TO.P,U2,39,GND*%
X121100000Y-92600000D03*
%TO.P,U2,40,GND*%
X121100000Y-93400000D03*
%TO.P,U2,41,GND*%
X121100000Y-94200000D03*
%TO.P,U2,42,GND*%
X121100000Y-95000000D03*
%TO.P,U2,43,GND*%
X121100000Y-95800000D03*
%TO.P,U2,44,GND*%
X121100000Y-96600000D03*
%TO.P,U2,45,GND*%
X121100000Y-97400000D03*
%TO.P,U2,46,GND*%
X121100000Y-98200000D03*
%TO.P,U2,47,GND*%
X121100000Y-99000000D03*
%TO.P,U2,48,GND*%
X121100000Y-99800000D03*
D12*
%TO.P,U2,49,GND*%
X124025000Y-96975000D03*
D13*
X126000000Y-96975000D03*
X127975000Y-96975000D03*
X124025000Y-95000000D03*
X126000000Y-95000000D03*
X127975000Y-95000000D03*
X124025000Y-93025000D03*
X126000000Y-93025000D03*
X127975000Y-93025000D03*
D14*
%TO.P,U2,50,GND*%
X121050000Y-89050000D03*
%TO.P,U2,51,GND*%
X130950000Y-89050000D03*
%TO.P,U2,52,GND*%
X130950000Y-100950000D03*
%TO.P,U2,53,GND*%
X121050000Y-100950000D03*
%TD*%
D15*
%TO.P,P1,A1,GND*%
%TO.N,GND*%
X133850000Y-92125000D03*
%TO.P,P1,A2,TX1+*%
%TO.N,unconnected-(P1-TX1+-PadA2)*%
X133850000Y-92625000D03*
%TO.P,P1,A3,TX1-*%
%TO.N,unconnected-(P1-TX1--PadA3)*%
X133850000Y-93125000D03*
%TO.P,P1,A4,VBUS*%
%TO.N,+5V*%
X133850000Y-93625000D03*
%TO.P,P1,A5,CC1*%
%TO.N,Net-(P1-CC1)*%
X133850000Y-94125000D03*
%TO.P,P1,A6,D+*%
%TO.N,/USB_D+*%
X133850000Y-94625000D03*
%TO.P,P1,A7,D-*%
%TO.N,/USB_D-*%
X133850000Y-95125000D03*
%TO.P,P1,A8,SBU1*%
%TO.N,unconnected-(P1-SBU1-PadA8)*%
X133850000Y-95625000D03*
%TO.P,P1,A9,VBUS*%
%TO.N,+5V*%
X133850000Y-96125000D03*
%TO.P,P1,A10,RX2-*%
%TO.N,unconnected-(P1-RX2--PadA10)*%
X133850000Y-96625000D03*
%TO.P,P1,A11,RX2+*%
%TO.N,unconnected-(P1-RX2+-PadA11)*%
X133850000Y-97125000D03*
%TO.P,P1,A12,GND*%
%TO.N,GND*%
X133850000Y-97625000D03*
%TO.P,P1,B1,GND*%
X135350000Y-97875000D03*
%TO.P,P1,B2,TX2+*%
%TO.N,unconnected-(P1-TX2+-PadB2)*%
X135349500Y-97375000D03*
%TO.P,P1,B3,TX2-*%
%TO.N,unconnected-(P1-TX2--PadB3)*%
X135349500Y-96875000D03*
%TO.P,P1,B4,VBUS*%
%TO.N,+5V*%
X135349500Y-96375000D03*
%TO.P,P1,B5,CC2*%
%TO.N,Net-(P1-CC2)*%
X135349500Y-95875000D03*
%TO.P,P1,B6,D+*%
%TO.N,/USB_D+*%
X135349500Y-95375000D03*
%TO.P,P1,B7,D-*%
%TO.N,/USB_D-*%
X135349500Y-94875000D03*
%TO.P,P1,B8,SBU2*%
%TO.N,unconnected-(P1-SBU2-PadB8)*%
X135349500Y-94375000D03*
%TO.P,P1,B9,VBUS*%
%TO.N,+5V*%
X135349500Y-93875000D03*
%TO.P,P1,B10,RX1-*%
%TO.N,unconnected-(P1-RX1--PadB10)*%
X135349500Y-93375000D03*
%TO.P,P1,B11,RX1+*%
%TO.N,unconnected-(P1-RX1+-PadB11)*%
X135349500Y-92875000D03*
%TO.P,P1,B12,GND*%
%TO.N,GND*%
X135349500Y-92375000D03*
D16*
%TO.P,P1,S1,SHIELD*%
X133649000Y-98700000D03*
X133649500Y-91300000D03*
%TD*%
D17*
%TO.N,/ESP_U0_RX*%
X126000000Y-89100000D03*
%TO.N,/ESP_U0_TX*%
X125200001Y-89500000D03*
%TO.N,+3V3*%
X122100000Y-93400000D03*
%TO.N,+5V*%
X122100000Y-96300000D03*
%TO.N,/GPIO3*%
X126000000Y-100900000D03*
%TO.N,GND*%
X132100000Y-98200000D03*
D18*
X133900000Y-100300000D03*
X133800000Y-89700000D03*
X135100000Y-101500000D03*
X135100000Y-88400000D03*
D17*
X121100000Y-92600000D03*
X121100000Y-91000000D03*
X121100000Y-95000000D03*
X121100000Y-98200000D03*
X121100000Y-96600000D03*
X121100000Y-94200000D03*
X121050000Y-100950000D03*
X121050000Y-89050000D03*
X133850000Y-92125000D03*
X133850000Y-97625000D03*
X124760000Y-100100000D03*
D18*
X126400000Y-98800000D03*
%TO.N,+3V3*%
X124800000Y-98800000D03*
D17*
%TO.N,+5V*%
X122380000Y-97790000D03*
%TO.N,/GPIO3*%
X123700000Y-99150000D03*
%TO.N,+3V3*%
X123600000Y-100900000D03*
X123800000Y-100100000D03*
%TO.N,GND*%
X122200000Y-100100000D03*
%TO.N,/GPIO9*%
X130900000Y-91000000D03*
%TO.N,/EN*%
X127600000Y-100000000D03*
%TO.N,+5V*%
X131800000Y-99900000D03*
X122800000Y-100100000D03*
X130000000Y-90000000D03*
X122335000Y-89900000D03*
D18*
X129100000Y-90850000D03*
X128200000Y-90850000D03*
%TO.N,+3V3*%
X122800000Y-90850000D03*
D17*
X128300000Y-98700000D03*
D18*
X123900000Y-90850000D03*
%TO.N,GND*%
X128000000Y-97000000D03*
X124000000Y-93000000D03*
X128000000Y-93000000D03*
X124000000Y-97000000D03*
D17*
X135350000Y-97875000D03*
X135349500Y-92375000D03*
X131805000Y-100700000D03*
X132300000Y-97220000D03*
X132300000Y-92580000D03*
X131700000Y-89700000D03*
X123000000Y-89900000D03*
X126200000Y-91500000D03*
X128200000Y-91810000D03*
X122900000Y-95000000D03*
X123020000Y-97800000D03*
X129500000Y-98960000D03*
D18*
X132250000Y-88125000D03*
X124250000Y-88125000D03*
X129250000Y-101875000D03*
X121250000Y-101875000D03*
D17*
%TO.N,Net-(P1-CC1)*%
X133100000Y-94000000D03*
%TO.N,Net-(P1-CC2)*%
X135349500Y-95875000D03*
%TO.N,+5V*%
X133850000Y-93625000D03*
X133850000Y-96125000D03*
%TO.N,/USB_D-*%
X133850000Y-95125000D03*
X135349500Y-94875000D03*
%TO.N,/USB_D+*%
X133100000Y-94600000D03*
%TO.N,/MCU_D-*%
X129373726Y-95800000D03*
%TO.N,/MCU_D+*%
X129173726Y-95000000D03*
%TD*%
D19*
%TO.N,/GPIO3*%
X123700000Y-99150000D02*
X123950000Y-99150000D01*
X123950000Y-99150000D02*
X124300000Y-99500000D01*
X124300000Y-99500000D02*
X125200000Y-99500000D01*
X125200000Y-99500000D02*
X126000000Y-100300000D01*
X126000000Y-100300000D02*
X126000000Y-100900000D01*
%TO.N,GND*%
X133850000Y-97625000D02*
X133850000Y-98499000D01*
X133850000Y-98499000D02*
X133649000Y-98700000D01*
X133850000Y-92125000D02*
X133850000Y-91500500D01*
X133850000Y-91500500D02*
X133649500Y-91300000D01*
%TO.N,/EN*%
X127600000Y-100900000D02*
X127600000Y-100000000D01*
%TO.N,Net-(P1-CC1)*%
X133225000Y-94125000D02*
X133100000Y-94000000D01*
X133850000Y-94125000D02*
X133225000Y-94125000D01*
D20*
%TO.N,+5V*%
X134399500Y-96125000D02*
X133850000Y-96125000D01*
X134649500Y-93875000D02*
X134399500Y-93625000D01*
X134649500Y-96375000D02*
X134399500Y-96125000D01*
X135349500Y-96375000D02*
X134649500Y-96375000D01*
X134399500Y-93625000D02*
X133850000Y-93625000D01*
X135349500Y-93875000D02*
X134649500Y-93875000D01*
D21*
%TO.N,/USB_D+*%
X133850000Y-94625000D02*
X133125000Y-94625000D01*
X134600000Y-95150000D02*
X134600000Y-94850000D01*
X135349500Y-95375000D02*
X134825000Y-95375000D01*
X134375000Y-94625000D02*
X133850000Y-94625000D01*
X134600000Y-94850000D02*
X134375000Y-94625000D01*
X134825000Y-95375000D02*
X134600000Y-95150000D01*
X133125000Y-94625000D02*
X133100000Y-94600000D01*
%TO.N,/MCU_D-*%
X129373726Y-95800000D02*
X130900000Y-95800000D01*
%TO.N,/MCU_D+*%
X129173726Y-95000000D02*
X130900000Y-95000000D01*
%TD*%
%TA.AperFunction,Conductor*%
%TO.N,GND*%
G36*
X125103068Y-99794407D02*
G01*
X125114881Y-99804496D01*
X125440881Y-100130496D01*
X125468658Y-100185013D01*
X125459087Y-100245445D01*
X125415822Y-100288710D01*
X125370877Y-100299500D01*
X124980253Y-100299500D01*
X124980252Y-100299500D01*
X124980242Y-100299501D01*
X124921773Y-100311132D01*
X124921767Y-100311134D01*
X124855002Y-100355746D01*
X124796113Y-100372355D01*
X124744998Y-100355746D01*
X124678233Y-100311134D01*
X124678231Y-100311133D01*
X124678228Y-100311132D01*
X124678227Y-100311132D01*
X124619758Y-100299501D01*
X124619748Y-100299500D01*
X124619747Y-100299500D01*
X124504422Y-100299500D01*
X124446231Y-100280593D01*
X124410267Y-100231093D01*
X124406404Y-100199410D01*
X124405500Y-100199410D01*
X124405500Y-99924005D01*
X124405500Y-99924000D01*
X124401315Y-99885081D01*
X124413893Y-99825205D01*
X124459265Y-99784156D01*
X124499748Y-99775500D01*
X125044877Y-99775500D01*
X125103068Y-99794407D01*
G37*
%TD.AperFunction*%
%TA.AperFunction,Conductor*%
G36*
X135004842Y-87700977D02*
G01*
X135064184Y-87706821D01*
X135146271Y-87714906D01*
X135165302Y-87718691D01*
X135296628Y-87758528D01*
X135314551Y-87765953D01*
X135435581Y-87830645D01*
X135451710Y-87841421D01*
X135527196Y-87903371D01*
X135557794Y-87928482D01*
X135571517Y-87942205D01*
X135600000Y-87976911D01*
X135651092Y-88039168D01*
X135658575Y-88048285D01*
X135669357Y-88064422D01*
X135734045Y-88185445D01*
X135741472Y-88203375D01*
X135781307Y-88334694D01*
X135785093Y-88353728D01*
X135799023Y-88495156D01*
X135799500Y-88504860D01*
X135799500Y-91926000D01*
X135780593Y-91984191D01*
X135731093Y-92020155D01*
X135700500Y-92025000D01*
X135499501Y-92025000D01*
X135499500Y-92025001D01*
X135499500Y-92276000D01*
X135480593Y-92334191D01*
X135431093Y-92370155D01*
X135400500Y-92375000D01*
X135349501Y-92375000D01*
X135349500Y-92375001D01*
X135349500Y-92425500D01*
X135330593Y-92483691D01*
X135281093Y-92519655D01*
X135250500Y-92524500D01*
X134929752Y-92524500D01*
X134929748Y-92524500D01*
X134929512Y-92524524D01*
X134919811Y-92525000D01*
X134749501Y-92525000D01*
X134749500Y-92525001D01*
X134749500Y-92544700D01*
X134761376Y-92604404D01*
X134761376Y-92643032D01*
X134749000Y-92705248D01*
X134749000Y-93044751D01*
X134761121Y-93105686D01*
X134762412Y-93135986D01*
X134761323Y-93145735D01*
X134760633Y-93146769D01*
X134749000Y-93205252D01*
X134749000Y-93256101D01*
X134748389Y-93261574D01*
X134737926Y-93284668D01*
X134730093Y-93308779D01*
X134725488Y-93312124D01*
X134723141Y-93317307D01*
X134701107Y-93329838D01*
X134680593Y-93344743D01*
X134674901Y-93344743D01*
X134669955Y-93347556D01*
X134644764Y-93344743D01*
X134619407Y-93344743D01*
X134610918Y-93340963D01*
X134609148Y-93340766D01*
X134607883Y-93339612D01*
X134600500Y-93336325D01*
X134534788Y-93298386D01*
X134534785Y-93298385D01*
X134534783Y-93298384D01*
X134523872Y-93295460D01*
X134472560Y-93262134D01*
X134450635Y-93205011D01*
X134450500Y-93199835D01*
X134450500Y-92955253D01*
X134450498Y-92955241D01*
X134438379Y-92894315D01*
X134438379Y-92855685D01*
X134450498Y-92794758D01*
X134450500Y-92794746D01*
X134450500Y-92455253D01*
X134450500Y-92455252D01*
X134438867Y-92396769D01*
X134438865Y-92396767D01*
X134438123Y-92393033D01*
X134436859Y-92384943D01*
X134424312Y-92275000D01*
X134279689Y-92275000D01*
X134269988Y-92274524D01*
X134269751Y-92274500D01*
X134269748Y-92274500D01*
X133430252Y-92274500D01*
X133430248Y-92274500D01*
X133430012Y-92274524D01*
X133420311Y-92275000D01*
X133250001Y-92275000D01*
X133250000Y-92275001D01*
X133250000Y-92294700D01*
X133261876Y-92354404D01*
X133261876Y-92393032D01*
X133249500Y-92455248D01*
X133249500Y-92794751D01*
X133261621Y-92855686D01*
X133261621Y-92894314D01*
X133249500Y-92955248D01*
X133249500Y-93294751D01*
X133261621Y-93355686D01*
X133262573Y-93388681D01*
X133261526Y-93396179D01*
X133261133Y-93396769D01*
X133249500Y-93455252D01*
X133249500Y-93482372D01*
X133248550Y-93489181D01*
X133238026Y-93510811D01*
X133230593Y-93533691D01*
X133224874Y-93537845D01*
X133221783Y-93544201D01*
X133200554Y-93555515D01*
X133181093Y-93569655D01*
X133171036Y-93571247D01*
X133167788Y-93572979D01*
X133163703Y-93572409D01*
X133150500Y-93574500D01*
X133043982Y-93574500D01*
X132977748Y-93592247D01*
X132935758Y-93603498D01*
X132838739Y-93659513D01*
X132759513Y-93738739D01*
X132703498Y-93835758D01*
X132698222Y-93855448D01*
X132674500Y-93943982D01*
X132674500Y-94056018D01*
X132693831Y-94128164D01*
X132703497Y-94164238D01*
X132753301Y-94250500D01*
X132766022Y-94310348D01*
X132753301Y-94349500D01*
X132703497Y-94435761D01*
X132692170Y-94478036D01*
X132674500Y-94543982D01*
X132674500Y-94656018D01*
X132676959Y-94665195D01*
X132703498Y-94764241D01*
X132759513Y-94861260D01*
X132759515Y-94861263D01*
X132838737Y-94940485D01*
X132838739Y-94940486D01*
X132935759Y-94996501D01*
X132935757Y-94996501D01*
X132935761Y-94996502D01*
X132935763Y-94996503D01*
X133043982Y-95025500D01*
X133043984Y-95025500D01*
X133150500Y-95025500D01*
X133208691Y-95044407D01*
X133244655Y-95093907D01*
X133249500Y-95124500D01*
X133249500Y-95294751D01*
X133261621Y-95355686D01*
X133261621Y-95394314D01*
X133249500Y-95455248D01*
X133249500Y-95794751D01*
X133261621Y-95855686D01*
X133261621Y-95894314D01*
X133249500Y-95955248D01*
X133249500Y-96294751D01*
X133261621Y-96355686D01*
X133261621Y-96394314D01*
X133249500Y-96455248D01*
X133249500Y-96794751D01*
X133261621Y-96855686D01*
X133261621Y-96894314D01*
X133249500Y-96955248D01*
X133249500Y-97294750D01*
X133261876Y-97356966D01*
X133261876Y-97395593D01*
X133250000Y-97455297D01*
X133250000Y-97474999D01*
X133250001Y-97475000D01*
X133420311Y-97475000D01*
X133430012Y-97475476D01*
X133430248Y-97475499D01*
X133430252Y-97475500D01*
X133430256Y-97475500D01*
X134269744Y-97475500D01*
X134269748Y-97475500D01*
X134269751Y-97475499D01*
X134269988Y-97475476D01*
X134279689Y-97475000D01*
X134449999Y-97475000D01*
X134450000Y-97474999D01*
X134450000Y-97455302D01*
X134449999Y-97455299D01*
X134438123Y-97395593D01*
X134438124Y-97356963D01*
X134438866Y-97353232D01*
X134438867Y-97353231D01*
X134450500Y-97294748D01*
X134450500Y-96955252D01*
X134448460Y-96944998D01*
X134438379Y-96894315D01*
X134438378Y-96855686D01*
X134438866Y-96853232D01*
X134438867Y-96853231D01*
X134450500Y-96794748D01*
X134450500Y-96794744D01*
X134450690Y-96793789D01*
X134480587Y-96740405D01*
X134536152Y-96714789D01*
X134573409Y-96717475D01*
X134603356Y-96725500D01*
X134650000Y-96725500D01*
X134708191Y-96744407D01*
X134744155Y-96793907D01*
X134749000Y-96824500D01*
X134749000Y-97044751D01*
X134761121Y-97105686D01*
X134761121Y-97144314D01*
X134749000Y-97205248D01*
X134749000Y-97205252D01*
X134749000Y-97544748D01*
X134759990Y-97600000D01*
X134761626Y-97608221D01*
X134761626Y-97646849D01*
X134750000Y-97705297D01*
X134750000Y-97724999D01*
X134750001Y-97725000D01*
X134919811Y-97725000D01*
X134929512Y-97725476D01*
X134929748Y-97725499D01*
X134929752Y-97725500D01*
X134929756Y-97725500D01*
X135251000Y-97725500D01*
X135309191Y-97744407D01*
X135345155Y-97793907D01*
X135350000Y-97824500D01*
X135350000Y-97874999D01*
X135350001Y-97875000D01*
X135401000Y-97875000D01*
X135459191Y-97893907D01*
X135495155Y-97943407D01*
X135500000Y-97974000D01*
X135500000Y-98224999D01*
X135500001Y-98225000D01*
X135700500Y-98225000D01*
X135758691Y-98243907D01*
X135794655Y-98293407D01*
X135799500Y-98324000D01*
X135799500Y-101495139D01*
X135799023Y-101504843D01*
X135785093Y-101646271D01*
X135781307Y-101665305D01*
X135741472Y-101796624D01*
X135734045Y-101814554D01*
X135669357Y-101935577D01*
X135658575Y-101951714D01*
X135571517Y-102057794D01*
X135557794Y-102071517D01*
X135451714Y-102158575D01*
X135435577Y-102169357D01*
X135314554Y-102234045D01*
X135296624Y-102241472D01*
X135165305Y-102281307D01*
X135146271Y-102285093D01*
X135004843Y-102299023D01*
X134995139Y-102299500D01*
X121004861Y-102299500D01*
X120995157Y-102299023D01*
X120853728Y-102285093D01*
X120834694Y-102281307D01*
X120703375Y-102241472D01*
X120685445Y-102234045D01*
X120564422Y-102169357D01*
X120548287Y-102158576D01*
X120442206Y-102071518D01*
X120428481Y-102057792D01*
X120422470Y-102050467D01*
X120400171Y-101993489D01*
X120400000Y-101987665D01*
X120400000Y-101525300D01*
X120418907Y-101467109D01*
X120468407Y-101431145D01*
X120529593Y-101431145D01*
X120554002Y-101442985D01*
X120621963Y-101488396D01*
X120680299Y-101499999D01*
X120680303Y-101500000D01*
X120799999Y-101500000D01*
X120800000Y-101499999D01*
X120800000Y-101200001D01*
X121300000Y-101200001D01*
X121300000Y-101499999D01*
X121300001Y-101500000D01*
X121419697Y-101500000D01*
X121419700Y-101499999D01*
X121478036Y-101488396D01*
X121544998Y-101443653D01*
X121603886Y-101427044D01*
X121655002Y-101443653D01*
X121721963Y-101488396D01*
X121780299Y-101499999D01*
X121780303Y-101500000D01*
X121799999Y-101500000D01*
X121800000Y-101499999D01*
X121800000Y-101100001D01*
X122200000Y-101100001D01*
X122200000Y-101499999D01*
X122200001Y-101500000D01*
X122219697Y-101500000D01*
X122219700Y-101499999D01*
X122278036Y-101488396D01*
X122344998Y-101443653D01*
X122403886Y-101427044D01*
X122455002Y-101443653D01*
X122521963Y-101488396D01*
X122580299Y-101499999D01*
X122580303Y-101500000D01*
X122599999Y-101500000D01*
X122600000Y-101499999D01*
X122600000Y-101100001D01*
X122599999Y-101100000D01*
X122200001Y-101100000D01*
X122200000Y-101100001D01*
X121800000Y-101100001D01*
X121799999Y-101100000D01*
X121705001Y-101100000D01*
X121705000Y-101100001D01*
X121705000Y-101101000D01*
X121686093Y-101159191D01*
X121636593Y-101195155D01*
X121606000Y-101200000D01*
X121300001Y-101200000D01*
X121300000Y-101200001D01*
X120800000Y-101200001D01*
X120800000Y-100400001D01*
X121300000Y-100400001D01*
X121300000Y-100699999D01*
X121300001Y-100700000D01*
X121799999Y-100700000D01*
X121800000Y-100699999D01*
X121800000Y-100336295D01*
X122200000Y-100336295D01*
X122200000Y-100699999D01*
X122200001Y-100700000D01*
X122701000Y-100700000D01*
X122759191Y-100718907D01*
X122795155Y-100768407D01*
X122800000Y-100799000D01*
X122800000Y-100899999D01*
X122800001Y-100900000D01*
X122901000Y-100900000D01*
X122959191Y-100918907D01*
X122995155Y-100968407D01*
X123000000Y-100999000D01*
X123000000Y-101499999D01*
X123000001Y-101500000D01*
X123019697Y-101500000D01*
X123019700Y-101499999D01*
X123078036Y-101488396D01*
X123086152Y-101485034D01*
X123147149Y-101480230D01*
X123198858Y-101511661D01*
X123201655Y-101514889D01*
X123201667Y-101514901D01*
X123219247Y-101532844D01*
X123219249Y-101532846D01*
X123299058Y-101577488D01*
X123299062Y-101577490D01*
X123340294Y-101589597D01*
X123366102Y-101597175D01*
X123424000Y-101605500D01*
X123424001Y-101605500D01*
X123875495Y-101605500D01*
X123875500Y-101605500D01*
X123919184Y-101600803D01*
X123970695Y-101589597D01*
X123980873Y-101587110D01*
X124061585Y-101544100D01*
X124076901Y-101530828D01*
X124088041Y-101521176D01*
X124144400Y-101497357D01*
X124172187Y-101498896D01*
X124176602Y-101499774D01*
X124180252Y-101500500D01*
X124180253Y-101500500D01*
X124619747Y-101500500D01*
X124619748Y-101500500D01*
X124678231Y-101488867D01*
X124744552Y-101444552D01*
X124744553Y-101444549D01*
X124744997Y-101444253D01*
X124803885Y-101427644D01*
X124855002Y-101444253D01*
X124855448Y-101444551D01*
X124855449Y-101444552D01*
X124921770Y-101488867D01*
X124964452Y-101497357D01*
X124980242Y-101500498D01*
X124980247Y-101500498D01*
X124980253Y-101500500D01*
X124980254Y-101500500D01*
X125419748Y-101500500D01*
X125419749Y-101500500D01*
X125478232Y-101488867D01*
X125544553Y-101444552D01*
X125544554Y-101444549D01*
X125544997Y-101444254D01*
X125603885Y-101427645D01*
X125655002Y-101444254D01*
X125655448Y-101444552D01*
X125721769Y-101488867D01*
X125764451Y-101497357D01*
X125780241Y-101500498D01*
X125780246Y-101500498D01*
X125780252Y-101500500D01*
X125780253Y-101500500D01*
X126219747Y-101500500D01*
X126219748Y-101500500D01*
X126278231Y-101488867D01*
X126344552Y-101444552D01*
X126344553Y-101444549D01*
X126344996Y-101444254D01*
X126403884Y-101427645D01*
X126455001Y-101444254D01*
X126455447Y-101444552D01*
X126521768Y-101488867D01*
X126564450Y-101497357D01*
X126580240Y-101500498D01*
X126580245Y-101500498D01*
X126580251Y-101500500D01*
X126580252Y-101500500D01*
X127019746Y-101500500D01*
X127019747Y-101500500D01*
X127078230Y-101488867D01*
X127144551Y-101444552D01*
X127144552Y-101444549D01*
X127144996Y-101444253D01*
X127203884Y-101427644D01*
X127255001Y-101444253D01*
X127255447Y-101444551D01*
X127255448Y-101444552D01*
X127321769Y-101488867D01*
X127364451Y-101497357D01*
X127380241Y-101500498D01*
X127380246Y-101500498D01*
X127380252Y-101500500D01*
X127380253Y-101500500D01*
X127819747Y-101500500D01*
X127819748Y-101500500D01*
X127878231Y-101488867D01*
X127944552Y-101444552D01*
X127944553Y-101444549D01*
X127944997Y-101444253D01*
X128003885Y-101427644D01*
X128055003Y-101444253D01*
X128055446Y-101444549D01*
X128055448Y-101444552D01*
X128121769Y-101488867D01*
X128164451Y-101497357D01*
X128180241Y-101500498D01*
X128180246Y-101500498D01*
X128180252Y-101500500D01*
X128180253Y-101500500D01*
X128619747Y-101500500D01*
X128619748Y-101500500D01*
X128678231Y-101488867D01*
X128744552Y-101444552D01*
X128744553Y-101444549D01*
X128744997Y-101444253D01*
X128803885Y-101427644D01*
X128855003Y-101444253D01*
X128855446Y-101444549D01*
X128855448Y-101444552D01*
X128921769Y-101488867D01*
X128964451Y-101497357D01*
X128980241Y-101500498D01*
X128980246Y-101500498D01*
X128980252Y-101500500D01*
X128980253Y-101500500D01*
X129419747Y-101500500D01*
X129419748Y-101500500D01*
X129478231Y-101488867D01*
X129544552Y-101444552D01*
X129544553Y-101444549D01*
X129545446Y-101443953D01*
X129604334Y-101427344D01*
X129655451Y-101443953D01*
X129721963Y-101488396D01*
X129780299Y-101499999D01*
X129780303Y-101500000D01*
X129799999Y-101500000D01*
X129800000Y-101499999D01*
X129800000Y-101100001D01*
X130200000Y-101100001D01*
X130200000Y-101499999D01*
X130200001Y-101500000D01*
X130219697Y-101500000D01*
X130219700Y-101499999D01*
X130278036Y-101488396D01*
X130344998Y-101443653D01*
X130403886Y-101427044D01*
X130455002Y-101443653D01*
X130521963Y-101488396D01*
X130580299Y-101499999D01*
X130580303Y-101500000D01*
X130699999Y-101500000D01*
X130700000Y-101499999D01*
X130700000Y-101200001D01*
X131200000Y-101200001D01*
X131200000Y-101499999D01*
X131200001Y-101500000D01*
X131319697Y-101500000D01*
X131319700Y-101499999D01*
X131378036Y-101488396D01*
X131444189Y-101444193D01*
X131444193Y-101444189D01*
X131488396Y-101378036D01*
X131499999Y-101319700D01*
X131500000Y-101319697D01*
X131500000Y-101200001D01*
X131499999Y-101200000D01*
X131200001Y-101200000D01*
X131200000Y-101200001D01*
X130700000Y-101200001D01*
X130699999Y-101200000D01*
X130394000Y-101200000D01*
X130335809Y-101181093D01*
X130299845Y-101131593D01*
X130295000Y-101101000D01*
X130295000Y-101100001D01*
X130294999Y-101100000D01*
X130200001Y-101100000D01*
X130200000Y-101100001D01*
X129800000Y-101100001D01*
X129800000Y-100335428D01*
X130200000Y-100335428D01*
X130200000Y-100699999D01*
X130200001Y-100700000D01*
X130699999Y-100700000D01*
X130700000Y-100699999D01*
X130700000Y-100400001D01*
X131200000Y-100400001D01*
X131200000Y-100699999D01*
X131200001Y-100700000D01*
X131499999Y-100700000D01*
X131500000Y-100699999D01*
X131500000Y-100580302D01*
X131499999Y-100580299D01*
X131488396Y-100521963D01*
X131444193Y-100455810D01*
X131444189Y-100455806D01*
X131378036Y-100411603D01*
X131319700Y-100400000D01*
X131200001Y-100400000D01*
X131200000Y-100400001D01*
X130700000Y-100400001D01*
X130699999Y-100400000D01*
X130580299Y-100400000D01*
X130521963Y-100411603D01*
X130521962Y-100411604D01*
X130507150Y-100421501D01*
X130492853Y-100425532D01*
X130480645Y-100433995D01*
X130464145Y-100433628D01*
X130448261Y-100438108D01*
X130434323Y-100432965D01*
X130419475Y-100432636D01*
X130406782Y-100422804D01*
X130390858Y-100416929D01*
X130370786Y-100395582D01*
X130335945Y-100345317D01*
X130329575Y-100324123D01*
X130319529Y-100304406D01*
X130320084Y-100300901D01*
X130316632Y-100301447D01*
X130307479Y-100307315D01*
X130200000Y-100335428D01*
X129800000Y-100335428D01*
X129800000Y-100300001D01*
X129799999Y-100300000D01*
X129780299Y-100300000D01*
X129721964Y-100311603D01*
X129655450Y-100356047D01*
X129596562Y-100372655D01*
X129545447Y-100356046D01*
X129478233Y-100311134D01*
X129478231Y-100311133D01*
X129478228Y-100311132D01*
X129478227Y-100311132D01*
X129419758Y-100299501D01*
X129419748Y-100299500D01*
X128980252Y-100299500D01*
X128980251Y-100299500D01*
X128980241Y-100299501D01*
X128921772Y-100311132D01*
X128921766Y-100311134D01*
X128855002Y-100355746D01*
X128796114Y-100372355D01*
X128744998Y-100355746D01*
X128678233Y-100311134D01*
X128678231Y-100311133D01*
X128678228Y-100311132D01*
X128678227Y-100311132D01*
X128619758Y-100299501D01*
X128619748Y-100299500D01*
X128180252Y-100299500D01*
X128180251Y-100299500D01*
X128180241Y-100299501D01*
X128121767Y-100311133D01*
X128115101Y-100313894D01*
X128054104Y-100318691D01*
X128001937Y-100286719D01*
X127978526Y-100230189D01*
X127991486Y-100172926D01*
X127996503Y-100164237D01*
X128025500Y-100056018D01*
X128025500Y-99943982D01*
X127996503Y-99835763D01*
X127996501Y-99835760D01*
X127996501Y-99835758D01*
X127940486Y-99738739D01*
X127940485Y-99738737D01*
X127861263Y-99659515D01*
X127855002Y-99655900D01*
X127764240Y-99603498D01*
X127764242Y-99603498D01*
X127722251Y-99592247D01*
X127656018Y-99574500D01*
X127543982Y-99574500D01*
X127477748Y-99592247D01*
X127435758Y-99603498D01*
X127338739Y-99659513D01*
X127259513Y-99738739D01*
X127203498Y-99835758D01*
X127201294Y-99843983D01*
X127174500Y-99943982D01*
X127174500Y-100056018D01*
X127203497Y-100164237D01*
X127203498Y-100164239D01*
X127208516Y-100172931D01*
X127221235Y-100232780D01*
X127196348Y-100288675D01*
X127143359Y-100319266D01*
X127084893Y-100313893D01*
X127078228Y-100311132D01*
X127019757Y-100299501D01*
X127019747Y-100299500D01*
X126580251Y-100299500D01*
X126580250Y-100299500D01*
X126580240Y-100299501D01*
X126521771Y-100311132D01*
X126521766Y-100311134D01*
X126455000Y-100355746D01*
X126429116Y-100363045D01*
X126403885Y-100372354D01*
X126399998Y-100371257D01*
X126396112Y-100372354D01*
X126344997Y-100355745D01*
X126319498Y-100338707D01*
X126281619Y-100290657D01*
X126275500Y-100256392D01*
X126275500Y-100245200D01*
X126270355Y-100232780D01*
X126233557Y-100143942D01*
X126220111Y-100130496D01*
X126156058Y-100066442D01*
X126156058Y-100066443D01*
X125356058Y-99266443D01*
X125356056Y-99266442D01*
X125355951Y-99266398D01*
X125355935Y-99266392D01*
X125260674Y-99226933D01*
X125214148Y-99187196D01*
X125199865Y-99127701D01*
X125212824Y-99085969D01*
X125266390Y-98993190D01*
X125266390Y-98993188D01*
X125266392Y-98993186D01*
X125300500Y-98865892D01*
X125300500Y-98734108D01*
X125276351Y-98643982D01*
X127874500Y-98643982D01*
X127874500Y-98756018D01*
X127897435Y-98841614D01*
X127903498Y-98864241D01*
X127955639Y-98954550D01*
X127959515Y-98961263D01*
X128038737Y-99040485D01*
X128038739Y-99040486D01*
X128135759Y-99096501D01*
X128135757Y-99096501D01*
X128135761Y-99096502D01*
X128135763Y-99096503D01*
X128243982Y-99125500D01*
X128243984Y-99125500D01*
X128356016Y-99125500D01*
X128356018Y-99125500D01*
X128464237Y-99096503D01*
X128464239Y-99096501D01*
X128464241Y-99096501D01*
X128493064Y-99079859D01*
X128561263Y-99040485D01*
X128640485Y-98961263D01*
X128689862Y-98875740D01*
X128696501Y-98864241D01*
X128696501Y-98864239D01*
X128696503Y-98864237D01*
X128719006Y-98780253D01*
X130299500Y-98780253D01*
X130299500Y-99219746D01*
X130299501Y-99219758D01*
X130311132Y-99278227D01*
X130311134Y-99278233D01*
X130355746Y-99344998D01*
X130372355Y-99403886D01*
X130355746Y-99455002D01*
X130311134Y-99521766D01*
X130311132Y-99521772D01*
X130299501Y-99580241D01*
X130299500Y-99580253D01*
X130299500Y-100019746D01*
X130299501Y-100019758D01*
X130311132Y-100078227D01*
X130311134Y-100078233D01*
X130360865Y-100152659D01*
X130359903Y-100153301D01*
X130365774Y-100158113D01*
X130370939Y-100177861D01*
X130380207Y-100196050D01*
X130379651Y-100199554D01*
X130381344Y-100199286D01*
X130388816Y-100194108D01*
X130410940Y-100194599D01*
X130432797Y-100191138D01*
X130436614Y-100191819D01*
X130448117Y-100194108D01*
X130480244Y-100200499D01*
X130480250Y-100200499D01*
X130480252Y-100200500D01*
X130480253Y-100200500D01*
X131319747Y-100200500D01*
X131319748Y-100200500D01*
X131378231Y-100188867D01*
X131378237Y-100188862D01*
X131387242Y-100185134D01*
X131388011Y-100186990D01*
X131434828Y-100173782D01*
X131492233Y-100194953D01*
X131500946Y-100202694D01*
X131538737Y-100240485D01*
X131561751Y-100253772D01*
X131635759Y-100296501D01*
X131635757Y-100296501D01*
X131635761Y-100296502D01*
X131635763Y-100296503D01*
X131743982Y-100325500D01*
X131743984Y-100325500D01*
X131856016Y-100325500D01*
X131856018Y-100325500D01*
X131964237Y-100296503D01*
X131964239Y-100296501D01*
X131964241Y-100296501D01*
X132033711Y-100256392D01*
X132061263Y-100240485D01*
X132140485Y-100161263D01*
X132179859Y-100093064D01*
X132196501Y-100064241D01*
X132196501Y-100064239D01*
X132196503Y-100064237D01*
X132225500Y-99956018D01*
X132225500Y-99843982D01*
X132196503Y-99735763D01*
X132196501Y-99735760D01*
X132196501Y-99735758D01*
X132140486Y-99638739D01*
X132140485Y-99638737D01*
X132061263Y-99559515D01*
X132061260Y-99559513D01*
X131964240Y-99503498D01*
X131964242Y-99503498D01*
X131915675Y-99490485D01*
X131856018Y-99474500D01*
X131743982Y-99474500D01*
X131689872Y-99488998D01*
X131635761Y-99503497D01*
X131601250Y-99523423D01*
X131589019Y-99526022D01*
X131578624Y-99532969D01*
X131559813Y-99532230D01*
X131541401Y-99536144D01*
X131529979Y-99531058D01*
X131517486Y-99530568D01*
X131502702Y-99518913D01*
X131485506Y-99511257D01*
X131469436Y-99492689D01*
X131457282Y-99474500D01*
X131444552Y-99455448D01*
X131444550Y-99455447D01*
X131444254Y-99455003D01*
X131427644Y-99396115D01*
X131427644Y-99396114D01*
X131444253Y-99344997D01*
X131444549Y-99344553D01*
X131444552Y-99344552D01*
X131488867Y-99278231D01*
X131500500Y-99219748D01*
X131500500Y-98780252D01*
X131488867Y-98721769D01*
X131444552Y-98655448D01*
X131444551Y-98655447D01*
X131443953Y-98654552D01*
X131427344Y-98595664D01*
X131437006Y-98556734D01*
X131488203Y-98449999D01*
X132598999Y-98449999D01*
X132598999Y-98450000D01*
X133199272Y-98450000D01*
X133107386Y-98488060D01*
X133037060Y-98558386D01*
X132999000Y-98650272D01*
X132999000Y-98749728D01*
X133037060Y-98841614D01*
X133107386Y-98911940D01*
X133199272Y-98950000D01*
X132598999Y-98950000D01*
X132622976Y-99007887D01*
X132694109Y-99114347D01*
X132784652Y-99204890D01*
X132891110Y-99276022D01*
X133009398Y-99325019D01*
X133009404Y-99325021D01*
X133134978Y-99349999D01*
X133134982Y-99350000D01*
X133398999Y-99350000D01*
X133399000Y-99349999D01*
X133399000Y-98950001D01*
X133398999Y-98950000D01*
X133899001Y-98950000D01*
X133899000Y-98950001D01*
X133899000Y-99349999D01*
X133899001Y-99350000D01*
X134163018Y-99350000D01*
X134163021Y-99349999D01*
X134288595Y-99325021D01*
X134288601Y-99325019D01*
X134406889Y-99276022D01*
X134513347Y-99204890D01*
X134603890Y-99114347D01*
X134675023Y-99007887D01*
X134699001Y-98950000D01*
X134098728Y-98950000D01*
X134190614Y-98911940D01*
X134260940Y-98841614D01*
X134299000Y-98749728D01*
X134299000Y-98650272D01*
X134260940Y-98558386D01*
X134190614Y-98488060D01*
X134098728Y-98450000D01*
X134699001Y-98450000D01*
X134699000Y-98449999D01*
X134675023Y-98392112D01*
X134603890Y-98285652D01*
X134513347Y-98195109D01*
X134406890Y-98123978D01*
X134380969Y-98113241D01*
X134372455Y-98105969D01*
X134361762Y-98102655D01*
X134349727Y-98086556D01*
X134334444Y-98073503D01*
X134331830Y-98062617D01*
X134325127Y-98053650D01*
X134324853Y-98033552D01*
X134322800Y-98025001D01*
X134750000Y-98025001D01*
X134750000Y-98044700D01*
X134761603Y-98103036D01*
X134805806Y-98169189D01*
X134805810Y-98169193D01*
X134871963Y-98213396D01*
X134930299Y-98224999D01*
X134930303Y-98225000D01*
X135199999Y-98225000D01*
X135200000Y-98224999D01*
X135200000Y-98025001D01*
X135199999Y-98025000D01*
X134750001Y-98025000D01*
X134750000Y-98025001D01*
X134322800Y-98025001D01*
X134320161Y-98014008D01*
X134324445Y-98003664D01*
X134324293Y-97992470D01*
X134335058Y-97978046D01*
X134343577Y-97957481D01*
X134359579Y-97942485D01*
X134397640Y-97914031D01*
X134438396Y-97853036D01*
X134449999Y-97794700D01*
X134450000Y-97794697D01*
X134450000Y-97775001D01*
X134449999Y-97775000D01*
X133250001Y-97775000D01*
X133250000Y-97775001D01*
X133250000Y-97794700D01*
X133261603Y-97853036D01*
X133290310Y-97895998D01*
X133306919Y-97954887D01*
X133285741Y-98012290D01*
X133234868Y-98046283D01*
X133207995Y-98050000D01*
X133134978Y-98050000D01*
X133009404Y-98074978D01*
X133009398Y-98074980D01*
X132891110Y-98123977D01*
X132784652Y-98195109D01*
X132694109Y-98285652D01*
X132622976Y-98392112D01*
X132598999Y-98449999D01*
X131488203Y-98449999D01*
X131498061Y-98429446D01*
X131499999Y-98419700D01*
X131500000Y-98419697D01*
X131500000Y-98400001D01*
X131499999Y-98400000D01*
X130300001Y-98400000D01*
X130300000Y-98400001D01*
X130300000Y-98419700D01*
X130311603Y-98478036D01*
X130356046Y-98544548D01*
X130372655Y-98603436D01*
X130356046Y-98654552D01*
X130311134Y-98721766D01*
X130311132Y-98721772D01*
X130299501Y-98780241D01*
X130299500Y-98780253D01*
X128719006Y-98780253D01*
X128725500Y-98756018D01*
X128725500Y-98643982D01*
X128696503Y-98535763D01*
X128696501Y-98535760D01*
X128696501Y-98535758D01*
X128640486Y-98438739D01*
X128640485Y-98438737D01*
X128561263Y-98359515D01*
X128516393Y-98333609D01*
X128464240Y-98303498D01*
X128464242Y-98303498D01*
X128422251Y-98292247D01*
X128356018Y-98274500D01*
X128243982Y-98274500D01*
X128177748Y-98292247D01*
X128135758Y-98303498D01*
X128038739Y-98359513D01*
X127959513Y-98438739D01*
X127903498Y-98535758D01*
X127897878Y-98556734D01*
X127874500Y-98643982D01*
X125276351Y-98643982D01*
X125266392Y-98606814D01*
X125264442Y-98603436D01*
X125200503Y-98492690D01*
X125200501Y-98492688D01*
X125200500Y-98492686D01*
X125107314Y-98399500D01*
X125107311Y-98399498D01*
X125107309Y-98399496D01*
X124993189Y-98333609D01*
X124993191Y-98333609D01*
X124943799Y-98320375D01*
X124865892Y-98299500D01*
X124734108Y-98299500D01*
X124656200Y-98320375D01*
X124606809Y-98333609D01*
X124492690Y-98399496D01*
X124399496Y-98492690D01*
X124333609Y-98606809D01*
X124320817Y-98654552D01*
X124302075Y-98724500D01*
X124299500Y-98734109D01*
X124299500Y-98870877D01*
X124280593Y-98929068D01*
X124231093Y-98965032D01*
X124169907Y-98965032D01*
X124147587Y-98954550D01*
X124138278Y-98948663D01*
X124106058Y-98916443D01*
X124103086Y-98915212D01*
X124051762Y-98893952D01*
X124044578Y-98889409D01*
X124040386Y-98884358D01*
X124027490Y-98875742D01*
X123961263Y-98809515D01*
X123910665Y-98780302D01*
X123864240Y-98753498D01*
X123864242Y-98753498D01*
X123822251Y-98742247D01*
X123756018Y-98724500D01*
X123643982Y-98724500D01*
X123577748Y-98742247D01*
X123535758Y-98753498D01*
X123438739Y-98809513D01*
X123359513Y-98888739D01*
X123303498Y-98985758D01*
X123303497Y-98985763D01*
X123274500Y-99093982D01*
X123274500Y-99206018D01*
X123293797Y-99278036D01*
X123303498Y-99314241D01*
X123350769Y-99396115D01*
X123359515Y-99411263D01*
X123389386Y-99441134D01*
X123417162Y-99495649D01*
X123407591Y-99556081D01*
X123364326Y-99599346D01*
X123340434Y-99607872D01*
X123328806Y-99610402D01*
X123318628Y-99612889D01*
X123237914Y-99655900D01*
X123185113Y-99701653D01*
X123185098Y-99701667D01*
X123167148Y-99719254D01*
X123166179Y-99720522D01*
X123165085Y-99721276D01*
X123162099Y-99724202D01*
X123161592Y-99723684D01*
X123115807Y-99755254D01*
X123054641Y-99753746D01*
X123038046Y-99746110D01*
X122964240Y-99703498D01*
X122964242Y-99703498D01*
X122922251Y-99692247D01*
X122856018Y-99674500D01*
X122743982Y-99674500D01*
X122677748Y-99692247D01*
X122635758Y-99703498D01*
X122538739Y-99759513D01*
X122459513Y-99838739D01*
X122403498Y-99935758D01*
X122387286Y-99996263D01*
X122374500Y-100043982D01*
X122374500Y-100156018D01*
X122382761Y-100186852D01*
X122379560Y-100247951D01*
X122341054Y-100295501D01*
X122311139Y-100308519D01*
X122200000Y-100336295D01*
X121800000Y-100336295D01*
X121800000Y-100335596D01*
X121691825Y-100307547D01*
X121684203Y-100302684D01*
X121680743Y-100302275D01*
X121664544Y-100344891D01*
X121629067Y-100395792D01*
X121605423Y-100413688D01*
X121582111Y-100432066D01*
X121581093Y-100432105D01*
X121580282Y-100432720D01*
X121550612Y-100433302D01*
X121520973Y-100434466D01*
X121519762Y-100433908D01*
X121519109Y-100433921D01*
X121517777Y-100432992D01*
X121492847Y-100421500D01*
X121478035Y-100411603D01*
X121478036Y-100411603D01*
X121419700Y-100400000D01*
X121300001Y-100400000D01*
X121300000Y-100400001D01*
X120800000Y-100400001D01*
X120799999Y-100400000D01*
X120680299Y-100400000D01*
X120621964Y-100411603D01*
X120554001Y-100457015D01*
X120540740Y-100460754D01*
X120529593Y-100468854D01*
X120512023Y-100468854D01*
X120495113Y-100473623D01*
X120482186Y-100468854D01*
X120468407Y-100468854D01*
X120454191Y-100458525D01*
X120437709Y-100452445D01*
X120430054Y-100440989D01*
X120418907Y-100432890D01*
X120413477Y-100416178D01*
X120403717Y-100401571D01*
X120400000Y-100374699D01*
X120400000Y-100225300D01*
X120418907Y-100167109D01*
X120468407Y-100131145D01*
X120529593Y-100131145D01*
X120554002Y-100142985D01*
X120621963Y-100188396D01*
X120680299Y-100199999D01*
X120680303Y-100200000D01*
X120899999Y-100200000D01*
X120900000Y-100199999D01*
X120900000Y-100000001D01*
X121300000Y-100000001D01*
X121300000Y-100199999D01*
X121300001Y-100200000D01*
X121519697Y-100200000D01*
X121519707Y-100199998D01*
X121564010Y-100191186D01*
X121619436Y-100197744D01*
X121627645Y-100179938D01*
X121633212Y-100158470D01*
X121639841Y-100153011D01*
X121638775Y-100152299D01*
X121688396Y-100078036D01*
X121699999Y-100019700D01*
X121700000Y-100019697D01*
X121700000Y-100000001D01*
X121699999Y-100000000D01*
X121300001Y-100000000D01*
X121300000Y-100000001D01*
X120900000Y-100000001D01*
X120900000Y-99200001D01*
X121300000Y-99200001D01*
X121300000Y-99599999D01*
X121300001Y-99600000D01*
X121699999Y-99600000D01*
X121700000Y-99599999D01*
X121700000Y-99580302D01*
X121699999Y-99580299D01*
X121688396Y-99521963D01*
X121643653Y-99455002D01*
X121627044Y-99396114D01*
X121643653Y-99344998D01*
X121688396Y-99278036D01*
X121699999Y-99219700D01*
X121700000Y-99219697D01*
X121700000Y-99200001D01*
X121699999Y-99200000D01*
X121300001Y-99200000D01*
X121300000Y-99200001D01*
X120900000Y-99200001D01*
X120900000Y-98400001D01*
X121300000Y-98400001D01*
X121300000Y-98799999D01*
X121300001Y-98800000D01*
X121699999Y-98800000D01*
X121700000Y-98799999D01*
X121700000Y-98780302D01*
X121699999Y-98780299D01*
X121688396Y-98721963D01*
X121643653Y-98655002D01*
X121627044Y-98596114D01*
X121643653Y-98544998D01*
X121688396Y-98478036D01*
X121699999Y-98419700D01*
X121700000Y-98419697D01*
X121700000Y-98400001D01*
X121699999Y-98400000D01*
X121300001Y-98400000D01*
X121300000Y-98400001D01*
X120900000Y-98400001D01*
X120900000Y-97600001D01*
X121300000Y-97600001D01*
X121300000Y-97999999D01*
X121300001Y-98000000D01*
X121699999Y-98000000D01*
X121700000Y-97999999D01*
X121700000Y-97980302D01*
X121699999Y-97980299D01*
X121688396Y-97921963D01*
X121643653Y-97855002D01*
X121636353Y-97829120D01*
X121627044Y-97803886D01*
X121628140Y-97800000D01*
X121627044Y-97796114D01*
X121643653Y-97744998D01*
X121651014Y-97733982D01*
X121954500Y-97733982D01*
X121954500Y-97846018D01*
X121962266Y-97875000D01*
X121983498Y-97954241D01*
X122038786Y-98050000D01*
X122039515Y-98051263D01*
X122118737Y-98130485D01*
X122118739Y-98130486D01*
X122215759Y-98186501D01*
X122215757Y-98186501D01*
X122215761Y-98186502D01*
X122215763Y-98186503D01*
X122323982Y-98215500D01*
X122323984Y-98215500D01*
X122436016Y-98215500D01*
X122436018Y-98215500D01*
X122544237Y-98186503D01*
X122544239Y-98186501D01*
X122544241Y-98186501D01*
X122574226Y-98169189D01*
X122641263Y-98130485D01*
X122720485Y-98051263D01*
X122776503Y-97954237D01*
X122805500Y-97846018D01*
X122805500Y-97733982D01*
X122776503Y-97625763D01*
X122776501Y-97625760D01*
X122776501Y-97625758D01*
X122720486Y-97528739D01*
X122720485Y-97528737D01*
X122641263Y-97449515D01*
X122589366Y-97419552D01*
X122544240Y-97393498D01*
X122544242Y-97393498D01*
X122502251Y-97382247D01*
X122436018Y-97364500D01*
X122323982Y-97364500D01*
X122257748Y-97382247D01*
X122215758Y-97393498D01*
X122118739Y-97449513D01*
X122039513Y-97528739D01*
X121983498Y-97625758D01*
X121983497Y-97625763D01*
X121954500Y-97733982D01*
X121651014Y-97733982D01*
X121688396Y-97678035D01*
X121699999Y-97619700D01*
X121700000Y-97619697D01*
X121700000Y-97600001D01*
X121699999Y-97600000D01*
X121300001Y-97600000D01*
X121300000Y-97600001D01*
X120900000Y-97600001D01*
X120900000Y-96000001D01*
X121300000Y-96000001D01*
X121300000Y-97199999D01*
X121300001Y-97200000D01*
X121699999Y-97200000D01*
X121700000Y-97199999D01*
X121700000Y-97180302D01*
X121699999Y-97180299D01*
X121688396Y-97121963D01*
X121643653Y-97055002D01*
X121627044Y-96996114D01*
X121643653Y-96944998D01*
X121688396Y-96878036D01*
X121699999Y-96819700D01*
X121700000Y-96819697D01*
X121700000Y-96731857D01*
X121718907Y-96673666D01*
X121768407Y-96637702D01*
X121829593Y-96637702D01*
X121848491Y-96646116D01*
X121935763Y-96696503D01*
X122043982Y-96725500D01*
X122043984Y-96725500D01*
X122156016Y-96725500D01*
X122156018Y-96725500D01*
X122264237Y-96696503D01*
X122264239Y-96696501D01*
X122264241Y-96696501D01*
X122303792Y-96673666D01*
X122361263Y-96640485D01*
X122440485Y-96561263D01*
X122496503Y-96464237D01*
X122525500Y-96356018D01*
X122525500Y-96243982D01*
X122496503Y-96135763D01*
X122496501Y-96135760D01*
X122496501Y-96135758D01*
X122440486Y-96038739D01*
X122440485Y-96038737D01*
X122361263Y-95959515D01*
X122361260Y-95959513D01*
X122264240Y-95903498D01*
X122264242Y-95903498D01*
X122222251Y-95892247D01*
X122156018Y-95874500D01*
X122043982Y-95874500D01*
X121977748Y-95892247D01*
X121935758Y-95903498D01*
X121838739Y-95959513D01*
X121838737Y-95959514D01*
X121838737Y-95959515D01*
X121819127Y-95979124D01*
X121764613Y-96006900D01*
X121721046Y-96000000D01*
X121300001Y-96000000D01*
X121300000Y-96000001D01*
X120900000Y-96000001D01*
X120900000Y-95200001D01*
X121300000Y-95200001D01*
X121300000Y-95599999D01*
X121300001Y-95600000D01*
X121699999Y-95600000D01*
X121700000Y-95599999D01*
X121700000Y-95580302D01*
X121699999Y-95580299D01*
X121688396Y-95521963D01*
X121643653Y-95455002D01*
X121627044Y-95396114D01*
X121643653Y-95344998D01*
X121688396Y-95278036D01*
X121699999Y-95219700D01*
X121700000Y-95219697D01*
X121700000Y-95200001D01*
X121699999Y-95200000D01*
X121300001Y-95200000D01*
X121300000Y-95200001D01*
X120900000Y-95200001D01*
X120900000Y-94400001D01*
X121300000Y-94400001D01*
X121300000Y-94799999D01*
X121300001Y-94800000D01*
X121699999Y-94800000D01*
X121700000Y-94799999D01*
X121700000Y-94780302D01*
X121699999Y-94780299D01*
X121688396Y-94721963D01*
X121643653Y-94655002D01*
X121627044Y-94596114D01*
X121643653Y-94544998D01*
X121688396Y-94478036D01*
X121699999Y-94419700D01*
X121700000Y-94419697D01*
X121700000Y-94400001D01*
X121699999Y-94400000D01*
X121300001Y-94400000D01*
X121300000Y-94400001D01*
X120900000Y-94400001D01*
X120900000Y-92800001D01*
X121300000Y-92800001D01*
X121300000Y-93999999D01*
X121300001Y-94000000D01*
X121699999Y-94000000D01*
X121700000Y-93999999D01*
X121700000Y-93980302D01*
X121699999Y-93980299D01*
X121688396Y-93921963D01*
X121643653Y-93855002D01*
X121636353Y-93829121D01*
X121627044Y-93803889D01*
X121628140Y-93800001D01*
X121627044Y-93796114D01*
X121643651Y-93745000D01*
X121656579Y-93725651D01*
X121704628Y-93687771D01*
X121765767Y-93685367D01*
X121808897Y-93710645D01*
X121838737Y-93740485D01*
X121838739Y-93740486D01*
X121935759Y-93796501D01*
X121935757Y-93796501D01*
X121935761Y-93796502D01*
X121935763Y-93796503D01*
X122043982Y-93825500D01*
X122043984Y-93825500D01*
X122156016Y-93825500D01*
X122156018Y-93825500D01*
X122264237Y-93796503D01*
X122264239Y-93796501D01*
X122264241Y-93796501D01*
X122293064Y-93779859D01*
X122361263Y-93740485D01*
X122440485Y-93661263D01*
X122496503Y-93564237D01*
X122525500Y-93456018D01*
X122525500Y-93343982D01*
X122496503Y-93235763D01*
X122496501Y-93235760D01*
X122496501Y-93235758D01*
X122440486Y-93138739D01*
X122440485Y-93138737D01*
X122361263Y-93059515D01*
X122354219Y-93055448D01*
X122264240Y-93003498D01*
X122264242Y-93003498D01*
X122222251Y-92992247D01*
X122156018Y-92974500D01*
X122043982Y-92974500D01*
X121977748Y-92992247D01*
X121935758Y-93003498D01*
X121838739Y-93059513D01*
X121808899Y-93089353D01*
X121786587Y-93100720D01*
X121765769Y-93114631D01*
X121759749Y-93114394D01*
X121754382Y-93117129D01*
X121729652Y-93113212D01*
X121704631Y-93112229D01*
X121699900Y-93108499D01*
X121693950Y-93107557D01*
X121656581Y-93074350D01*
X121643653Y-93055002D01*
X121627044Y-92996114D01*
X121643653Y-92944998D01*
X121688396Y-92878036D01*
X121699999Y-92819700D01*
X121700000Y-92819697D01*
X121700000Y-92800001D01*
X121699999Y-92800000D01*
X121300001Y-92800000D01*
X121300000Y-92800001D01*
X120900000Y-92800001D01*
X120900000Y-92000001D01*
X121300000Y-92000001D01*
X121300000Y-92399999D01*
X121300001Y-92400000D01*
X121699999Y-92400000D01*
X121700000Y-92399999D01*
X121700000Y-92380302D01*
X121699999Y-92380299D01*
X121688396Y-92321963D01*
X121643653Y-92255002D01*
X121627044Y-92196114D01*
X121643653Y-92144998D01*
X121688396Y-92078036D01*
X121699999Y-92019700D01*
X121700000Y-92019697D01*
X121700000Y-92000001D01*
X121699999Y-92000000D01*
X121300001Y-92000000D01*
X121300000Y-92000001D01*
X120900000Y-92000001D01*
X120900000Y-91200001D01*
X121300000Y-91200001D01*
X121300000Y-91599999D01*
X121300001Y-91600000D01*
X121699999Y-91600000D01*
X121700000Y-91599999D01*
X121700000Y-91580302D01*
X121699999Y-91580299D01*
X121688396Y-91521963D01*
X121643653Y-91455002D01*
X121627044Y-91396114D01*
X121643653Y-91344998D01*
X121688396Y-91278036D01*
X121699999Y-91219700D01*
X121700000Y-91219697D01*
X121700000Y-91200001D01*
X121699999Y-91200000D01*
X121300001Y-91200000D01*
X121300000Y-91200001D01*
X120900000Y-91200001D01*
X120900000Y-90400001D01*
X121300000Y-90400001D01*
X121300000Y-90799999D01*
X121300001Y-90800000D01*
X121699999Y-90800000D01*
X121700000Y-90799999D01*
X121700000Y-90780302D01*
X121699999Y-90780299D01*
X121688396Y-90721963D01*
X121643653Y-90655002D01*
X121627044Y-90596114D01*
X121643653Y-90544998D01*
X121688396Y-90478036D01*
X121699999Y-90419700D01*
X121700000Y-90419697D01*
X121700000Y-90400001D01*
X121699999Y-90400000D01*
X121300001Y-90400000D01*
X121300000Y-90400001D01*
X120900000Y-90400001D01*
X120900000Y-89800001D01*
X121300000Y-89800001D01*
X121300000Y-89999999D01*
X121300001Y-90000000D01*
X121699999Y-90000000D01*
X121700000Y-89999999D01*
X121700000Y-89980302D01*
X121699999Y-89980299D01*
X121688396Y-89921963D01*
X121638775Y-89847701D01*
X121640873Y-89846298D01*
X121634557Y-89833900D01*
X121620493Y-89809596D01*
X121620778Y-89806857D01*
X121619529Y-89804406D01*
X121620084Y-89800901D01*
X121618408Y-89801166D01*
X121610955Y-89806337D01*
X121588814Y-89805853D01*
X121566939Y-89809318D01*
X121563113Y-89808635D01*
X121519702Y-89800000D01*
X121300001Y-89800000D01*
X121300000Y-89800001D01*
X120900000Y-89800001D01*
X120899999Y-89800000D01*
X120680299Y-89800000D01*
X120621964Y-89811603D01*
X120554001Y-89857015D01*
X120540740Y-89860754D01*
X120529593Y-89868854D01*
X120512023Y-89868854D01*
X120495113Y-89873623D01*
X120482186Y-89868854D01*
X120468407Y-89868854D01*
X120454191Y-89858525D01*
X120437709Y-89852445D01*
X120430054Y-89840989D01*
X120418907Y-89832890D01*
X120413477Y-89816178D01*
X120403717Y-89801571D01*
X120400000Y-89774699D01*
X120400000Y-89625300D01*
X120418907Y-89567109D01*
X120468407Y-89531145D01*
X120529593Y-89531145D01*
X120554002Y-89542985D01*
X120621963Y-89588396D01*
X120680299Y-89599999D01*
X120680303Y-89600000D01*
X120799999Y-89600000D01*
X120800000Y-89599999D01*
X120800000Y-88500001D01*
X121300000Y-88500001D01*
X121300000Y-89599999D01*
X121300001Y-89600000D01*
X121419697Y-89600000D01*
X121419700Y-89599999D01*
X121478035Y-89588396D01*
X121492429Y-89578778D01*
X121506712Y-89574749D01*
X121518904Y-89566292D01*
X121535417Y-89566652D01*
X121551317Y-89562168D01*
X121565239Y-89567303D01*
X121580075Y-89567628D01*
X121592774Y-89577461D01*
X121608721Y-89583344D01*
X121628778Y-89604664D01*
X121629247Y-89605340D01*
X121655448Y-89644552D01*
X121657311Y-89645797D01*
X121663771Y-89655109D01*
X121670153Y-89676317D01*
X121680207Y-89696050D01*
X121679684Y-89699348D01*
X121727563Y-89690451D01*
X121732115Y-89690925D01*
X121780252Y-89700500D01*
X121824071Y-89700500D01*
X121829180Y-89701032D01*
X121852670Y-89711463D01*
X121877118Y-89719407D01*
X121880242Y-89723708D01*
X121885100Y-89725865D01*
X121897971Y-89748109D01*
X121913082Y-89768907D01*
X121913227Y-89774474D01*
X121915744Y-89778823D01*
X121913823Y-89797261D01*
X121914553Y-89825124D01*
X121909500Y-89843979D01*
X121909500Y-89843982D01*
X121909500Y-89956018D01*
X121915994Y-89980253D01*
X121938498Y-90064241D01*
X121994513Y-90161260D01*
X121994515Y-90161263D01*
X122073737Y-90240485D01*
X122073739Y-90240486D01*
X122170759Y-90296501D01*
X122170757Y-90296501D01*
X122170761Y-90296502D01*
X122170763Y-90296503D01*
X122278982Y-90325500D01*
X122278984Y-90325500D01*
X122377679Y-90325500D01*
X122435870Y-90344407D01*
X122471834Y-90393907D01*
X122471834Y-90455093D01*
X122447684Y-90494501D01*
X122420003Y-90522183D01*
X122399497Y-90542689D01*
X122399496Y-90542690D01*
X122333609Y-90656809D01*
X122316203Y-90721772D01*
X122299500Y-90784108D01*
X122299500Y-90915892D01*
X122319923Y-90992112D01*
X122333609Y-91043190D01*
X122399496Y-91157309D01*
X122399498Y-91157311D01*
X122399500Y-91157314D01*
X122492686Y-91250500D01*
X122492688Y-91250501D01*
X122492690Y-91250503D01*
X122606810Y-91316390D01*
X122606808Y-91316390D01*
X122606812Y-91316391D01*
X122606814Y-91316392D01*
X122734108Y-91350500D01*
X122734110Y-91350500D01*
X122865890Y-91350500D01*
X122865892Y-91350500D01*
X122993186Y-91316392D01*
X122993188Y-91316390D01*
X122993190Y-91316390D01*
X123107309Y-91250503D01*
X123107309Y-91250502D01*
X123107314Y-91250500D01*
X123200500Y-91157314D01*
X123240484Y-91088060D01*
X123264264Y-91046873D01*
X123309733Y-91005932D01*
X123370583Y-90999536D01*
X123423571Y-91030129D01*
X123435736Y-91046873D01*
X123499496Y-91157309D01*
X123499498Y-91157311D01*
X123499500Y-91157314D01*
X123592686Y-91250500D01*
X123592688Y-91250501D01*
X123592690Y-91250503D01*
X123706810Y-91316390D01*
X123706808Y-91316390D01*
X123706812Y-91316391D01*
X123706814Y-91316392D01*
X123834108Y-91350500D01*
X123834110Y-91350500D01*
X123965890Y-91350500D01*
X123965892Y-91350500D01*
X124093186Y-91316392D01*
X124093188Y-91316390D01*
X124093190Y-91316390D01*
X124207309Y-91250503D01*
X124207309Y-91250502D01*
X124207314Y-91250500D01*
X124300500Y-91157314D01*
X124340484Y-91088060D01*
X124366390Y-91043190D01*
X124366390Y-91043188D01*
X124366392Y-91043186D01*
X124400500Y-90915892D01*
X124400500Y-90784108D01*
X127699500Y-90784108D01*
X127699500Y-90915892D01*
X127719923Y-90992112D01*
X127733609Y-91043190D01*
X127799496Y-91157309D01*
X127799498Y-91157311D01*
X127799500Y-91157314D01*
X127892686Y-91250500D01*
X127892688Y-91250501D01*
X127892690Y-91250503D01*
X128006810Y-91316390D01*
X128006808Y-91316390D01*
X128006812Y-91316391D01*
X128006814Y-91316392D01*
X128134108Y-91350500D01*
X128134110Y-91350500D01*
X128265890Y-91350500D01*
X128265892Y-91350500D01*
X128393186Y-91316392D01*
X128393188Y-91316390D01*
X128393190Y-91316390D01*
X128507309Y-91250503D01*
X128507309Y-91250502D01*
X128507314Y-91250500D01*
X128579998Y-91177815D01*
X128634513Y-91150040D01*
X128694945Y-91159611D01*
X128720000Y-91177814D01*
X128792686Y-91250500D01*
X128792688Y-91250501D01*
X128792690Y-91250503D01*
X128906810Y-91316390D01*
X128906808Y-91316390D01*
X128906812Y-91316391D01*
X128906814Y-91316392D01*
X129034108Y-91350500D01*
X129034110Y-91350500D01*
X129165890Y-91350500D01*
X129165892Y-91350500D01*
X129293186Y-91316392D01*
X129293188Y-91316390D01*
X129293190Y-91316390D01*
X129407309Y-91250503D01*
X129407309Y-91250502D01*
X129407314Y-91250500D01*
X129500500Y-91157314D01*
X129540484Y-91088060D01*
X129566390Y-91043190D01*
X129566390Y-91043188D01*
X129566392Y-91043186D01*
X129600500Y-90915892D01*
X129600500Y-90784108D01*
X129566392Y-90656814D01*
X129566390Y-90656811D01*
X129566390Y-90656809D01*
X129500503Y-90542690D01*
X129500501Y-90542688D01*
X129500500Y-90542686D01*
X129407314Y-90449500D01*
X129407311Y-90449498D01*
X129407309Y-90449496D01*
X129293189Y-90383609D01*
X129293191Y-90383609D01*
X129243799Y-90370375D01*
X129165892Y-90349500D01*
X129034108Y-90349500D01*
X128956200Y-90370375D01*
X128906809Y-90383609D01*
X128792690Y-90449496D01*
X128792689Y-90449497D01*
X128792686Y-90449499D01*
X128792686Y-90449500D01*
X128720001Y-90522184D01*
X128665487Y-90549960D01*
X128605055Y-90540389D01*
X128579999Y-90522185D01*
X128507314Y-90449500D01*
X128507311Y-90449498D01*
X128507309Y-90449496D01*
X128393189Y-90383609D01*
X128393191Y-90383609D01*
X128343799Y-90370375D01*
X128265892Y-90349500D01*
X128134108Y-90349500D01*
X128056200Y-90370375D01*
X128006809Y-90383609D01*
X127892690Y-90449496D01*
X127799496Y-90542690D01*
X127733609Y-90656809D01*
X127716203Y-90721772D01*
X127699500Y-90784108D01*
X124400500Y-90784108D01*
X124366392Y-90656814D01*
X124366390Y-90656811D01*
X124366390Y-90656809D01*
X124300503Y-90542690D01*
X124300501Y-90542688D01*
X124300500Y-90542686D01*
X124207314Y-90449500D01*
X124207311Y-90449498D01*
X124207309Y-90449496D01*
X124093189Y-90383609D01*
X124093191Y-90383609D01*
X124043799Y-90370375D01*
X123965892Y-90349500D01*
X123834108Y-90349500D01*
X123756200Y-90370375D01*
X123706809Y-90383609D01*
X123592690Y-90449496D01*
X123499496Y-90542690D01*
X123435736Y-90653126D01*
X123390267Y-90694067D01*
X123329416Y-90700463D01*
X123276428Y-90669870D01*
X123264264Y-90653126D01*
X123200503Y-90542690D01*
X123200501Y-90542688D01*
X123200500Y-90542686D01*
X123107314Y-90449500D01*
X123107311Y-90449498D01*
X123107309Y-90449496D01*
X122993189Y-90383609D01*
X122993191Y-90383609D01*
X122943799Y-90370375D01*
X122865892Y-90349500D01*
X122734108Y-90349500D01*
X122727619Y-90349500D01*
X122727619Y-90346765D01*
X122678764Y-90337684D01*
X122636670Y-90293280D01*
X122628715Y-90232614D01*
X122656044Y-90180703D01*
X122675485Y-90161263D01*
X122731503Y-90064237D01*
X122760500Y-89956018D01*
X122760500Y-89843982D01*
X122755447Y-89825123D01*
X122758648Y-89764022D01*
X122797153Y-89716472D01*
X122851073Y-89700500D01*
X123019747Y-89700500D01*
X123019748Y-89700500D01*
X123078231Y-89688867D01*
X123144552Y-89644552D01*
X123144553Y-89644549D01*
X123144997Y-89644253D01*
X123203885Y-89627644D01*
X123255003Y-89644253D01*
X123255446Y-89644549D01*
X123255448Y-89644552D01*
X123321769Y-89688867D01*
X123366231Y-89697711D01*
X123380241Y-89700498D01*
X123380246Y-89700498D01*
X123380252Y-89700500D01*
X123380253Y-89700500D01*
X123819747Y-89700500D01*
X123819748Y-89700500D01*
X123878231Y-89688867D01*
X123944552Y-89644552D01*
X123944553Y-89644549D01*
X123944997Y-89644253D01*
X124003885Y-89627644D01*
X124055003Y-89644253D01*
X124055446Y-89644549D01*
X124055448Y-89644552D01*
X124121769Y-89688867D01*
X124166231Y-89697711D01*
X124180241Y-89700498D01*
X124180246Y-89700498D01*
X124180252Y-89700500D01*
X124180253Y-89700500D01*
X124619747Y-89700500D01*
X124619748Y-89700500D01*
X124678231Y-89688867D01*
X124690999Y-89680335D01*
X124749885Y-89663726D01*
X124807289Y-89684902D01*
X124831737Y-89713149D01*
X124846511Y-89738737D01*
X124859516Y-89761263D01*
X124938738Y-89840485D01*
X124964655Y-89855448D01*
X125035760Y-89896501D01*
X125035758Y-89896501D01*
X125035762Y-89896502D01*
X125035764Y-89896503D01*
X125143983Y-89925500D01*
X125143985Y-89925500D01*
X125256017Y-89925500D01*
X125256019Y-89925500D01*
X125364238Y-89896503D01*
X125364240Y-89896501D01*
X125364242Y-89896501D01*
X125412127Y-89868854D01*
X125461264Y-89840485D01*
X125540486Y-89761263D01*
X125568265Y-89713149D01*
X125613731Y-89672210D01*
X125674581Y-89665814D01*
X125709000Y-89680335D01*
X125710453Y-89681306D01*
X125721769Y-89688867D01*
X125766231Y-89697711D01*
X125780241Y-89700498D01*
X125780246Y-89700498D01*
X125780252Y-89700500D01*
X125780253Y-89700500D01*
X126219747Y-89700500D01*
X126219748Y-89700500D01*
X126278231Y-89688867D01*
X126344552Y-89644552D01*
X126344553Y-89644549D01*
X126344996Y-89644254D01*
X126403884Y-89627645D01*
X126455001Y-89644254D01*
X126455447Y-89644552D01*
X126521768Y-89688867D01*
X126566230Y-89697711D01*
X126580240Y-89700498D01*
X126580245Y-89700498D01*
X126580251Y-89700500D01*
X126580252Y-89700500D01*
X127019746Y-89700500D01*
X127019747Y-89700500D01*
X127078230Y-89688867D01*
X127144551Y-89644552D01*
X127144552Y-89644549D01*
X127144996Y-89644253D01*
X127203884Y-89627644D01*
X127255001Y-89644253D01*
X127255447Y-89644551D01*
X127255448Y-89644552D01*
X127321769Y-89688867D01*
X127366231Y-89697711D01*
X127380241Y-89700498D01*
X127380246Y-89700498D01*
X127380252Y-89700500D01*
X127380253Y-89700500D01*
X127819747Y-89700500D01*
X127819748Y-89700500D01*
X127878231Y-89688867D01*
X127944552Y-89644552D01*
X127944553Y-89644549D01*
X127944997Y-89644253D01*
X128003885Y-89627644D01*
X128055003Y-89644253D01*
X128055446Y-89644549D01*
X128055448Y-89644552D01*
X128121769Y-89688867D01*
X128166231Y-89697711D01*
X128180241Y-89700498D01*
X128180246Y-89700498D01*
X128180252Y-89700500D01*
X128180253Y-89700500D01*
X128619747Y-89700500D01*
X128619748Y-89700500D01*
X128678231Y-89688867D01*
X128744552Y-89644552D01*
X128744553Y-89644549D01*
X128744997Y-89644253D01*
X128803885Y-89627644D01*
X128855003Y-89644253D01*
X128855446Y-89644549D01*
X128855448Y-89644552D01*
X128921769Y-89688867D01*
X128966231Y-89697711D01*
X128980241Y-89700498D01*
X128980246Y-89700498D01*
X128980252Y-89700500D01*
X128980253Y-89700500D01*
X129419747Y-89700500D01*
X129419748Y-89700500D01*
X129478231Y-89688867D01*
X129478238Y-89688862D01*
X129484891Y-89686107D01*
X129545888Y-89681306D01*
X129598057Y-89713275D01*
X129621473Y-89769802D01*
X129608516Y-89827069D01*
X129603498Y-89835760D01*
X129603497Y-89835762D01*
X129603497Y-89835763D01*
X129574500Y-89943982D01*
X129574500Y-90056018D01*
X129600072Y-90151455D01*
X129603498Y-90164241D01*
X129647519Y-90240486D01*
X129659515Y-90261263D01*
X129738737Y-90340485D01*
X129771079Y-90359157D01*
X129835759Y-90396501D01*
X129835757Y-90396501D01*
X129835761Y-90396502D01*
X129835763Y-90396503D01*
X129943982Y-90425500D01*
X129943984Y-90425500D01*
X130056016Y-90425500D01*
X130056018Y-90425500D01*
X130164237Y-90396503D01*
X130164239Y-90396501D01*
X130164242Y-90396501D01*
X130170235Y-90394019D01*
X130171039Y-90395962D01*
X130221587Y-90385200D01*
X130277491Y-90410067D01*
X130298591Y-90437008D01*
X130305508Y-90449955D01*
X130311133Y-90478231D01*
X130355448Y-90544552D01*
X130356384Y-90545177D01*
X130360749Y-90553347D01*
X130365307Y-90578898D01*
X130372355Y-90603886D01*
X130370683Y-90609031D01*
X130371495Y-90613582D01*
X130364562Y-90627867D01*
X130355746Y-90655002D01*
X130311134Y-90721766D01*
X130311132Y-90721772D01*
X130299501Y-90780241D01*
X130299500Y-90780253D01*
X130299500Y-91219746D01*
X130299501Y-91219758D01*
X130311132Y-91278227D01*
X130311134Y-91278233D01*
X130355746Y-91344998D01*
X130372355Y-91403886D01*
X130355746Y-91455002D01*
X130311134Y-91521766D01*
X130311132Y-91521772D01*
X130299501Y-91580241D01*
X130299500Y-91580253D01*
X130299500Y-92019746D01*
X130299501Y-92019758D01*
X130311132Y-92078227D01*
X130311134Y-92078233D01*
X130355746Y-92144998D01*
X130372355Y-92203886D01*
X130355746Y-92255002D01*
X130311134Y-92321766D01*
X130311132Y-92321772D01*
X130299501Y-92380241D01*
X130299500Y-92380253D01*
X130299500Y-92819746D01*
X130299501Y-92819758D01*
X130311132Y-92878227D01*
X130311134Y-92878233D01*
X130355746Y-92944998D01*
X130372355Y-93003886D01*
X130355746Y-93055002D01*
X130311134Y-93121766D01*
X130311132Y-93121772D01*
X130299501Y-93180241D01*
X130299500Y-93180253D01*
X130299500Y-93619746D01*
X130299501Y-93619758D01*
X130311132Y-93678227D01*
X130311134Y-93678233D01*
X130355746Y-93744998D01*
X130372355Y-93803886D01*
X130355746Y-93855002D01*
X130311134Y-93921766D01*
X130311132Y-93921772D01*
X130299501Y-93980241D01*
X130299500Y-93980253D01*
X130299500Y-94419746D01*
X130299501Y-94419758D01*
X130311132Y-94478227D01*
X130311134Y-94478233D01*
X130355745Y-94544997D01*
X130363045Y-94570880D01*
X130372353Y-94596105D01*
X130371256Y-94599993D01*
X130372354Y-94603885D01*
X130355750Y-94654994D01*
X130348935Y-94665195D01*
X130300887Y-94703078D01*
X130266615Y-94709200D01*
X129525681Y-94709200D01*
X129467490Y-94690293D01*
X129455683Y-94680209D01*
X129434989Y-94659515D01*
X129434986Y-94659513D01*
X129337966Y-94603498D01*
X129337968Y-94603498D01*
X129295977Y-94592247D01*
X129229744Y-94574500D01*
X129117708Y-94574500D01*
X129051474Y-94592247D01*
X129009484Y-94603498D01*
X128912465Y-94659513D01*
X128833239Y-94738739D01*
X128777224Y-94835758D01*
X128777223Y-94835763D01*
X128748226Y-94943982D01*
X128748226Y-95056018D01*
X128766576Y-95124500D01*
X128777224Y-95164241D01*
X128833239Y-95261260D01*
X128833241Y-95261263D01*
X128912463Y-95340485D01*
X129003819Y-95393229D01*
X129044759Y-95438698D01*
X129051155Y-95499548D01*
X129035851Y-95532752D01*
X129036485Y-95533118D01*
X128977224Y-95635758D01*
X128977223Y-95635763D01*
X128948226Y-95743982D01*
X128948226Y-95856018D01*
X128959145Y-95896769D01*
X128977224Y-95964241D01*
X129033239Y-96061260D01*
X129033241Y-96061263D01*
X129112463Y-96140485D01*
X129112465Y-96140486D01*
X129209485Y-96196501D01*
X129209483Y-96196501D01*
X129209487Y-96196502D01*
X129209489Y-96196503D01*
X129317708Y-96225500D01*
X129317710Y-96225500D01*
X129429742Y-96225500D01*
X129429744Y-96225500D01*
X129537963Y-96196503D01*
X129537965Y-96196501D01*
X129537967Y-96196501D01*
X129566790Y-96179859D01*
X129634989Y-96140485D01*
X129655679Y-96119794D01*
X129710194Y-96092019D01*
X129725681Y-96090800D01*
X130266615Y-96090800D01*
X130283326Y-96096229D01*
X130300883Y-96096920D01*
X130311701Y-96105449D01*
X130324806Y-96109707D01*
X130348932Y-96134801D01*
X130355747Y-96145001D01*
X130372354Y-96203890D01*
X130355746Y-96255001D01*
X130311134Y-96321767D01*
X130311132Y-96321772D01*
X130299501Y-96380241D01*
X130299500Y-96380253D01*
X130299500Y-96819746D01*
X130299501Y-96819758D01*
X130311132Y-96878227D01*
X130311134Y-96878233D01*
X130355746Y-96944998D01*
X130372355Y-97003886D01*
X130355746Y-97055002D01*
X130311134Y-97121766D01*
X130311132Y-97121772D01*
X130299501Y-97180241D01*
X130299500Y-97180253D01*
X130299500Y-97619746D01*
X130299501Y-97619758D01*
X130311132Y-97678227D01*
X130311134Y-97678233D01*
X130356046Y-97745447D01*
X130372655Y-97804335D01*
X130356047Y-97855450D01*
X130311603Y-97921964D01*
X130300000Y-97980299D01*
X130300000Y-97999999D01*
X130300001Y-98000000D01*
X131499999Y-98000000D01*
X131500000Y-97999999D01*
X131500000Y-97980302D01*
X131499999Y-97980299D01*
X131488396Y-97921963D01*
X131443953Y-97855451D01*
X131427344Y-97796563D01*
X131443953Y-97745446D01*
X131444549Y-97744553D01*
X131444552Y-97744552D01*
X131488867Y-97678231D01*
X131500500Y-97619748D01*
X131500500Y-97180252D01*
X131488867Y-97121769D01*
X131444552Y-97055448D01*
X131444549Y-97055446D01*
X131444253Y-97055003D01*
X131427644Y-96996115D01*
X131444253Y-96944997D01*
X131444549Y-96944553D01*
X131444552Y-96944552D01*
X131488867Y-96878231D01*
X131500500Y-96819748D01*
X131500500Y-96380252D01*
X131488867Y-96321769D01*
X131444552Y-96255448D01*
X131444549Y-96255446D01*
X131444253Y-96255003D01*
X131427644Y-96196115D01*
X131444253Y-96144997D01*
X131444549Y-96144553D01*
X131444552Y-96144552D01*
X131488867Y-96078231D01*
X131500500Y-96019748D01*
X131500500Y-95580252D01*
X131488867Y-95521769D01*
X131444552Y-95455448D01*
X131444549Y-95455446D01*
X131444253Y-95455003D01*
X131427644Y-95396115D01*
X131444253Y-95344997D01*
X131444549Y-95344553D01*
X131444552Y-95344552D01*
X131488867Y-95278231D01*
X131500500Y-95219748D01*
X131500500Y-94780252D01*
X131488867Y-94721769D01*
X131444552Y-94655448D01*
X131444549Y-94655446D01*
X131444253Y-94655003D01*
X131427644Y-94596115D01*
X131444253Y-94544997D01*
X131444549Y-94544553D01*
X131444552Y-94544552D01*
X131488867Y-94478231D01*
X131500500Y-94419748D01*
X131500500Y-93980252D01*
X131488867Y-93921769D01*
X131444552Y-93855448D01*
X131444549Y-93855446D01*
X131444253Y-93855003D01*
X131427644Y-93796115D01*
X131444253Y-93744997D01*
X131444549Y-93744553D01*
X131444552Y-93744552D01*
X131488867Y-93678231D01*
X131500500Y-93619748D01*
X131500500Y-93180252D01*
X131488867Y-93121769D01*
X131444552Y-93055448D01*
X131444549Y-93055446D01*
X131444253Y-93055003D01*
X131427644Y-92996115D01*
X131444253Y-92944997D01*
X131444549Y-92944553D01*
X131444552Y-92944552D01*
X131488867Y-92878231D01*
X131500500Y-92819748D01*
X131500500Y-92380252D01*
X131488867Y-92321769D01*
X131444552Y-92255448D01*
X131444549Y-92255446D01*
X131444253Y-92255003D01*
X131430234Y-92205299D01*
X134749500Y-92205299D01*
X134749500Y-92224999D01*
X134749501Y-92225000D01*
X135199499Y-92225000D01*
X135199500Y-92224999D01*
X135199500Y-92025001D01*
X135199499Y-92025000D01*
X134929799Y-92025000D01*
X134871463Y-92036603D01*
X134805310Y-92080806D01*
X134805306Y-92080810D01*
X134761103Y-92146963D01*
X134749500Y-92205299D01*
X131430234Y-92205299D01*
X131427644Y-92196115D01*
X131444253Y-92144997D01*
X131444549Y-92144553D01*
X131444552Y-92144552D01*
X131488867Y-92078231D01*
X131500500Y-92019748D01*
X131500500Y-91580252D01*
X131488867Y-91521769D01*
X131444552Y-91455448D01*
X131442804Y-91454280D01*
X131437304Y-91442812D01*
X131434133Y-91419123D01*
X131427644Y-91396115D01*
X131430058Y-91388682D01*
X131429187Y-91382168D01*
X131436686Y-91368284D01*
X131444253Y-91344997D01*
X131444549Y-91344553D01*
X131444552Y-91344552D01*
X131488867Y-91278231D01*
X131500500Y-91219748D01*
X131500500Y-91049999D01*
X132599499Y-91049999D01*
X132599499Y-91050000D01*
X133199772Y-91050000D01*
X133107886Y-91088060D01*
X133037560Y-91158386D01*
X132999500Y-91250272D01*
X132999500Y-91349728D01*
X133037560Y-91441614D01*
X133107886Y-91511940D01*
X133199772Y-91550000D01*
X132599499Y-91550000D01*
X132623476Y-91607887D01*
X132694609Y-91714347D01*
X132785152Y-91804890D01*
X132891610Y-91876022D01*
X133009898Y-91925019D01*
X133009904Y-91925021D01*
X133135478Y-91949999D01*
X133135482Y-91950000D01*
X133183993Y-91950000D01*
X133242184Y-91968907D01*
X133249318Y-91975000D01*
X134449999Y-91975000D01*
X134450000Y-91974999D01*
X134450000Y-91955302D01*
X134449999Y-91955294D01*
X134443987Y-91925073D01*
X134451177Y-91864312D01*
X134486085Y-91823440D01*
X134513847Y-91804890D01*
X134604390Y-91714347D01*
X134675523Y-91607887D01*
X134699501Y-91550000D01*
X134099228Y-91550000D01*
X134191114Y-91511940D01*
X134261440Y-91441614D01*
X134299500Y-91349728D01*
X134299500Y-91250272D01*
X134261440Y-91158386D01*
X134191114Y-91088060D01*
X134099228Y-91050000D01*
X134699501Y-91050000D01*
X134699500Y-91049999D01*
X134675523Y-90992112D01*
X134604390Y-90885652D01*
X134513847Y-90795109D01*
X134407389Y-90723977D01*
X134289101Y-90674980D01*
X134289095Y-90674978D01*
X134163521Y-90650000D01*
X133899501Y-90650000D01*
X133899500Y-90650001D01*
X133899500Y-91049999D01*
X133899501Y-91050000D01*
X133399499Y-91050000D01*
X133399500Y-91049999D01*
X133399500Y-90650001D01*
X133399499Y-90650000D01*
X133135478Y-90650000D01*
X133009904Y-90674978D01*
X133009898Y-90674980D01*
X132891610Y-90723977D01*
X132785152Y-90795109D01*
X132694609Y-90885652D01*
X132623476Y-90992112D01*
X132599499Y-91049999D01*
X131500500Y-91049999D01*
X131500500Y-90780252D01*
X131488867Y-90721769D01*
X131444552Y-90655448D01*
X131444549Y-90655446D01*
X131444253Y-90655003D01*
X131427644Y-90596115D01*
X131444253Y-90544997D01*
X131444549Y-90544553D01*
X131444552Y-90544552D01*
X131488867Y-90478231D01*
X131500500Y-90419748D01*
X131500500Y-89980252D01*
X131488867Y-89921769D01*
X131444552Y-89855448D01*
X131432958Y-89847701D01*
X131378233Y-89811134D01*
X131378231Y-89811133D01*
X131378228Y-89811132D01*
X131378227Y-89811132D01*
X131319758Y-89799501D01*
X131319748Y-89799500D01*
X130480252Y-89799500D01*
X130480249Y-89799500D01*
X130455929Y-89804338D01*
X130426151Y-89800813D01*
X130396346Y-89797680D01*
X130395841Y-89797225D01*
X130395168Y-89797146D01*
X130350878Y-89756739D01*
X130343977Y-89744786D01*
X130331259Y-89684940D01*
X130347400Y-89640289D01*
X130370252Y-89606088D01*
X130418300Y-89568211D01*
X130479438Y-89565809D01*
X130507568Y-89578777D01*
X130521963Y-89588396D01*
X130580299Y-89599999D01*
X130580303Y-89600000D01*
X130699999Y-89600000D01*
X130700000Y-89599999D01*
X130700000Y-89300001D01*
X131200000Y-89300001D01*
X131200000Y-89599999D01*
X131200001Y-89600000D01*
X131319697Y-89600000D01*
X131319700Y-89599999D01*
X131378036Y-89588396D01*
X131444189Y-89544193D01*
X131444193Y-89544189D01*
X131488396Y-89478036D01*
X131499999Y-89419700D01*
X131500000Y-89419697D01*
X131500000Y-89300001D01*
X131499999Y-89300000D01*
X131200001Y-89300000D01*
X131200000Y-89300001D01*
X130700000Y-89300001D01*
X130700000Y-88500001D01*
X131200000Y-88500001D01*
X131200000Y-88799999D01*
X131200001Y-88800000D01*
X131499999Y-88800000D01*
X131500000Y-88799999D01*
X131500000Y-88680302D01*
X131499999Y-88680299D01*
X131488396Y-88621963D01*
X131444193Y-88555810D01*
X131444189Y-88555806D01*
X131378036Y-88511603D01*
X131319700Y-88500000D01*
X131200001Y-88500000D01*
X131200000Y-88500001D01*
X130700000Y-88500001D01*
X130699999Y-88500000D01*
X130580299Y-88500000D01*
X130521964Y-88511603D01*
X130455450Y-88556047D01*
X130396562Y-88572655D01*
X130345447Y-88556046D01*
X130278233Y-88511134D01*
X130278231Y-88511133D01*
X130278228Y-88511132D01*
X130278227Y-88511132D01*
X130219758Y-88499501D01*
X130219748Y-88499500D01*
X129780252Y-88499500D01*
X129780251Y-88499500D01*
X129780241Y-88499501D01*
X129721772Y-88511132D01*
X129721766Y-88511134D01*
X129655002Y-88555746D01*
X129596114Y-88572355D01*
X129544998Y-88555746D01*
X129478233Y-88511134D01*
X129478231Y-88511133D01*
X129478228Y-88511132D01*
X129478227Y-88511132D01*
X129419758Y-88499501D01*
X129419748Y-88499500D01*
X128980252Y-88499500D01*
X128980251Y-88499500D01*
X128980241Y-88499501D01*
X128921772Y-88511132D01*
X128921766Y-88511134D01*
X128855002Y-88555746D01*
X128796114Y-88572355D01*
X128744998Y-88555746D01*
X128678233Y-88511134D01*
X128678231Y-88511133D01*
X128678228Y-88511132D01*
X128678227Y-88511132D01*
X128619758Y-88499501D01*
X128619748Y-88499500D01*
X128180252Y-88499500D01*
X128180251Y-88499500D01*
X128180241Y-88499501D01*
X128121772Y-88511132D01*
X128121766Y-88511134D01*
X128055002Y-88555746D01*
X127996114Y-88572355D01*
X127944998Y-88555746D01*
X127878233Y-88511134D01*
X127878231Y-88511133D01*
X127878228Y-88511132D01*
X127878227Y-88511132D01*
X127819758Y-88499501D01*
X127819748Y-88499500D01*
X127380252Y-88499500D01*
X127380251Y-88499500D01*
X127380241Y-88499501D01*
X127321772Y-88511132D01*
X127321766Y-88511134D01*
X127255001Y-88555746D01*
X127196112Y-88572355D01*
X127144997Y-88555746D01*
X127078232Y-88511134D01*
X127078230Y-88511133D01*
X127078227Y-88511132D01*
X127078226Y-88511132D01*
X127019757Y-88499501D01*
X127019747Y-88499500D01*
X126580251Y-88499500D01*
X126580250Y-88499500D01*
X126580240Y-88499501D01*
X126521771Y-88511132D01*
X126521766Y-88511134D01*
X126455000Y-88555746D01*
X126396112Y-88572354D01*
X126344997Y-88555745D01*
X126278233Y-88511134D01*
X126278231Y-88511133D01*
X126278228Y-88511132D01*
X126278227Y-88511132D01*
X126219758Y-88499501D01*
X126219748Y-88499500D01*
X125780252Y-88499500D01*
X125780251Y-88499500D01*
X125780241Y-88499501D01*
X125721772Y-88511132D01*
X125721767Y-88511134D01*
X125655001Y-88555746D01*
X125596113Y-88572354D01*
X125544998Y-88555745D01*
X125478234Y-88511134D01*
X125478232Y-88511133D01*
X125478229Y-88511132D01*
X125478228Y-88511132D01*
X125419759Y-88499501D01*
X125419749Y-88499500D01*
X124980253Y-88499500D01*
X124980252Y-88499500D01*
X124980242Y-88499501D01*
X124921773Y-88511132D01*
X124921767Y-88511134D01*
X124855002Y-88555746D01*
X124796113Y-88572355D01*
X124744998Y-88555746D01*
X124678233Y-88511134D01*
X124678231Y-88511133D01*
X124678228Y-88511132D01*
X124678227Y-88511132D01*
X124619758Y-88499501D01*
X124619748Y-88499500D01*
X124180252Y-88499500D01*
X124180251Y-88499500D01*
X124180241Y-88499501D01*
X124121772Y-88511132D01*
X124121766Y-88511134D01*
X124055002Y-88555746D01*
X123996114Y-88572355D01*
X123944998Y-88555746D01*
X123878233Y-88511134D01*
X123878231Y-88511133D01*
X123878228Y-88511132D01*
X123878227Y-88511132D01*
X123819758Y-88499501D01*
X123819748Y-88499500D01*
X123380252Y-88499500D01*
X123380251Y-88499500D01*
X123380241Y-88499501D01*
X123321772Y-88511132D01*
X123321766Y-88511134D01*
X123255002Y-88555746D01*
X123196114Y-88572355D01*
X123144998Y-88555746D01*
X123078233Y-88511134D01*
X123078231Y-88511133D01*
X123078228Y-88511132D01*
X123078227Y-88511132D01*
X123019758Y-88499501D01*
X123019748Y-88499500D01*
X122580252Y-88499500D01*
X122580251Y-88499500D01*
X122580241Y-88499501D01*
X122521772Y-88511132D01*
X122521766Y-88511134D01*
X122455002Y-88555746D01*
X122396114Y-88572355D01*
X122344998Y-88555746D01*
X122278233Y-88511134D01*
X122278231Y-88511133D01*
X122278228Y-88511132D01*
X122278227Y-88511132D01*
X122219758Y-88499501D01*
X122219748Y-88499500D01*
X121780252Y-88499500D01*
X121780251Y-88499500D01*
X121780241Y-88499501D01*
X121721772Y-88511132D01*
X121721766Y-88511134D01*
X121654552Y-88556046D01*
X121595663Y-88572655D01*
X121544548Y-88556046D01*
X121478036Y-88511603D01*
X121419700Y-88500000D01*
X121300001Y-88500000D01*
X121300000Y-88500001D01*
X120800000Y-88500001D01*
X120799999Y-88500000D01*
X120680299Y-88500000D01*
X120621964Y-88511603D01*
X120554001Y-88557015D01*
X120495113Y-88573623D01*
X120437709Y-88552445D01*
X120403717Y-88501571D01*
X120400000Y-88474699D01*
X120400000Y-88012333D01*
X120400939Y-88009442D01*
X120400172Y-88006503D01*
X120410309Y-87980603D01*
X120418907Y-87954142D01*
X120422464Y-87949537D01*
X120428484Y-87942202D01*
X120442201Y-87928485D01*
X120548294Y-87841417D01*
X120564413Y-87830647D01*
X120685451Y-87765951D01*
X120703368Y-87758529D01*
X120834699Y-87718690D01*
X120853726Y-87714906D01*
X120951943Y-87705233D01*
X120995158Y-87700977D01*
X121004861Y-87700500D01*
X121039882Y-87700500D01*
X134960118Y-87700500D01*
X134995139Y-87700500D01*
X135004842Y-87700977D01*
G37*
%TD.AperFunction*%
%TD*%
%TA.AperFunction,Conductor*%
%TO.N,+3V3*%
G36*
X124143039Y-99819685D02*
G01*
X124188794Y-99872489D01*
X124200000Y-99924000D01*
X124200000Y-100195874D01*
X124180315Y-100262913D01*
X124127511Y-100308668D01*
X124123456Y-100310434D01*
X124121768Y-100311132D01*
X124055447Y-100355447D01*
X124011132Y-100421769D01*
X124011131Y-100421770D01*
X123999500Y-100480247D01*
X123999500Y-101276000D01*
X123979815Y-101343039D01*
X123927011Y-101388794D01*
X123875500Y-101400000D01*
X123424000Y-101400000D01*
X123356961Y-101380315D01*
X123311206Y-101327511D01*
X123300000Y-101276000D01*
X123300000Y-99924000D01*
X123319685Y-99856961D01*
X123372489Y-99811206D01*
X123424000Y-99800000D01*
X124076000Y-99800000D01*
X124143039Y-99819685D01*
G37*
%TD.AperFunction*%
%TD*%
M02*
