%TF.GenerationSoftware,KiCad,Pcbnew,9.0.7*%
%TF.CreationDate,2026-02-06T02:12:01+00:00*%
%TF.ProjectId,WSB-PC,5753422d-5043-42e6-9b69-6361645f7063,rev?*%
%TF.SameCoordinates,Original*%
%TF.FileFunction,Legend,Top*%
%TF.FilePolarity,Positive*%
%FSLAX46Y46*%
G04 Gerber Fmt 4.6, Leading zero omitted, Abs format (unit mm)*
G04 Created by KiCad (PCBNEW 9.0.7) date 2026-02-06 02:12:01*
%MOMM*%
%LPD*%
G01*
G04 APERTURE LIST*
G04 Aperture macros list*
%AMOutline5P*
0 Free polygon, 5 corners , with rotation*
0 The origin of the aperture is its center*
0 number of corners: always 5*
0 $1 to $10 corner X, Y*
0 $11 Rotation angle, in degrees counterclockwise*
0 create outline with 5 corners*
4,1,5,$1,$2,$3,$4,$5,$6,$7,$8,$9,$10,$1,$2,$11*%
%AMOutline6P*
0 Free polygon, 6 corners , with rotation*
0 The origin of the aperture is its center*
0 number of corners: always 6*
0 $1 to $12 corner X, Y*
0 $13 Rotation angle, in degrees counterclockwise*
0 create outline with 6 corners*
4,1,6,$1,$2,$3,$4,$5,$6,$7,$8,$9,$10,$11,$12,$1,$2,$13*%
%AMOutline7P*
0 Free polygon, 7 corners , with rotation*
0 The origin of the aperture is its center*
0 number of corners: always 7*
0 $1 to $14 corner X, Y*
0 $15 Rotation angle, in degrees counterclockwise*
0 create outline with 7 corners*
4,1,7,$1,$2,$3,$4,$5,$6,$7,$8,$9,$10,$11,$12,$13,$14,$1,$2,$15*%
%AMOutline8P*
0 Free polygon, 8 corners , with rotation*
0 The origin of the aperture is its center*
0 number of corners: always 8*
0 $1 to $16 corner X, Y*
0 $17 Rotation angle, in degrees counterclockwise*
0 create outline with 8 corners*
4,1,8,$1,$2,$3,$4,$5,$6,$7,$8,$9,$10,$11,$12,$13,$14,$15,$16,$1,$2,$17*%
G04 Aperture macros list end*
%ADD10C,0.150000*%
%ADD11C,0.120000*%
%ADD12C,0.254000*%
%ADD13R,0.400000X0.800000*%
%ADD14R,0.800000X0.400000*%
%ADD15Outline5P,-0.725000X0.130500X-0.130500X0.725000X0.725000X0.725000X0.725000X-0.725000X-0.725000X-0.725000X90.000000*%
%ADD16R,1.450000X1.450000*%
%ADD17R,0.700000X0.700000*%
%ADD18R,0.800000X0.300000*%
%ADD19O,1.800000X0.900000*%
G04 APERTURE END LIST*
D10*
X132628570Y-100538485D02*
X132666666Y-100500390D01*
X132666666Y-100500390D02*
X132742856Y-100462295D01*
X132742856Y-100462295D02*
X132933332Y-100462295D01*
X132933332Y-100462295D02*
X133009523Y-100500390D01*
X133009523Y-100500390D02*
X133047618Y-100538485D01*
X133047618Y-100538485D02*
X133085713Y-100614676D01*
X133085713Y-100614676D02*
X133085713Y-100690866D01*
X133085713Y-100690866D02*
X133047618Y-100805152D01*
X133047618Y-100805152D02*
X132590475Y-101262295D01*
X132590475Y-101262295D02*
X133085713Y-101262295D01*
X133580952Y-100462295D02*
X133657142Y-100462295D01*
X133657142Y-100462295D02*
X133733333Y-100500390D01*
X133733333Y-100500390D02*
X133771428Y-100538485D01*
X133771428Y-100538485D02*
X133809523Y-100614676D01*
X133809523Y-100614676D02*
X133847618Y-100767057D01*
X133847618Y-100767057D02*
X133847618Y-100957533D01*
X133847618Y-100957533D02*
X133809523Y-101109914D01*
X133809523Y-101109914D02*
X133771428Y-101186104D01*
X133771428Y-101186104D02*
X133733333Y-101224200D01*
X133733333Y-101224200D02*
X133657142Y-101262295D01*
X133657142Y-101262295D02*
X133580952Y-101262295D01*
X133580952Y-101262295D02*
X133504761Y-101224200D01*
X133504761Y-101224200D02*
X133466666Y-101186104D01*
X133466666Y-101186104D02*
X133428571Y-101109914D01*
X133428571Y-101109914D02*
X133390475Y-100957533D01*
X133390475Y-100957533D02*
X133390475Y-100767057D01*
X133390475Y-100767057D02*
X133428571Y-100614676D01*
X133428571Y-100614676D02*
X133466666Y-100538485D01*
X133466666Y-100538485D02*
X133504761Y-100500390D01*
X133504761Y-100500390D02*
X133580952Y-100462295D01*
X134152380Y-100538485D02*
X134190476Y-100500390D01*
X134190476Y-100500390D02*
X134266666Y-100462295D01*
X134266666Y-100462295D02*
X134457142Y-100462295D01*
X134457142Y-100462295D02*
X134533333Y-100500390D01*
X134533333Y-100500390D02*
X134571428Y-100538485D01*
X134571428Y-100538485D02*
X134609523Y-100614676D01*
X134609523Y-100614676D02*
X134609523Y-100690866D01*
X134609523Y-100690866D02*
X134571428Y-100805152D01*
X134571428Y-100805152D02*
X134114285Y-101262295D01*
X134114285Y-101262295D02*
X134609523Y-101262295D01*
X135295238Y-100462295D02*
X135142857Y-100462295D01*
X135142857Y-100462295D02*
X135066666Y-100500390D01*
X135066666Y-100500390D02*
X135028571Y-100538485D01*
X135028571Y-100538485D02*
X134952381Y-100652771D01*
X134952381Y-100652771D02*
X134914285Y-100805152D01*
X134914285Y-100805152D02*
X134914285Y-101109914D01*
X134914285Y-101109914D02*
X134952381Y-101186104D01*
X134952381Y-101186104D02*
X134990476Y-101224200D01*
X134990476Y-101224200D02*
X135066666Y-101262295D01*
X135066666Y-101262295D02*
X135219047Y-101262295D01*
X135219047Y-101262295D02*
X135295238Y-101224200D01*
X135295238Y-101224200D02*
X135333333Y-101186104D01*
X135333333Y-101186104D02*
X135371428Y-101109914D01*
X135371428Y-101109914D02*
X135371428Y-100919438D01*
X135371428Y-100919438D02*
X135333333Y-100843247D01*
X135333333Y-100843247D02*
X135295238Y-100805152D01*
X135295238Y-100805152D02*
X135219047Y-100767057D01*
X135219047Y-100767057D02*
X135066666Y-100767057D01*
X135066666Y-100767057D02*
X134990476Y-100805152D01*
X134990476Y-100805152D02*
X134952381Y-100843247D01*
X134952381Y-100843247D02*
X134914285Y-100919438D01*
X132223810Y-89243247D02*
X132490476Y-89243247D01*
X132604762Y-89662295D02*
X132223810Y-89662295D01*
X132223810Y-89662295D02*
X132223810Y-88862295D01*
X132223810Y-88862295D02*
X132604762Y-88862295D01*
X132947620Y-89662295D02*
X132947620Y-89128961D01*
X132947620Y-89281342D02*
X132985715Y-89205152D01*
X132985715Y-89205152D02*
X133023810Y-89167057D01*
X133023810Y-89167057D02*
X133100001Y-89128961D01*
X133100001Y-89128961D02*
X133176191Y-89128961D01*
X133442858Y-89662295D02*
X133442858Y-89128961D01*
X133442858Y-88862295D02*
X133404762Y-88900390D01*
X133404762Y-88900390D02*
X133442858Y-88938485D01*
X133442858Y-88938485D02*
X133480953Y-88900390D01*
X133480953Y-88900390D02*
X133442858Y-88862295D01*
X133442858Y-88862295D02*
X133442858Y-88938485D01*
X134166667Y-89624200D02*
X134090476Y-89662295D01*
X134090476Y-89662295D02*
X133938095Y-89662295D01*
X133938095Y-89662295D02*
X133861905Y-89624200D01*
X133861905Y-89624200D02*
X133823810Y-89586104D01*
X133823810Y-89586104D02*
X133785714Y-89509914D01*
X133785714Y-89509914D02*
X133785714Y-89281342D01*
X133785714Y-89281342D02*
X133823810Y-89205152D01*
X133823810Y-89205152D02*
X133861905Y-89167057D01*
X133861905Y-89167057D02*
X133938095Y-89128961D01*
X133938095Y-89128961D02*
X134090476Y-89128961D01*
X134090476Y-89128961D02*
X134166667Y-89167057D01*
X135119048Y-89662295D02*
X135119048Y-88862295D01*
X135119048Y-88862295D02*
X135576191Y-89662295D01*
X135576191Y-89662295D02*
X135576191Y-88862295D01*
D11*
%TO.C,U2*%
X114850000Y-88250000D02*
X131750000Y-88250000D01*
X114850000Y-101750000D02*
X114850000Y-88250000D01*
X131750000Y-88250000D02*
X131750000Y-101750000D01*
X131750000Y-101750000D02*
X114850000Y-101750000D01*
X122240000Y-102436001D02*
X121760000Y-102436000D01*
X122000000Y-102100000D01*
X122240000Y-102436001D01*
G36*
X122240000Y-102436001D02*
G01*
X121760000Y-102436000D01*
X122000000Y-102100000D01*
X122240000Y-102436001D01*
G37*
D12*
%TO.C,P1*%
X133102500Y-90500000D02*
X133102500Y-90584000D01*
X133102500Y-92016000D02*
X133102500Y-97984000D01*
X133102500Y-99416000D02*
X133102500Y-99500000D01*
X135674500Y-90500000D02*
X133102500Y-90500000D01*
X135674500Y-99500000D02*
X133102500Y-99500000D01*
%TD*%
%LPC*%
D13*
%TO.C,U2*%
X122000000Y-100900000D03*
X122800000Y-100900000D03*
X123600000Y-100900000D03*
X124400000Y-100900000D03*
X125200001Y-100900000D03*
X126000000Y-100900000D03*
X126799999Y-100900000D03*
X127600000Y-100900000D03*
X128400000Y-100900000D03*
X129200000Y-100900000D03*
X130000000Y-100900000D03*
D14*
X130900000Y-99800000D03*
X130900000Y-99000000D03*
X130900000Y-98200000D03*
X130900000Y-97400000D03*
X130900000Y-96600000D03*
X130900000Y-95800000D03*
X130900000Y-95000000D03*
X130900000Y-94200000D03*
X130900000Y-93400000D03*
X130900000Y-92600000D03*
X130900000Y-91800000D03*
X130900000Y-91000000D03*
X130900000Y-90200000D03*
D13*
X130000000Y-89100000D03*
X129200000Y-89100000D03*
X128400000Y-89100000D03*
X127600000Y-89100000D03*
X126799999Y-89100000D03*
X126000000Y-89100000D03*
X125200001Y-89100000D03*
X124400000Y-89100000D03*
X123600000Y-89100000D03*
X122800000Y-89100000D03*
X122000000Y-89100000D03*
D14*
X121100000Y-90200000D03*
X121100000Y-91000000D03*
X121100000Y-91800000D03*
X121100000Y-92600000D03*
X121100000Y-93400000D03*
X121100000Y-94200000D03*
X121100000Y-95000000D03*
X121100000Y-95800000D03*
X121100000Y-96600000D03*
X121100000Y-97400000D03*
X121100000Y-98200000D03*
X121100000Y-99000000D03*
X121100000Y-99800000D03*
D15*
X124025000Y-96975000D03*
D16*
X126000000Y-96975000D03*
X127975000Y-96975000D03*
X124025000Y-95000000D03*
X126000000Y-95000000D03*
X127975000Y-95000000D03*
X124025000Y-93025000D03*
X126000000Y-93025000D03*
X127975000Y-93025000D03*
D17*
X121050000Y-89050000D03*
X130950000Y-89050000D03*
X130950000Y-100950000D03*
X121050000Y-100950000D03*
%TD*%
D18*
%TO.C,P1*%
X133850000Y-92125000D03*
X133850000Y-92625000D03*
X133850000Y-93125000D03*
X133850000Y-93625000D03*
X133850000Y-94125000D03*
X133850000Y-94625000D03*
X133850000Y-95125000D03*
X133850000Y-95625000D03*
X133850000Y-96125000D03*
X133850000Y-96625000D03*
X133850000Y-97125000D03*
X133850000Y-97625000D03*
X135350000Y-97875000D03*
X135349500Y-97375000D03*
X135349500Y-96875000D03*
X135349500Y-96375000D03*
X135349500Y-95875000D03*
X135349500Y-95375000D03*
X135349500Y-94875000D03*
X135349500Y-94375000D03*
X135349500Y-93875000D03*
X135349500Y-93375000D03*
X135349500Y-92875000D03*
X135349500Y-92375000D03*
D19*
X133649000Y-98700000D03*
X133649500Y-91300000D03*
%TD*%
%LPD*%
M02*
