%TF.GenerationSoftware,KiCad,Pcbnew,9.0.7*%
%TF.CreationDate,2026-02-06T02:12:00+00:00*%
%TF.ProjectId,WSB-PC,5753422d-5043-42e6-9b69-6361645f7063,rev?*%
%TF.SameCoordinates,Original*%
%TF.FileFunction,Paste,Top*%
%TF.FilePolarity,Positive*%
%FSLAX46Y46*%
G04 Gerber Fmt 4.6, Leading zero omitted, Abs format (unit mm)*
G04 Created by KiCad (PCBNEW 9.0.7) date 2026-02-06 02:12:00*
%MOMM*%
%LPD*%
G01*
G04 APERTURE LIST*
G04 Aperture macros list*
%AMOutline5P*
0 Free polygon, 5 corners , with rotation*
0 The origin of the aperture is its center*
0 number of corners: always 5*
0 $1 to $10 corner X, Y*
0 $11 Rotation angle, in degrees counterclockwise*
0 create outline with 5 corners*
4,1,5,$1,$2,$3,$4,$5,$6,$7,$8,$9,$10,$1,$2,$11*%
%AMOutline6P*
0 Free polygon, 6 corners , with rotation*
0 The origin of the aperture is its center*
0 number of corners: always 6*
0 $1 to $12 corner X, Y*
0 $13 Rotation angle, in degrees counterclockwise*
0 create outline with 6 corners*
4,1,6,$1,$2,$3,$4,$5,$6,$7,$8,$9,$10,$11,$12,$1,$2,$13*%
%AMOutline7P*
0 Free polygon, 7 corners , with rotation*
0 The origin of the aperture is its center*
0 number of corners: always 7*
0 $1 to $14 corner X, Y*
0 $15 Rotation angle, in degrees counterclockwise*
0 create outline with 7 corners*
4,1,7,$1,$2,$3,$4,$5,$6,$7,$8,$9,$10,$11,$12,$13,$14,$1,$2,$15*%
%AMOutline8P*
0 Free polygon, 8 corners , with rotation*
0 The origin of the aperture is its center*
0 number of corners: always 8*
0 $1 to $16 corner X, Y*
0 $17 Rotation angle, in degrees counterclockwise*
0 create outline with 8 corners*
4,1,8,$1,$2,$3,$4,$5,$6,$7,$8,$9,$10,$11,$12,$13,$14,$15,$16,$1,$2,$17*%
G04 Aperture macros list end*
%ADD10C,0.000000*%
%ADD11R,0.400000X0.800000*%
%ADD12R,0.800000X0.400000*%
%ADD13Outline5P,-0.725000X0.130500X-0.130500X0.725000X0.725000X0.725000X0.725000X-0.725000X-0.725000X-0.725000X90.000000*%
%ADD14R,1.450000X1.450000*%
%ADD15R,0.700000X0.700000*%
%ADD16R,0.800000X0.300000*%
G04 APERTURE END LIST*
D10*
%TO.C,P1*%
G36*
X134250000Y-92275000D02*
G01*
X133450000Y-92275000D01*
X133450000Y-91975000D01*
X134250000Y-91975000D01*
X134250000Y-92275000D01*
G37*
G36*
X134250000Y-92775000D02*
G01*
X133450000Y-92775000D01*
X133450000Y-92475000D01*
X134250000Y-92475000D01*
X134250000Y-92775000D01*
G37*
G36*
X134250000Y-96775000D02*
G01*
X133450000Y-96775000D01*
X133450000Y-96475000D01*
X134250000Y-96475000D01*
X134250000Y-96775000D01*
G37*
G36*
X134250000Y-97275000D02*
G01*
X133450000Y-97275000D01*
X133450000Y-96975000D01*
X134250000Y-96975000D01*
X134250000Y-97275000D01*
G37*
G36*
X134250000Y-97775000D02*
G01*
X133450000Y-97775000D01*
X133450000Y-97475000D01*
X134250000Y-97475000D01*
X134250000Y-97775000D01*
G37*
G36*
X134250000Y-93275000D02*
G01*
X133450000Y-93275000D01*
X133450000Y-92975000D01*
X134250000Y-92975000D01*
X134250000Y-93275000D01*
G37*
G36*
X134250000Y-93775000D02*
G01*
X133450000Y-93775000D01*
X133450000Y-93475000D01*
X134250000Y-93475000D01*
X134250000Y-93775000D01*
G37*
G36*
X134250000Y-94275000D02*
G01*
X133450000Y-94275000D01*
X133450000Y-93975000D01*
X134250000Y-93975000D01*
X134250000Y-94275000D01*
G37*
G36*
X134250000Y-94775000D02*
G01*
X133450000Y-94775000D01*
X133450000Y-94475000D01*
X134250000Y-94475000D01*
X134250000Y-94775000D01*
G37*
G36*
X134250000Y-95275000D02*
G01*
X133450000Y-95275000D01*
X133450000Y-94975000D01*
X134250000Y-94975000D01*
X134250000Y-95275000D01*
G37*
G36*
X134250000Y-95775000D02*
G01*
X133450000Y-95775000D01*
X133450000Y-95475000D01*
X134250000Y-95475000D01*
X134250000Y-95775000D01*
G37*
G36*
X134250000Y-96275000D02*
G01*
X133450000Y-96275000D01*
X133450000Y-95975000D01*
X134250000Y-95975000D01*
X134250000Y-96275000D01*
G37*
G36*
X135749500Y-92525000D02*
G01*
X134949500Y-92525000D01*
X134949500Y-92225000D01*
X135749500Y-92225000D01*
X135749500Y-92525000D01*
G37*
G36*
X135749500Y-93025000D02*
G01*
X134949500Y-93025000D01*
X134949500Y-92725000D01*
X135749500Y-92725000D01*
X135749500Y-93025000D01*
G37*
G36*
X135749500Y-93525000D02*
G01*
X134949500Y-93525000D01*
X134949500Y-93225000D01*
X135749500Y-93225000D01*
X135749500Y-93525000D01*
G37*
G36*
X135749500Y-94025000D02*
G01*
X134949500Y-94025000D01*
X134949500Y-93725000D01*
X135749500Y-93725000D01*
X135749500Y-94025000D01*
G37*
G36*
X135749500Y-94525000D02*
G01*
X134949500Y-94525000D01*
X134949500Y-94225000D01*
X135749500Y-94225000D01*
X135749500Y-94525000D01*
G37*
G36*
X135749500Y-95025000D02*
G01*
X134949500Y-95025000D01*
X134949500Y-94725000D01*
X135749500Y-94725000D01*
X135749500Y-95025000D01*
G37*
G36*
X135749500Y-95525000D02*
G01*
X134949500Y-95525000D01*
X134949500Y-95225000D01*
X135749500Y-95225000D01*
X135749500Y-95525000D01*
G37*
G36*
X135749500Y-96025000D02*
G01*
X134949500Y-96025000D01*
X134949500Y-95725000D01*
X135749500Y-95725000D01*
X135749500Y-96025000D01*
G37*
G36*
X135749500Y-96525000D02*
G01*
X134949500Y-96525000D01*
X134949500Y-96225000D01*
X135749500Y-96225000D01*
X135749500Y-96525000D01*
G37*
G36*
X135749500Y-97025000D02*
G01*
X134949500Y-97025000D01*
X134949500Y-96725000D01*
X135749500Y-96725000D01*
X135749500Y-97025000D01*
G37*
G36*
X135749500Y-97525000D02*
G01*
X134949500Y-97525000D01*
X134949500Y-97225000D01*
X135749500Y-97225000D01*
X135749500Y-97525000D01*
G37*
G36*
X135749500Y-98025000D02*
G01*
X134949500Y-98025000D01*
X134949500Y-97725000D01*
X135749500Y-97725000D01*
X135749500Y-98025000D01*
G37*
G36*
X134121500Y-98250500D02*
G01*
X134144000Y-98252000D01*
X134166500Y-98255000D01*
X134188500Y-98259000D01*
X134210500Y-98264000D01*
X134232000Y-98270000D01*
X134253000Y-98277000D01*
X134274000Y-98285500D01*
X134294500Y-98294500D01*
X134314500Y-98305000D01*
X134334000Y-98316000D01*
X134352500Y-98328000D01*
X134371000Y-98341500D01*
X134388500Y-98355500D01*
X134405500Y-98370000D01*
X134421500Y-98386000D01*
X134436500Y-98402500D01*
X134451000Y-98419500D01*
X134464500Y-98437500D01*
X134477500Y-98456000D01*
X134489000Y-98475000D01*
X134499500Y-98494500D01*
X134509500Y-98515000D01*
X134518000Y-98535500D01*
X134526000Y-98556500D01*
X134532500Y-98578000D01*
X134538000Y-98600000D01*
X134542500Y-98622000D01*
X134546000Y-98644000D01*
X134548000Y-98666500D01*
X134549000Y-98689000D01*
X134549000Y-98711000D01*
X134548000Y-98733500D01*
X134546000Y-98756000D01*
X134542500Y-98778000D01*
X134538000Y-98800000D01*
X134532500Y-98822000D01*
X134526000Y-98843500D01*
X134518000Y-98864500D01*
X134509500Y-98885000D01*
X134499500Y-98905500D01*
X134489000Y-98925000D01*
X134477500Y-98944000D01*
X134464500Y-98962500D01*
X134451000Y-98980500D01*
X134436500Y-98998000D01*
X134421500Y-99014000D01*
X134405500Y-99030000D01*
X134388500Y-99044500D01*
X134371000Y-99058500D01*
X134352500Y-99072000D01*
X134334000Y-99084000D01*
X134314500Y-99095000D01*
X134294500Y-99105500D01*
X134274000Y-99114500D01*
X134253000Y-99123000D01*
X134232000Y-99130000D01*
X134210500Y-99136000D01*
X134188500Y-99141000D01*
X134166500Y-99145000D01*
X134144000Y-99148000D01*
X134121500Y-99149500D01*
X134099000Y-99150000D01*
X133199000Y-99150000D01*
X133177000Y-99149500D01*
X133154500Y-99148000D01*
X133132000Y-99145000D01*
X133110000Y-99141000D01*
X133088000Y-99136000D01*
X133066500Y-99130000D01*
X133045500Y-99123000D01*
X133024500Y-99114500D01*
X133004000Y-99105500D01*
X132984000Y-99095000D01*
X132964500Y-99084000D01*
X132946000Y-99072000D01*
X132927500Y-99058500D01*
X132910000Y-99044500D01*
X132893000Y-99030000D01*
X132877000Y-99014000D01*
X132862000Y-98998000D01*
X132847500Y-98980500D01*
X132834000Y-98962500D01*
X132821000Y-98944000D01*
X132809500Y-98925000D01*
X132799000Y-98905500D01*
X132789000Y-98885000D01*
X132780500Y-98864500D01*
X132772500Y-98843500D01*
X132766000Y-98822000D01*
X132760500Y-98800000D01*
X132756000Y-98778000D01*
X132752500Y-98756000D01*
X132750500Y-98733500D01*
X132749500Y-98711000D01*
X132749500Y-98689000D01*
X132750500Y-98666500D01*
X132752500Y-98644000D01*
X132756000Y-98622000D01*
X132760500Y-98600000D01*
X132766000Y-98578000D01*
X132772500Y-98556500D01*
X132780500Y-98535500D01*
X132789000Y-98515000D01*
X132799000Y-98494500D01*
X132809500Y-98475000D01*
X132821000Y-98456000D01*
X132834000Y-98437500D01*
X132847500Y-98419500D01*
X132862000Y-98402500D01*
X132877000Y-98386000D01*
X132893000Y-98370000D01*
X132910000Y-98355500D01*
X132927500Y-98341500D01*
X132946000Y-98328000D01*
X132964500Y-98316000D01*
X132984000Y-98305000D01*
X133004000Y-98294500D01*
X133024500Y-98285500D01*
X133045500Y-98277000D01*
X133066500Y-98270000D01*
X133088000Y-98264000D01*
X133110000Y-98259000D01*
X133132000Y-98255000D01*
X133154500Y-98252000D01*
X133177000Y-98250500D01*
X133199000Y-98250000D01*
X134099000Y-98250000D01*
X134121500Y-98250500D01*
G37*
G36*
X134122000Y-90850500D02*
G01*
X134144500Y-90852000D01*
X134167000Y-90855000D01*
X134189000Y-90859000D01*
X134211000Y-90864000D01*
X134232500Y-90870000D01*
X134253500Y-90877000D01*
X134274500Y-90885500D01*
X134295000Y-90894500D01*
X134315000Y-90905000D01*
X134334500Y-90916000D01*
X134353000Y-90928000D01*
X134371500Y-90941500D01*
X134389000Y-90955500D01*
X134406000Y-90970000D01*
X134422000Y-90986000D01*
X134437000Y-91002000D01*
X134451500Y-91019500D01*
X134465000Y-91037500D01*
X134478000Y-91056000D01*
X134489500Y-91075000D01*
X134500000Y-91094500D01*
X134510000Y-91115000D01*
X134518500Y-91135500D01*
X134526500Y-91156500D01*
X134533000Y-91178000D01*
X134538500Y-91200000D01*
X134543000Y-91222000D01*
X134546500Y-91244000D01*
X134548500Y-91266500D01*
X134549500Y-91289000D01*
X134549500Y-91311000D01*
X134548500Y-91333500D01*
X134546500Y-91356000D01*
X134543000Y-91378000D01*
X134538500Y-91400000D01*
X134533000Y-91422000D01*
X134526500Y-91443500D01*
X134518500Y-91464500D01*
X134510000Y-91485000D01*
X134500000Y-91505500D01*
X134489500Y-91525000D01*
X134478000Y-91544000D01*
X134465000Y-91562500D01*
X134451500Y-91580500D01*
X134437000Y-91597500D01*
X134422000Y-91614000D01*
X134406000Y-91630000D01*
X134389000Y-91644500D01*
X134371500Y-91658500D01*
X134353000Y-91672000D01*
X134334500Y-91684000D01*
X134315000Y-91695000D01*
X134295000Y-91705500D01*
X134274500Y-91714500D01*
X134253500Y-91723000D01*
X134232500Y-91730000D01*
X134211000Y-91736000D01*
X134189000Y-91741000D01*
X134167000Y-91745000D01*
X134144500Y-91748000D01*
X134122000Y-91749500D01*
X134100000Y-91750000D01*
X133200000Y-91750000D01*
X133177500Y-91749500D01*
X133155000Y-91748000D01*
X133132500Y-91745000D01*
X133110500Y-91741000D01*
X133088500Y-91736000D01*
X133067000Y-91730000D01*
X133046000Y-91723000D01*
X133025000Y-91714500D01*
X133004500Y-91705500D01*
X132984500Y-91695000D01*
X132965000Y-91684000D01*
X132946500Y-91672000D01*
X132928000Y-91658500D01*
X132910500Y-91644500D01*
X132893500Y-91630000D01*
X132877500Y-91614000D01*
X132862500Y-91597500D01*
X132848000Y-91580500D01*
X132834500Y-91562500D01*
X132821500Y-91544000D01*
X132810000Y-91525000D01*
X132799500Y-91505500D01*
X132789500Y-91485000D01*
X132781000Y-91464500D01*
X132773000Y-91443500D01*
X132766500Y-91422000D01*
X132761000Y-91400000D01*
X132756500Y-91378000D01*
X132753000Y-91356000D01*
X132751000Y-91333500D01*
X132750000Y-91311000D01*
X132750000Y-91289000D01*
X132751000Y-91266500D01*
X132753000Y-91244000D01*
X132756500Y-91222000D01*
X132761000Y-91200000D01*
X132766500Y-91178000D01*
X132773000Y-91156500D01*
X132781000Y-91135500D01*
X132789500Y-91115000D01*
X132799500Y-91094500D01*
X132810000Y-91075000D01*
X132821500Y-91056000D01*
X132834500Y-91037500D01*
X132848000Y-91019500D01*
X132862500Y-91002000D01*
X132877500Y-90986000D01*
X132893500Y-90970000D01*
X132910500Y-90955500D01*
X132928000Y-90941500D01*
X132946500Y-90928000D01*
X132965000Y-90916000D01*
X132984500Y-90905000D01*
X133004500Y-90894500D01*
X133025000Y-90885500D01*
X133046000Y-90877000D01*
X133067000Y-90870000D01*
X133088500Y-90864000D01*
X133110500Y-90859000D01*
X133132500Y-90855000D01*
X133155000Y-90852000D01*
X133177500Y-90850500D01*
X133200000Y-90850000D01*
X134100000Y-90850000D01*
X134122000Y-90850500D01*
G37*
%TD*%
D11*
%TO.C,U2*%
X122000000Y-100900000D03*
X122800000Y-100900000D03*
X123600000Y-100900000D03*
X124400000Y-100900000D03*
X125200001Y-100900000D03*
X126000000Y-100900000D03*
X126799999Y-100900000D03*
X127600000Y-100900000D03*
X128400000Y-100900000D03*
X129200000Y-100900000D03*
X130000000Y-100900000D03*
D12*
X130900000Y-99800000D03*
X130900000Y-99000000D03*
X130900000Y-98200000D03*
X130900000Y-97400000D03*
X130900000Y-96600000D03*
X130900000Y-95800000D03*
X130900000Y-95000000D03*
X130900000Y-94200000D03*
X130900000Y-93400000D03*
X130900000Y-92600000D03*
X130900000Y-91800000D03*
X130900000Y-91000000D03*
X130900000Y-90200000D03*
D11*
X130000000Y-89100000D03*
X129200000Y-89100000D03*
X128400000Y-89100000D03*
X127600000Y-89100000D03*
X126799999Y-89100000D03*
X126000000Y-89100000D03*
X125200001Y-89100000D03*
X124400000Y-89100000D03*
X123600000Y-89100000D03*
X122800000Y-89100000D03*
X122000000Y-89100000D03*
D12*
X121100000Y-90200000D03*
X121100000Y-91000000D03*
X121100000Y-91800000D03*
X121100000Y-92600000D03*
X121100000Y-93400000D03*
X121100000Y-94200000D03*
X121100000Y-95000000D03*
X121100000Y-95800000D03*
X121100000Y-96600000D03*
X121100000Y-97400000D03*
X121100000Y-98200000D03*
X121100000Y-99000000D03*
X121100000Y-99800000D03*
D13*
X124025000Y-96975000D03*
D14*
X126000000Y-96975000D03*
X127975000Y-96975000D03*
X124025000Y-95000000D03*
X126000000Y-95000000D03*
X127975000Y-95000000D03*
X124025000Y-93025000D03*
X126000000Y-93025000D03*
X127975000Y-93025000D03*
D15*
X121050000Y-89050000D03*
X130950000Y-89050000D03*
X130950000Y-100950000D03*
X121050000Y-100950000D03*
%TD*%
D16*
%TO.C,P1*%
X133850000Y-92125000D03*
X133850000Y-92625000D03*
X133850000Y-93125000D03*
X133850000Y-93625000D03*
X133850000Y-94125000D03*
X133850000Y-94625000D03*
X133850000Y-95125000D03*
X133850000Y-95625000D03*
X133850000Y-96125000D03*
X133850000Y-96625000D03*
X133850000Y-97125000D03*
X133850000Y-97625000D03*
X135350000Y-97875000D03*
X135349500Y-97375000D03*
X135349500Y-96875000D03*
X135349500Y-96375000D03*
X135349500Y-95875000D03*
X135349500Y-95375000D03*
X135349500Y-94875000D03*
X135349500Y-94375000D03*
X135349500Y-93875000D03*
X135349500Y-93375000D03*
X135349500Y-92875000D03*
X135349500Y-92375000D03*
%TD*%
M02*
