%TF.GenerationSoftware,KiCad,Pcbnew,9.0.7*%
%TF.CreationDate,2026-02-06T02:12:01+00:00*%
%TF.ProjectId,WSB-PC,5753422d-5043-42e6-9b69-6361645f7063,rev?*%
%TF.SameCoordinates,Original*%
%TF.FileFunction,Legend,Bot*%
%TF.FilePolarity,Positive*%
%FSLAX46Y46*%
G04 Gerber Fmt 4.6, Leading zero omitted, Abs format (unit mm)*
G04 Created by KiCad (PCBNEW 9.0.7) date 2026-02-06 02:12:01*
%MOMM*%
%LPD*%
G01*
G04 APERTURE LIST*
G04 Aperture macros list*
%AMRoundRect*
0 Rectangle with rounded corners*
0 $1 Rounding radius*
0 $2 $3 $4 $5 $6 $7 $8 $9 X,Y pos of 4 corners*
0 Add a 4 corners polygon primitive as box body*
4,1,4,$2,$3,$4,$5,$6,$7,$8,$9,$2,$3,0*
0 Add four circle primitives for the rounded corners*
1,1,$1+$1,$2,$3*
1,1,$1+$1,$4,$5*
1,1,$1+$1,$6,$7*
1,1,$1+$1,$8,$9*
0 Add four rect primitives between the rounded corners*
20,1,$1+$1,$2,$3,$4,$5,0*
20,1,$1+$1,$4,$5,$6,$7,0*
20,1,$1+$1,$6,$7,$8,$9,0*
20,1,$1+$1,$8,$9,$2,$3,0*%
G04 Aperture macros list end*
%ADD10C,0.150000*%
%ADD11C,0.120000*%
%ADD12C,0.152000*%
%ADD13C,0.200000*%
%ADD14C,0.010000*%
%ADD15C,1.000000*%
%ADD16RoundRect,0.100000X-0.130000X-0.100000X0.130000X-0.100000X0.130000X0.100000X-0.130000X0.100000X0*%
%ADD17RoundRect,0.100000X-0.100000X0.130000X-0.100000X-0.130000X0.100000X-0.130000X0.100000X0.130000X0*%
%ADD18O,1.800000X0.900000*%
%ADD19RoundRect,0.100000X0.100000X-0.130000X0.100000X0.130000X-0.100000X0.130000X-0.100000X-0.130000X0*%
%ADD20RoundRect,0.100000X0.130000X0.100000X-0.130000X0.100000X-0.130000X-0.100000X0.130000X-0.100000X0*%
%ADD21R,0.550000X0.500000*%
%ADD22RoundRect,0.140000X-0.170000X0.140000X-0.170000X-0.140000X0.170000X-0.140000X0.170000X0.140000X0*%
%ADD23RoundRect,0.087500X0.250000X0.087500X-0.250000X0.087500X-0.250000X-0.087500X0.250000X-0.087500X0*%
%ADD24R,1.000000X0.700000*%
%ADD25RoundRect,0.225000X0.250000X-0.225000X0.250000X0.225000X-0.250000X0.225000X-0.250000X-0.225000X0*%
%ADD26RoundRect,0.140000X0.170000X-0.140000X0.170000X0.140000X-0.170000X0.140000X-0.170000X-0.140000X0*%
%ADD27RoundRect,0.225000X0.225000X0.250000X-0.225000X0.250000X-0.225000X-0.250000X0.225000X-0.250000X0*%
%ADD28RoundRect,0.100000X0.021213X0.162635X-0.162635X-0.021213X-0.021213X-0.162635X0.162635X0.021213X0*%
%ADD29R,0.450000X0.400000*%
%ADD30R,1.120000X1.720000*%
%ADD31RoundRect,0.140000X0.140000X0.170000X-0.140000X0.170000X-0.140000X-0.170000X0.140000X-0.170000X0*%
G04 APERTURE END LIST*
D10*
X131638094Y-96954819D02*
X131066666Y-96954819D01*
X131352380Y-97954819D02*
X131352380Y-96954819D01*
X130733332Y-97954819D02*
X130733332Y-96954819D01*
X130733332Y-96954819D02*
X130352380Y-96954819D01*
X130352380Y-96954819D02*
X130257142Y-97002438D01*
X130257142Y-97002438D02*
X130209523Y-97050057D01*
X130209523Y-97050057D02*
X130161904Y-97145295D01*
X130161904Y-97145295D02*
X130161904Y-97288152D01*
X130161904Y-97288152D02*
X130209523Y-97383390D01*
X130209523Y-97383390D02*
X130257142Y-97431009D01*
X130257142Y-97431009D02*
X130352380Y-97478628D01*
X130352380Y-97478628D02*
X130733332Y-97478628D01*
X129209523Y-97954819D02*
X129780951Y-97954819D01*
X129495237Y-97954819D02*
X129495237Y-96954819D01*
X129495237Y-96954819D02*
X129590475Y-97097676D01*
X129590475Y-97097676D02*
X129685713Y-97192914D01*
X129685713Y-97192914D02*
X129780951Y-97240533D01*
X128257142Y-97954819D02*
X128828570Y-97954819D01*
X128542856Y-97954819D02*
X128542856Y-96954819D01*
X128542856Y-96954819D02*
X128638094Y-97097676D01*
X128638094Y-97097676D02*
X128733332Y-97192914D01*
X128733332Y-97192914D02*
X128828570Y-97240533D01*
X131838094Y-92754819D02*
X131266666Y-92754819D01*
X131552380Y-93754819D02*
X131552380Y-92754819D01*
X130933332Y-93754819D02*
X130933332Y-92754819D01*
X130933332Y-92754819D02*
X130552380Y-92754819D01*
X130552380Y-92754819D02*
X130457142Y-92802438D01*
X130457142Y-92802438D02*
X130409523Y-92850057D01*
X130409523Y-92850057D02*
X130361904Y-92945295D01*
X130361904Y-92945295D02*
X130361904Y-93088152D01*
X130361904Y-93088152D02*
X130409523Y-93183390D01*
X130409523Y-93183390D02*
X130457142Y-93231009D01*
X130457142Y-93231009D02*
X130552380Y-93278628D01*
X130552380Y-93278628D02*
X130933332Y-93278628D01*
X129409523Y-93754819D02*
X129980951Y-93754819D01*
X129695237Y-93754819D02*
X129695237Y-92754819D01*
X129695237Y-92754819D02*
X129790475Y-92897676D01*
X129790475Y-92897676D02*
X129885713Y-92992914D01*
X129885713Y-92992914D02*
X129980951Y-93040533D01*
X128790475Y-92754819D02*
X128695237Y-92754819D01*
X128695237Y-92754819D02*
X128599999Y-92802438D01*
X128599999Y-92802438D02*
X128552380Y-92850057D01*
X128552380Y-92850057D02*
X128504761Y-92945295D01*
X128504761Y-92945295D02*
X128457142Y-93135771D01*
X128457142Y-93135771D02*
X128457142Y-93373866D01*
X128457142Y-93373866D02*
X128504761Y-93564342D01*
X128504761Y-93564342D02*
X128552380Y-93659580D01*
X128552380Y-93659580D02*
X128599999Y-93707200D01*
X128599999Y-93707200D02*
X128695237Y-93754819D01*
X128695237Y-93754819D02*
X128790475Y-93754819D01*
X128790475Y-93754819D02*
X128885713Y-93707200D01*
X128885713Y-93707200D02*
X128933332Y-93659580D01*
X128933332Y-93659580D02*
X128980951Y-93564342D01*
X128980951Y-93564342D02*
X129028570Y-93373866D01*
X129028570Y-93373866D02*
X129028570Y-93135771D01*
X129028570Y-93135771D02*
X128980951Y-92945295D01*
X128980951Y-92945295D02*
X128933332Y-92850057D01*
X128933332Y-92850057D02*
X128885713Y-92802438D01*
X128885713Y-92802438D02*
X128790475Y-92754819D01*
X130161904Y-88854819D02*
X129590476Y-88854819D01*
X129876190Y-89854819D02*
X129876190Y-88854819D01*
X129257142Y-89854819D02*
X129257142Y-88854819D01*
X129257142Y-88854819D02*
X128876190Y-88854819D01*
X128876190Y-88854819D02*
X128780952Y-88902438D01*
X128780952Y-88902438D02*
X128733333Y-88950057D01*
X128733333Y-88950057D02*
X128685714Y-89045295D01*
X128685714Y-89045295D02*
X128685714Y-89188152D01*
X128685714Y-89188152D02*
X128733333Y-89283390D01*
X128733333Y-89283390D02*
X128780952Y-89331009D01*
X128780952Y-89331009D02*
X128876190Y-89378628D01*
X128876190Y-89378628D02*
X129257142Y-89378628D01*
X128209523Y-89854819D02*
X128019047Y-89854819D01*
X128019047Y-89854819D02*
X127923809Y-89807200D01*
X127923809Y-89807200D02*
X127876190Y-89759580D01*
X127876190Y-89759580D02*
X127780952Y-89616723D01*
X127780952Y-89616723D02*
X127733333Y-89426247D01*
X127733333Y-89426247D02*
X127733333Y-89045295D01*
X127733333Y-89045295D02*
X127780952Y-88950057D01*
X127780952Y-88950057D02*
X127828571Y-88902438D01*
X127828571Y-88902438D02*
X127923809Y-88854819D01*
X127923809Y-88854819D02*
X128114285Y-88854819D01*
X128114285Y-88854819D02*
X128209523Y-88902438D01*
X128209523Y-88902438D02*
X128257142Y-88950057D01*
X128257142Y-88950057D02*
X128304761Y-89045295D01*
X128304761Y-89045295D02*
X128304761Y-89283390D01*
X128304761Y-89283390D02*
X128257142Y-89378628D01*
X128257142Y-89378628D02*
X128209523Y-89426247D01*
X128209523Y-89426247D02*
X128114285Y-89473866D01*
X128114285Y-89473866D02*
X127923809Y-89473866D01*
X127923809Y-89473866D02*
X127828571Y-89426247D01*
X127828571Y-89426247D02*
X127780952Y-89378628D01*
X127780952Y-89378628D02*
X127733333Y-89283390D01*
X127761904Y-87754819D02*
X127190476Y-87754819D01*
X127476190Y-88754819D02*
X127476190Y-87754819D01*
X126857142Y-88754819D02*
X126857142Y-87754819D01*
X126857142Y-87754819D02*
X126476190Y-87754819D01*
X126476190Y-87754819D02*
X126380952Y-87802438D01*
X126380952Y-87802438D02*
X126333333Y-87850057D01*
X126333333Y-87850057D02*
X126285714Y-87945295D01*
X126285714Y-87945295D02*
X126285714Y-88088152D01*
X126285714Y-88088152D02*
X126333333Y-88183390D01*
X126333333Y-88183390D02*
X126380952Y-88231009D01*
X126380952Y-88231009D02*
X126476190Y-88278628D01*
X126476190Y-88278628D02*
X126857142Y-88278628D01*
X125714285Y-88183390D02*
X125809523Y-88135771D01*
X125809523Y-88135771D02*
X125857142Y-88088152D01*
X125857142Y-88088152D02*
X125904761Y-87992914D01*
X125904761Y-87992914D02*
X125904761Y-87945295D01*
X125904761Y-87945295D02*
X125857142Y-87850057D01*
X125857142Y-87850057D02*
X125809523Y-87802438D01*
X125809523Y-87802438D02*
X125714285Y-87754819D01*
X125714285Y-87754819D02*
X125523809Y-87754819D01*
X125523809Y-87754819D02*
X125428571Y-87802438D01*
X125428571Y-87802438D02*
X125380952Y-87850057D01*
X125380952Y-87850057D02*
X125333333Y-87945295D01*
X125333333Y-87945295D02*
X125333333Y-87992914D01*
X125333333Y-87992914D02*
X125380952Y-88088152D01*
X125380952Y-88088152D02*
X125428571Y-88135771D01*
X125428571Y-88135771D02*
X125523809Y-88183390D01*
X125523809Y-88183390D02*
X125714285Y-88183390D01*
X125714285Y-88183390D02*
X125809523Y-88231009D01*
X125809523Y-88231009D02*
X125857142Y-88278628D01*
X125857142Y-88278628D02*
X125904761Y-88373866D01*
X125904761Y-88373866D02*
X125904761Y-88564342D01*
X125904761Y-88564342D02*
X125857142Y-88659580D01*
X125857142Y-88659580D02*
X125809523Y-88707200D01*
X125809523Y-88707200D02*
X125714285Y-88754819D01*
X125714285Y-88754819D02*
X125523809Y-88754819D01*
X125523809Y-88754819D02*
X125428571Y-88707200D01*
X125428571Y-88707200D02*
X125380952Y-88659580D01*
X125380952Y-88659580D02*
X125333333Y-88564342D01*
X125333333Y-88564342D02*
X125333333Y-88373866D01*
X125333333Y-88373866D02*
X125380952Y-88278628D01*
X125380952Y-88278628D02*
X125428571Y-88231009D01*
X125428571Y-88231009D02*
X125523809Y-88183390D01*
X122961904Y-91454819D02*
X122390476Y-91454819D01*
X122676190Y-92454819D02*
X122676190Y-91454819D01*
X122057142Y-92454819D02*
X122057142Y-91454819D01*
X122057142Y-91454819D02*
X121676190Y-91454819D01*
X121676190Y-91454819D02*
X121580952Y-91502438D01*
X121580952Y-91502438D02*
X121533333Y-91550057D01*
X121533333Y-91550057D02*
X121485714Y-91645295D01*
X121485714Y-91645295D02*
X121485714Y-91788152D01*
X121485714Y-91788152D02*
X121533333Y-91883390D01*
X121533333Y-91883390D02*
X121580952Y-91931009D01*
X121580952Y-91931009D02*
X121676190Y-91978628D01*
X121676190Y-91978628D02*
X122057142Y-91978628D01*
X121152380Y-91454819D02*
X120485714Y-91454819D01*
X120485714Y-91454819D02*
X120914285Y-92454819D01*
X129461904Y-100354819D02*
X128890476Y-100354819D01*
X129176190Y-101354819D02*
X129176190Y-100354819D01*
X128557142Y-101354819D02*
X128557142Y-100354819D01*
X128557142Y-100354819D02*
X128176190Y-100354819D01*
X128176190Y-100354819D02*
X128080952Y-100402438D01*
X128080952Y-100402438D02*
X128033333Y-100450057D01*
X128033333Y-100450057D02*
X127985714Y-100545295D01*
X127985714Y-100545295D02*
X127985714Y-100688152D01*
X127985714Y-100688152D02*
X128033333Y-100783390D01*
X128033333Y-100783390D02*
X128080952Y-100831009D01*
X128080952Y-100831009D02*
X128176190Y-100878628D01*
X128176190Y-100878628D02*
X128557142Y-100878628D01*
X127128571Y-100688152D02*
X127128571Y-101354819D01*
X127366666Y-100307200D02*
X127604761Y-101021485D01*
X127604761Y-101021485D02*
X126985714Y-101021485D01*
X123261904Y-94354819D02*
X122690476Y-94354819D01*
X122976190Y-95354819D02*
X122976190Y-94354819D01*
X122357142Y-95354819D02*
X122357142Y-94354819D01*
X122357142Y-94354819D02*
X121976190Y-94354819D01*
X121976190Y-94354819D02*
X121880952Y-94402438D01*
X121880952Y-94402438D02*
X121833333Y-94450057D01*
X121833333Y-94450057D02*
X121785714Y-94545295D01*
X121785714Y-94545295D02*
X121785714Y-94688152D01*
X121785714Y-94688152D02*
X121833333Y-94783390D01*
X121833333Y-94783390D02*
X121880952Y-94831009D01*
X121880952Y-94831009D02*
X121976190Y-94878628D01*
X121976190Y-94878628D02*
X122357142Y-94878628D01*
X121404761Y-94450057D02*
X121357142Y-94402438D01*
X121357142Y-94402438D02*
X121261904Y-94354819D01*
X121261904Y-94354819D02*
X121023809Y-94354819D01*
X121023809Y-94354819D02*
X120928571Y-94402438D01*
X120928571Y-94402438D02*
X120880952Y-94450057D01*
X120880952Y-94450057D02*
X120833333Y-94545295D01*
X120833333Y-94545295D02*
X120833333Y-94640533D01*
X120833333Y-94640533D02*
X120880952Y-94783390D01*
X120880952Y-94783390D02*
X121452380Y-95354819D01*
X121452380Y-95354819D02*
X120833333Y-95354819D01*
X135461904Y-89754819D02*
X134890476Y-89754819D01*
X135176190Y-90754819D02*
X135176190Y-89754819D01*
X134557142Y-90754819D02*
X134557142Y-89754819D01*
X134557142Y-89754819D02*
X134176190Y-89754819D01*
X134176190Y-89754819D02*
X134080952Y-89802438D01*
X134080952Y-89802438D02*
X134033333Y-89850057D01*
X134033333Y-89850057D02*
X133985714Y-89945295D01*
X133985714Y-89945295D02*
X133985714Y-90088152D01*
X133985714Y-90088152D02*
X134033333Y-90183390D01*
X134033333Y-90183390D02*
X134080952Y-90231009D01*
X134080952Y-90231009D02*
X134176190Y-90278628D01*
X134176190Y-90278628D02*
X134557142Y-90278628D01*
X133033333Y-90754819D02*
X133604761Y-90754819D01*
X133319047Y-90754819D02*
X133319047Y-89754819D01*
X133319047Y-89754819D02*
X133414285Y-89897676D01*
X133414285Y-89897676D02*
X133509523Y-89992914D01*
X133509523Y-89992914D02*
X133604761Y-90040533D01*
D11*
%TO.C,TP11*%
X131700000Y-99100000D02*
G75*
G02*
X130300000Y-99100000I-700000J0D01*
G01*
X130300000Y-99100000D02*
G75*
G02*
X131700000Y-99100000I700000J0D01*
G01*
%TO.C,TP10*%
X130400000Y-91800000D02*
G75*
G02*
X129000000Y-91800000I-700000J0D01*
G01*
X129000000Y-91800000D02*
G75*
G02*
X130400000Y-91800000I700000J0D01*
G01*
%TO.C,TP9*%
X127600000Y-89600000D02*
G75*
G02*
X126200000Y-89600000I-700000J0D01*
G01*
X126200000Y-89600000D02*
G75*
G02*
X127600000Y-89600000I700000J0D01*
G01*
%TO.C,TP8*%
X125900000Y-89600000D02*
G75*
G02*
X124500000Y-89600000I-700000J0D01*
G01*
X124500000Y-89600000D02*
G75*
G02*
X125900000Y-89600000I700000J0D01*
G01*
%TO.C,TP7*%
X122800000Y-93400000D02*
G75*
G02*
X121400000Y-93400000I-700000J0D01*
G01*
X121400000Y-93400000D02*
G75*
G02*
X122800000Y-93400000I700000J0D01*
G01*
%TO.C,TP4*%
X126900000Y-100900000D02*
G75*
G02*
X125500000Y-100900000I-700000J0D01*
G01*
X125500000Y-100900000D02*
G75*
G02*
X126900000Y-100900000I700000J0D01*
G01*
%TO.C,TP2*%
X122800000Y-96300000D02*
G75*
G02*
X121400000Y-96300000I-700000J0D01*
G01*
X121400000Y-96300000D02*
G75*
G02*
X122800000Y-96300000I700000J0D01*
G01*
%TO.C,TP1*%
X134800000Y-88700000D02*
G75*
G02*
X133400000Y-88700000I-700000J0D01*
G01*
X133400000Y-88700000D02*
G75*
G02*
X134800000Y-88700000I700000J0D01*
G01*
D10*
%TO.C,SW1*%
X123700000Y-95800000D02*
X126300000Y-95800000D01*
X123700000Y-94200000D02*
X126300000Y-94200000D01*
D11*
%TO.C,C35*%
X129140000Y-99332164D02*
X129140000Y-99547836D01*
X129860000Y-99332164D02*
X129860000Y-99547836D01*
%TO.C,U4*%
X130890000Y-94835000D02*
X130890000Y-94965000D01*
X130890000Y-95835000D02*
X132310000Y-95835000D01*
X132025568Y-93965000D02*
X130890000Y-93965000D01*
X132320000Y-93960001D02*
X132180000Y-93770000D01*
X132460000Y-93770000D01*
X132320000Y-93960001D01*
G36*
X132320000Y-93960001D02*
G01*
X132180000Y-93770000D01*
X132460000Y-93770000D01*
X132320000Y-93960001D01*
G37*
D12*
%TO.C,D2*%
X123570000Y-87871000D02*
X121930000Y-87871000D01*
X121734000Y-87490000D02*
G75*
G02*
X123777500Y-87490000I1021750J-458386D01*
G01*
%TO.C,D5*%
X121930000Y-102129000D02*
X123570000Y-102129000D01*
X123766000Y-102510000D02*
G75*
G02*
X121722500Y-102510000I-1021750J458386D01*
G01*
D11*
%TO.C,C23*%
X123390000Y-91765581D02*
X123390000Y-91484419D01*
X124410000Y-91765581D02*
X124410000Y-91484419D01*
%TO.C,C19*%
X127840000Y-91437836D02*
X127840000Y-91222164D01*
X128560000Y-91437836D02*
X128560000Y-91222164D01*
%TO.C,C30*%
X125740581Y-98290000D02*
X125459419Y-98290000D01*
X125740581Y-99310000D02*
X125459419Y-99310000D01*
%TO.C,U5*%
X127200000Y-90390000D02*
X125200000Y-90390000D01*
X127200000Y-92610000D02*
X125200000Y-92610000D01*
X128040000Y-90490000D02*
X127760000Y-90490000D01*
X127760000Y-90210000D01*
X128040000Y-90490000D01*
G36*
X128040000Y-90490000D02*
G01*
X127760000Y-90490000D01*
X127760000Y-90210000D01*
X128040000Y-90490000D01*
G37*
D12*
%TO.C,D1*%
X131570000Y-87871000D02*
X129930000Y-87871000D01*
X129734000Y-87490000D02*
G75*
G02*
X131777500Y-87490000I1021750J-458386D01*
G01*
%TO.C,D6*%
X129930000Y-102129000D02*
X131570000Y-102129000D01*
X131766000Y-102510000D02*
G75*
G02*
X129722500Y-102510000I-1021750J458386D01*
G01*
D11*
%TO.C,C31*%
X124387836Y-99740000D02*
X124172164Y-99740000D01*
X124387836Y-100460000D02*
X124172164Y-100460000D01*
D13*
%TO.C,U1*%
X123800000Y-98600000D02*
G75*
G02*
X123600000Y-98600000I-100000J0D01*
G01*
X123600000Y-98600000D02*
G75*
G02*
X123800000Y-98600000I100000J0D01*
G01*
%TD*%
%LPC*%
D14*
%TO.C,U1*%
X122897991Y-98900000D02*
X122700000Y-99097991D01*
X122502009Y-98900000D01*
X122700000Y-98702009D01*
X122897991Y-98900000D01*
G36*
X122897991Y-98900000D02*
G01*
X122700000Y-99097991D01*
X122502009Y-98900000D01*
X122700000Y-98702009D01*
X122897991Y-98900000D01*
G37*
X122560000Y-98629881D02*
X122389881Y-98800000D01*
X122200000Y-98800000D01*
X122200000Y-98500000D01*
X122560000Y-98500000D01*
X122560000Y-98629881D01*
G36*
X122560000Y-98629881D02*
G01*
X122389881Y-98800000D01*
X122200000Y-98800000D01*
X122200000Y-98500000D01*
X122560000Y-98500000D01*
X122560000Y-98629881D01*
G37*
X122560000Y-99170119D02*
X122560000Y-99300000D01*
X122200000Y-99300000D01*
X122200000Y-99000000D01*
X122389881Y-99000000D01*
X122560000Y-99170119D01*
G36*
X122560000Y-99170119D02*
G01*
X122560000Y-99300000D01*
X122200000Y-99300000D01*
X122200000Y-99000000D01*
X122389881Y-99000000D01*
X122560000Y-99170119D01*
G37*
X123200000Y-98800000D02*
X123010119Y-98800000D01*
X122840000Y-98629881D01*
X122840000Y-98500000D01*
X123200000Y-98500000D01*
X123200000Y-98800000D01*
G36*
X123200000Y-98800000D02*
G01*
X123010119Y-98800000D01*
X122840000Y-98629881D01*
X122840000Y-98500000D01*
X123200000Y-98500000D01*
X123200000Y-98800000D01*
G37*
X123200000Y-99300000D02*
X122840000Y-99300000D01*
X122840000Y-99170119D01*
X123010119Y-99000000D01*
X123200000Y-99000000D01*
X123200000Y-99300000D01*
G36*
X123200000Y-99300000D02*
G01*
X122840000Y-99300000D01*
X122840000Y-99170119D01*
X123010119Y-99000000D01*
X123200000Y-99000000D01*
X123200000Y-99300000D01*
G37*
%TD*%
D15*
%TO.C,TP11*%
X131000000Y-99100000D03*
%TD*%
%TO.C,TP10*%
X129700000Y-91800000D03*
%TD*%
%TO.C,TP9*%
X126900000Y-89600000D03*
%TD*%
%TO.C,TP8*%
X125200000Y-89600000D03*
%TD*%
%TO.C,TP7*%
X122100000Y-93400000D03*
%TD*%
%TO.C,TP4*%
X126200000Y-100900000D03*
%TD*%
%TO.C,TP2*%
X122100000Y-96300000D03*
%TD*%
%TO.C,TP1*%
X134100000Y-88700000D03*
%TD*%
D16*
%TO.C,C2*%
X122820000Y-100700000D03*
X122180000Y-100700000D03*
%TD*%
D17*
%TO.C,R1*%
X132300000Y-92580000D03*
X132300000Y-93220000D03*
%TD*%
D18*
%TO.C,P1*%
X133649000Y-98700000D03*
X133649500Y-91300000D03*
%TD*%
D19*
%TO.C,R2*%
X132300000Y-97220000D03*
X132300000Y-96580000D03*
%TD*%
D20*
%TO.C,C1*%
X123020000Y-97790000D03*
X122380000Y-97790000D03*
%TD*%
%TO.C,R13*%
X126320000Y-96600000D03*
X125680000Y-96600000D03*
%TD*%
D21*
%TO.C,SW1*%
X126325000Y-94600000D03*
X126325000Y-95400000D03*
X123675000Y-94600000D03*
X123675000Y-95400000D03*
%TD*%
D22*
%TO.C,C35*%
X129500000Y-98960000D03*
X129500000Y-99920000D03*
%TD*%
D23*
%TO.C,U4*%
X132312500Y-94400000D03*
X132312501Y-94900000D03*
X132312500Y-95400000D03*
X130887500Y-95400000D03*
X130887500Y-94400000D03*
%TD*%
D24*
%TO.C,D2*%
X124250000Y-88125000D03*
D21*
X123165000Y-88375000D03*
X122335000Y-88375000D03*
D24*
X121250000Y-88125000D03*
%TD*%
%TO.C,D5*%
X121250000Y-101875000D03*
D21*
X122335000Y-101625000D03*
X123165000Y-101625000D03*
D24*
X124250000Y-101875000D03*
%TD*%
D25*
%TO.C,C23*%
X123900000Y-92400000D03*
X123900000Y-90850000D03*
%TD*%
D26*
%TO.C,C19*%
X128200000Y-91810000D03*
X128200000Y-90850000D03*
%TD*%
D27*
%TO.C,C30*%
X126375000Y-98800000D03*
X124825000Y-98800000D03*
%TD*%
D20*
%TO.C,C4*%
X130975000Y-89300000D03*
X130335000Y-89300000D03*
%TD*%
D28*
%TO.C,R3*%
X129826274Y-95347452D03*
X129373726Y-95800000D03*
%TD*%
D20*
%TO.C,C3*%
X131805000Y-100700000D03*
X131165000Y-100700000D03*
%TD*%
D19*
%TO.C,R5*%
X121400000Y-100120000D03*
X121400000Y-99480000D03*
%TD*%
D29*
%TO.C,U5*%
X127125000Y-90850000D03*
X127125000Y-91500000D03*
X127125000Y-92150000D03*
X125275000Y-92150000D03*
X125275000Y-91500000D03*
X125275000Y-90850000D03*
D30*
X126200000Y-91500000D03*
%TD*%
D24*
%TO.C,D1*%
X132250000Y-88125000D03*
D21*
X131165000Y-88375000D03*
X130335000Y-88375000D03*
D24*
X129250000Y-88125000D03*
%TD*%
D19*
%TO.C,R11*%
X128300000Y-99920000D03*
X128300000Y-99280000D03*
%TD*%
D24*
%TO.C,D6*%
X129250000Y-101875000D03*
D21*
X130335000Y-101625000D03*
X131165000Y-101625000D03*
D24*
X132250000Y-101875000D03*
%TD*%
D28*
%TO.C,R4*%
X129626274Y-94547452D03*
X129173726Y-95000000D03*
%TD*%
D31*
%TO.C,C31*%
X124760000Y-100100000D03*
X123800000Y-100100000D03*
%TD*%
D20*
%TO.C,C5*%
X122975000Y-89300000D03*
X122335000Y-89300000D03*
%TD*%
%LPD*%
M02*
