%TF.GenerationSoftware,KiCad,Pcbnew,9.0.7*%
%TF.CreationDate,2026-02-06T02:12:01+00:00*%
%TF.ProjectId,WSB-PC,5753422d-5043-42e6-9b69-6361645f7063,rev?*%
%TF.SameCoordinates,Original*%
%TF.FileFunction,Paste,Bot*%
%TF.FilePolarity,Positive*%
%FSLAX46Y46*%
G04 Gerber Fmt 4.6, Leading zero omitted, Abs format (unit mm)*
G04 Created by KiCad (PCBNEW 9.0.7) date 2026-02-06 02:12:01*
%MOMM*%
%LPD*%
G01*
G04 APERTURE LIST*
G04 Aperture macros list*
%AMRoundRect*
0 Rectangle with rounded corners*
0 $1 Rounding radius*
0 $2 $3 $4 $5 $6 $7 $8 $9 X,Y pos of 4 corners*
0 Add a 4 corners polygon primitive as box body*
4,1,4,$2,$3,$4,$5,$6,$7,$8,$9,$2,$3,0*
0 Add four circle primitives for the rounded corners*
1,1,$1+$1,$2,$3*
1,1,$1+$1,$4,$5*
1,1,$1+$1,$6,$7*
1,1,$1+$1,$8,$9*
0 Add four rect primitives between the rounded corners*
20,1,$1+$1,$2,$3,$4,$5,0*
20,1,$1+$1,$4,$5,$6,$7,0*
20,1,$1+$1,$6,$7,$8,$9,0*
20,1,$1+$1,$8,$9,$2,$3,0*%
G04 Aperture macros list end*
%ADD10C,0.010000*%
%ADD11RoundRect,0.079500X-0.079500X-0.100500X0.079500X-0.100500X0.079500X0.100500X-0.079500X0.100500X0*%
%ADD12RoundRect,0.079500X-0.100500X0.079500X-0.100500X-0.079500X0.100500X-0.079500X0.100500X0.079500X0*%
%ADD13RoundRect,0.079500X0.100500X-0.079500X0.100500X0.079500X-0.100500X0.079500X-0.100500X-0.079500X0*%
%ADD14RoundRect,0.079500X0.079500X0.100500X-0.079500X0.100500X-0.079500X-0.100500X0.079500X-0.100500X0*%
%ADD15R,0.550000X0.500000*%
%ADD16RoundRect,0.140000X-0.170000X0.140000X-0.170000X-0.140000X0.170000X-0.140000X0.170000X0.140000X0*%
%ADD17RoundRect,0.087500X0.250000X0.087500X-0.250000X0.087500X-0.250000X-0.087500X0.250000X-0.087500X0*%
%ADD18R,1.000000X0.700000*%
%ADD19RoundRect,0.225000X0.250000X-0.225000X0.250000X0.225000X-0.250000X0.225000X-0.250000X-0.225000X0*%
%ADD20RoundRect,0.140000X0.170000X-0.140000X0.170000X0.140000X-0.170000X0.140000X-0.170000X-0.140000X0*%
%ADD21RoundRect,0.225000X0.225000X0.250000X-0.225000X0.250000X-0.225000X-0.250000X0.225000X-0.250000X0*%
%ADD22RoundRect,0.079500X-0.014849X0.127279X-0.127279X0.014849X0.014849X-0.127279X0.127279X-0.014849X0*%
%ADD23R,0.820000X0.630000*%
%ADD24R,0.450000X0.400000*%
%ADD25RoundRect,0.140000X0.140000X0.170000X-0.140000X0.170000X-0.140000X-0.170000X0.140000X-0.170000X0*%
G04 APERTURE END LIST*
D10*
%TO.C,U1*%
X122897991Y-98900000D02*
X122700000Y-99097991D01*
X122502009Y-98900000D01*
X122700000Y-98702009D01*
X122897991Y-98900000D01*
G36*
X122897991Y-98900000D02*
G01*
X122700000Y-99097991D01*
X122502009Y-98900000D01*
X122700000Y-98702009D01*
X122897991Y-98900000D01*
G37*
X122540000Y-99164259D02*
X122540000Y-99280000D01*
X122220000Y-99280000D01*
X122220000Y-99020000D01*
X122395741Y-99020000D01*
X122540000Y-99164259D01*
G36*
X122540000Y-99164259D02*
G01*
X122540000Y-99280000D01*
X122220000Y-99280000D01*
X122220000Y-99020000D01*
X122395741Y-99020000D01*
X122540000Y-99164259D01*
G37*
X122540000Y-98635741D02*
X122395741Y-98780000D01*
X122220000Y-98780000D01*
X122220000Y-98520000D01*
X122540000Y-98520000D01*
X122540000Y-98635741D01*
G36*
X122540000Y-98635741D02*
G01*
X122395741Y-98780000D01*
X122220000Y-98780000D01*
X122220000Y-98520000D01*
X122540000Y-98520000D01*
X122540000Y-98635741D01*
G37*
X123180000Y-98780000D02*
X123004259Y-98780000D01*
X122860000Y-98635741D01*
X122860000Y-98520000D01*
X123180000Y-98520000D01*
X123180000Y-98780000D01*
G36*
X123180000Y-98780000D02*
G01*
X123004259Y-98780000D01*
X122860000Y-98635741D01*
X122860000Y-98520000D01*
X123180000Y-98520000D01*
X123180000Y-98780000D01*
G37*
X123180000Y-99280000D02*
X122860000Y-99280000D01*
X122860000Y-99164259D01*
X123004259Y-99020000D01*
X123180000Y-99020000D01*
X123180000Y-99280000D01*
G36*
X123180000Y-99280000D02*
G01*
X122860000Y-99280000D01*
X122860000Y-99164259D01*
X123004259Y-99020000D01*
X123180000Y-99020000D01*
X123180000Y-99280000D01*
G37*
%TD*%
D11*
%TO.C,C2*%
X122845000Y-100700000D03*
X122155000Y-100700000D03*
%TD*%
D12*
%TO.C,R1*%
X132300000Y-92555000D03*
X132300000Y-93245000D03*
%TD*%
D13*
%TO.C,R2*%
X132300000Y-97245000D03*
X132300000Y-96555000D03*
%TD*%
D14*
%TO.C,C1*%
X123045000Y-97790000D03*
X122355000Y-97790000D03*
%TD*%
%TO.C,R13*%
X126345000Y-96600000D03*
X125655000Y-96600000D03*
%TD*%
D15*
%TO.C,SW1*%
X126325000Y-94600000D03*
X126325000Y-95400000D03*
X123675000Y-94600000D03*
X123675000Y-95400000D03*
%TD*%
D16*
%TO.C,C35*%
X129500000Y-98960000D03*
X129500000Y-99920000D03*
%TD*%
D17*
%TO.C,U4*%
X132312500Y-94400000D03*
X132312501Y-94900000D03*
X132312500Y-95400000D03*
X130887500Y-95400000D03*
X130887500Y-94400000D03*
%TD*%
D18*
%TO.C,D2*%
X124250000Y-88125000D03*
D15*
X123165000Y-88375000D03*
X122335000Y-88375000D03*
D18*
X121250000Y-88125000D03*
%TD*%
%TO.C,D5*%
X121250000Y-101875000D03*
D15*
X122335000Y-101625000D03*
X123165000Y-101625000D03*
D18*
X124250000Y-101875000D03*
%TD*%
D19*
%TO.C,C23*%
X123900000Y-92400000D03*
X123900000Y-90850000D03*
%TD*%
D20*
%TO.C,C19*%
X128200000Y-91810000D03*
X128200000Y-90850000D03*
%TD*%
D21*
%TO.C,C30*%
X126375000Y-98800000D03*
X124825000Y-98800000D03*
%TD*%
D14*
%TO.C,C4*%
X131000000Y-89300000D03*
X130310000Y-89300000D03*
%TD*%
D22*
%TO.C,R3*%
X129843952Y-95329774D03*
X129356048Y-95817678D03*
%TD*%
D14*
%TO.C,C3*%
X131830000Y-100700000D03*
X131140000Y-100700000D03*
%TD*%
D13*
%TO.C,R5*%
X121400000Y-100145000D03*
X121400000Y-99455000D03*
%TD*%
D23*
%TO.C,U5*%
X126200000Y-91900000D03*
X126200000Y-91100000D03*
D24*
X127125000Y-90850000D03*
X127125000Y-91500000D03*
X127125000Y-92150000D03*
X125275000Y-92150000D03*
X125275000Y-91500000D03*
X125275000Y-90850000D03*
%TD*%
D18*
%TO.C,D1*%
X132250000Y-88125000D03*
D15*
X131165000Y-88375000D03*
X130335000Y-88375000D03*
D18*
X129250000Y-88125000D03*
%TD*%
D13*
%TO.C,R11*%
X128300000Y-99945000D03*
X128300000Y-99255000D03*
%TD*%
D18*
%TO.C,D6*%
X129250000Y-101875000D03*
D15*
X130335000Y-101625000D03*
X131165000Y-101625000D03*
D18*
X132250000Y-101875000D03*
%TD*%
D22*
%TO.C,R4*%
X129643952Y-94529774D03*
X129156048Y-95017678D03*
%TD*%
D25*
%TO.C,C31*%
X124760000Y-100100000D03*
X123800000Y-100100000D03*
%TD*%
D14*
%TO.C,C5*%
X123000000Y-89300000D03*
X122310000Y-89300000D03*
%TD*%
M02*
