M48
; DRILL file {KiCad 9.0.7} date 2026-02-06T02:12:24+0000
; FORMAT={-:-/ absolute / metric / decimal}
; #@! TF.CreationDate,2026-02-06T02:12:24+00:00
; #@! TF.GenerationSoftware,Kicad,Pcbnew,9.0.7
; #@! TF.FileFunction,Plated,1,6,PTH
FMAT,2
METRIC
; #@! TA.AperFunction,Plated,PTH,ViaDrill
T1C0.300
; #@! TA.AperFunction,Plated,PTH,ViaDrill
T2C0.400
; #@! TA.AperFunction,Plated,PTH,ComponentDrill
T3C0.500
%
G90
G05
T1
X121.05Y-89.05
X121.05Y-100.95
X121.1Y-91.0
X121.1Y-92.6
X121.1Y-94.2
X121.1Y-95.0
X121.1Y-96.6
X121.1Y-98.2
X122.1Y-93.4
X122.1Y-96.3
X122.2Y-100.1
X122.335Y-89.9
X122.38Y-97.79
X122.8Y-100.1
X122.9Y-95.0
X123.0Y-89.9
X123.02Y-97.8
X123.6Y-100.9
X123.7Y-99.15
X123.8Y-100.1
X124.76Y-100.1
X125.2Y-89.5
X126.0Y-89.1
X126.0Y-100.9
X126.2Y-91.5
X127.6Y-100.0
X128.2Y-91.81
X128.3Y-98.7
X129.174Y-95.0
X129.374Y-95.8
X129.5Y-98.96
X130.0Y-90.0
X130.9Y-91.0
X131.7Y-89.7
X131.8Y-99.9
X131.805Y-100.7
X132.1Y-98.2
X132.3Y-92.58
X132.3Y-97.22
X133.1Y-94.0
X133.1Y-94.6
X133.85Y-92.125
X133.85Y-93.625
X133.85Y-95.125
X133.85Y-96.125
X133.85Y-97.625
X135.35Y-92.375
X135.35Y-94.875
X135.35Y-95.875
X135.35Y-97.875
T2
X121.25Y-101.875
X122.8Y-90.85
X123.9Y-90.85
X124.0Y-93.0
X124.0Y-97.0
X124.25Y-88.125
X124.8Y-98.8
X126.4Y-98.8
X128.0Y-93.0
X128.0Y-97.0
X128.2Y-90.85
X129.1Y-90.85
X129.25Y-101.875
X132.25Y-88.125
X133.8Y-89.7
X133.9Y-100.3
X135.1Y-88.4
X135.1Y-101.5
T3
X133.249Y-98.7G85X134.049Y-98.7
G05
X133.249Y-91.3G85X134.049Y-91.3
G05
M30
